IBM Plex Sans-Regular.ufo
<glyph name="comma" format="1">
  <advance width="272"/>
  <unicode hex="002C"/>
  <outline>
    <contour>
      <point x="136" y="117" type="curve" smooth="yes" name="hr00"/>
      <point x="94" y="117"/>
      <point x="75" y="93"/>
      <point x="75" y="58" type="curve" smooth="yes"/>
      <point x="75" y="44" type="line" smooth="yes"/>
      <point x="75" y="17"/>
      <point x="87" y="-3"/>
      <point x="114" y="-9" type="curve"/>
      <point x="103" y="-56"/>
      <point x="79" y="-91"/>
      <point x="39" y="-133" type="curve"/>
      <point x="106" y="-133" type="line"/>
      <point x="163" y="-84"/>
      <point x="197" y="-10"/>
      <point x="197" y="44" type="curve" smooth="yes"/>
      <point x="197" y="58" type="line" smooth="yes"/>
      <point x="197" y="93"/>
      <point x="178" y="117"/>
    </contour>
  </outline>
</glyph>
<glyph name="eight" format="1">
  <advance width="600"/>
  <unicode hex="0038"/>
  <outline>
    <contour>
      <point x="300" y="-12" type="curve" smooth="yes"/>
      <point x="459" y="-12"/>
      <point x="542" y="75"/>
      <point x="542" y="190" type="curve" smooth="yes"/>
      <point x="542" y="285"/>
      <point x="485" y="340"/>
      <point x="401" y="363" type="curve"/>
      <point x="401" y="371" type="line"/>
      <point x="474" y="396"/>
      <point x="521" y="455"/>
      <point x="521" y="535" type="curve" smooth="yes" name="hr01"/>
      <point x="521" y="641"/>
      <point x="439" y="710"/>
      <point x="300" y="710" type="curve" smooth="yes"/>
      <point x="161" y="710"/>
      <point x="79" y="641"/>
      <point x="79" y="535" type="curve" smooth="yes"/>
      <point x="79" y="455"/>
      <point x="126" y="396"/>
      <point x="199" y="371" type="curve"/>
      <point x="199" y="363" type="line"/>
      <point x="115" y="340"/>
      <point x="58" y="285"/>
      <point x="58" y="190" type="curve" smooth="yes" name="hr02"/>
      <point x="58" y="75"/>
      <point x="141" y="-12"/>
    </contour>
    <contour>
      <point x="300" y="61" type="curve" smooth="yes"/>
      <point x="203" y="61"/>
      <point x="147" y="107"/>
      <point x="147" y="186" type="curve" smooth="yes"/>
      <point x="147" y="207" type="line" smooth="yes"/>
      <point x="147" y="286"/>
      <point x="203" y="332"/>
      <point x="300" y="332" type="curve" smooth="yes"/>
      <point x="397" y="332"/>
      <point x="453" y="286"/>
      <point x="453" y="207" type="curve" smooth="yes"/>
      <point x="453" y="186" type="line" smooth="yes"/>
      <point x="453" y="107"/>
      <point x="397" y="61"/>
    </contour>
    <contour>
      <point x="300" y="402" type="curve" smooth="yes"/>
      <point x="213" y="402"/>
      <point x="166" y="441"/>
      <point x="166" y="512" type="curve" smooth="yes" name="hr03"/>
      <point x="166" y="527" type="line" smooth="yes"/>
      <point x="166" y="598"/>
      <point x="213" y="637"/>
      <point x="300" y="637" type="curve" smooth="yes"/>
      <point x="387" y="637"/>
      <point x="434" y="598"/>
      <point x="434" y="527" type="curve" smooth="yes"/>
      <point x="434" y="512" type="line" smooth="yes"/>
      <point x="434" y="441"/>
      <point x="387" y="402"/>
    </contour>
  </outline>
</glyph>
<glyph name="B" format="1">
  <advance width="653"/>
  <unicode hex="0042"/>
  <outline>
    <contour>
      <point x="93" y="0" type="line"/>
      <point x="410" y="0" type="line"/>
      <point x="513" y="0"/>
      <point x="590" y="87"/>
      <point x="590" y="202" type="curve" smooth="yes"/>
      <point x="590" y="318"/>
      <point x="503" y="361"/>
      <point x="453" y="364" type="curve"/>
      <point x="453" y="370" type="line"/>
      <point x="499" y="377"/>
      <point x="566" y="414"/>
      <point x="566" y="518" type="curve" smooth="yes" name="hr01"/>
      <point x="566" y="627"/>
      <point x="495" y="698"/>
      <point x="380" y="698" type="curve" smooth="yes"/>
      <point x="93" y="698" type="line"/>
    </contour>
    <contour>
      <point x="177" y="324" type="line"/>
      <point x="384" y="324" type="line" smooth="yes"/>
      <point x="456" y="324"/>
      <point x="500" y="286"/>
      <point x="500" y="216" type="curve" smooth="yes" name="hr02"/>
      <point x="500" y="182" type="line" smooth="yes"/>
      <point x="500" y="112"/>
      <point x="456" y="74"/>
      <point x="384" y="74" type="curve" smooth="yes"/>
      <point x="177" y="74" type="line"/>
    </contour>
    <contour>
      <point x="177" y="624" type="line"/>
      <point x="370" y="624" type="line" smooth="yes"/>
      <point x="436" y="624"/>
      <point x="476" y="589"/>
      <point x="476" y="527" type="curve" smooth="yes" name="hr03"/>
      <point x="476" y="493" type="line" smooth="yes"/>
      <point x="476" y="431"/>
      <point x="436" y="396"/>
      <point x="370" y="396" type="curve" smooth="yes"/>
      <point x="177" y="396" type="line"/>
    </contour>
    <contour>
      <point x="307" y="0" type="move" name="bottom"/>
    </contour>
    <contour>
      <point x="307" y="698" type="move" name="top"/>
    </contour>
  </outline>
</glyph>
<glyph name="C" format="1">
  <advance width="621"/>
  <unicode hex="0043"/>
  <outline>
    <contour>
      <point x="339" y="-12" type="curve" smooth="yes" name="hr00"/>
      <point x="455" y="-12"/>
      <point x="540" y="49"/>
      <point x="584" y="147" type="curve"/>
      <point x="517" y="189" type="line"/>
      <point x="489" y="113"/>
      <point x="428" y="63"/>
      <point x="339" y="63" type="curve" smooth="yes"/>
      <point x="219" y="63"/>
      <point x="148" y="150"/>
      <point x="148" y="293" type="curve" smooth="yes"/>
      <point x="148" y="397" type="line" smooth="yes"/>
      <point x="148" y="540"/>
      <point x="219" y="635"/>
      <point x="339" y="635" type="curve" smooth="yes"/>
      <point x="425" y="635"/>
      <point x="483" y="588"/>
      <point x="511" y="516" type="curve"/>
      <point x="579" y="557" type="line"/>
      <point x="535" y="654"/>
      <point x="455" y="710"/>
      <point x="339" y="710" type="curve" smooth="yes"/>
      <point x="163" y="710"/>
      <point x="58" y="578"/>
      <point x="58" y="345" type="curve" smooth="yes"/>
      <point x="58" y="112"/>
      <point x="163" y="-12"/>
    </contour>
    <contour>
      <point x="338" y="0" type="move" name="bottom"/>
    </contour>
    <contour>
      <point x="338" y="698" type="move" name="top"/>
    </contour>
  </outline>
</glyph>
<glyph name="D" format="1">
  <advance width="671"/>
  <unicode hex="0044"/>
  <outline>
    <contour>
      <point x="93" y="0" type="line" name="hr00"/>
      <point x="327" y="0" type="line" smooth="yes"/>
      <point x="501" y="0"/>
      <point x="613" y="116"/>
      <point x="613" y="349" type="curve" smooth="yes"/>
      <point x="613" y="582"/>
      <point x="501" y="698"/>
      <point x="327" y="698" type="curve" smooth="yes"/>
      <point x="93" y="698" type="line"/>
    </contour>
    <contour>
      <point x="177" y="74" type="line"/>
      <point x="177" y="624" type="line"/>
      <point x="327" y="624" type="line" smooth="yes"/>
      <point x="442" y="624"/>
      <point x="523" y="544"/>
      <point x="523" y="406" type="curve" smooth="yes"/>
      <point x="523" y="292" type="line" smooth="yes"/>
      <point x="523" y="154"/>
      <point x="442" y="74"/>
      <point x="327" y="74" type="curve" smooth="yes"/>
    </contour>
    <contour>
      <point x="307" y="0" type="move" name="bottom"/>
    </contour>
    <contour>
      <point x="307" y="698" type="move" name="top"/>
    </contour>
  </outline>
</glyph>
<glyph name="F" format="1">
  <advance width="559"/>
  <unicode hex="0046"/>
  <outline>
    <contour>
      <point x="177" y="0" type="line" name="hr00"/>
      <point x="177" y="316" type="line"/>
      <point x="480" y="316" type="line"/>
      <point x="480" y="390" type="line"/>
      <point x="177" y="390" type="line"/>
      <point x="177" y="624" type="line"/>
      <point x="509" y="624" type="line"/>
      <point x="509" y="698" type="line"/>
      <point x="93" y="698" type="line"/>
      <point x="93" y="0" type="line"/>
    </contour>
    <contour>
      <point x="139" y="0" type="move" name="bottom"/>
    </contour>
    <contour>
      <point x="301" y="698" type="move" name="top"/>
    </contour>
  </outline>
</glyph>
<glyph name="G" format="1">
  <advance width="695"/>
  <unicode hex="0047"/>
  <outline>
    <contour>
      <point x="545" y="0" type="line"/>
      <point x="623" y="0" type="line"/>
      <point x="623" y="359" type="line"/>
      <point x="387" y="359" type="line"/>
      <point x="387" y="285" type="line"/>
      <point x="541" y="285" type="line"/>
      <point x="541" y="216" type="line" smooth="yes"/>
      <point x="541" y="113"/>
      <point x="460" y="63"/>
      <point x="363" y="63" type="curve" smooth="yes" name="hr01"/>
      <point x="230" y="63"/>
      <point x="148" y="155"/>
      <point x="148" y="293" type="curve" smooth="yes"/>
      <point x="148" y="406" type="line" smooth="yes"/>
      <point x="148" y="544"/>
      <point x="232" y="635"/>
      <point x="355" y="635" type="curve" smooth="yes"/>
      <point x="443" y="635"/>
      <point x="508" y="589"/>
      <point x="540" y="515" type="curve"/>
      <point x="609" y="557" type="line"/>
      <point x="564" y="648"/>
      <point x="480" y="710"/>
      <point x="355" y="710" type="curve" smooth="yes"/>
      <point x="176" y="710"/>
      <point x="58" y="581"/>
      <point x="58" y="349" type="curve" smooth="yes"/>
      <point x="58" y="115"/>
      <point x="177" y="-12"/>
      <point x="348" y="-12" type="curve" smooth="yes"/>
      <point x="454" y="-12"/>
      <point x="525" y="37"/>
      <point x="542" y="102" type="curve" name="hr02"/>
      <point x="545" y="102" type="line"/>
    </contour>
    <contour>
      <point x="348" y="0" type="move" name="bottom"/>
    </contour>
    <contour>
      <point x="355" y="698" type="move" name="top"/>
    </contour>
  </outline>
</glyph>
<glyph name="I" format="1">
  <advance width="400"/>
  <unicode hex="0049"/>
  <outline>
    <contour>
      <point x="340" y="0" type="line" name="hr00"/>
      <point x="340" y="70" type="line"/>
      <point x="242" y="70" type="line"/>
      <point x="242" y="628" type="line"/>
      <point x="340" y="628" type="line"/>
      <point x="340" y="698" type="line"/>
      <point x="60" y="698" type="line"/>
      <point x="60" y="628" type="line"/>
      <point x="158" y="628" type="line"/>
      <point x="158" y="70" type="line"/>
      <point x="60" y="70" type="line"/>
      <point x="60" y="0" type="line"/>
    </contour>
    <contour>
      <point x="200" y="0" type="move" name="bottom"/>
    </contour>
    <contour>
      <point x="340" y="0" type="move" name="bottomright"/>
    </contour>
    <contour>
      <point x="200" y="698" type="move" name="top"/>
    </contour>
  </outline>
</glyph>
<glyph name="M" format="1">
  <advance width="812"/>
  <unicode hex="004D"/>
  <outline>
    <contour>
      <point x="93" y="0" type="line" name="hr00"/>
      <point x="175" y="0" type="line"/>
      <point x="175" y="588" type="line"/>
      <point x="180" y="588" type="line"/>
      <point x="239" y="471" type="line"/>
      <point x="406" y="167" type="line"/>
      <point x="573" y="471" type="line"/>
      <point x="632" y="588" type="line"/>
      <point x="637" y="588" type="line"/>
      <point x="637" y="0" type="line"/>
      <point x="719" y="0" type="line"/>
      <point x="719" y="698" type="line"/>
      <point x="611" y="698" type="line"/>
      <point x="410" y="322" type="line"/>
      <point x="405" y="322" type="line"/>
      <point x="205" y="698" type="line"/>
      <point x="93" y="698" type="line"/>
    </contour>
    <contour>
      <point x="406" y="0" type="move" name="bottom"/>
    </contour>
    <contour>
      <point x="406" y="698" type="move" name="top"/>
    </contour>
  </outline>
</glyph>
<glyph name="O" format="1">
  <advance width="708"/>
  <unicode hex="004F"/>
  <outline>
    <contour>
      <point x="354" y="-12" type="curve" smooth="yes" name="hr00"/>
      <point x="534" y="-12"/>
      <point x="650" y="115"/>
      <point x="650" y="349" type="curve" smooth="yes"/>
      <point x="650" y="583"/>
      <point x="534" y="710"/>
      <point x="354" y="710" type="curve" smooth="yes"/>
      <point x="174" y="710"/>
      <point x="58" y="583"/>
      <point x="58" y="349" type="curve" smooth="yes"/>
      <point x="58" y="115"/>
      <point x="174" y="-12"/>
    </contour>
    <contour>
      <point x="354" y="63" type="curve" smooth="yes"/>
      <point x="233" y="63"/>
      <point x="148" y="153"/>
      <point x="148" y="291" type="curve" smooth="yes"/>
      <point x="148" y="407" type="line" smooth="yes"/>
      <point x="148" y="545"/>
      <point x="233" y="635"/>
      <point x="354" y="635" type="curve" smooth="yes"/>
      <point x="475" y="635"/>
      <point x="560" y="545"/>
      <point x="560" y="407" type="curve" smooth="yes"/>
      <point x="560" y="291" type="line" smooth="yes"/>
      <point x="560" y="153"/>
      <point x="475" y="63"/>
    </contour>
    <contour>
      <point x="354" y="0" type="move" name="bottom"/>
    </contour>
    <contour>
      <point x="354" y="698" type="move" name="top"/>
    </contour>
  </outline>
</glyph>
<glyph name="P" format="1">
  <advance width="606"/>
  <unicode hex="0050"/>
  <outline>
    <contour>
      <point x="177" y="0" type="line" name="hr00"/>
      <point x="177" y="298" type="line"/>
      <point x="371" y="298" type="line" smooth="yes"/>
      <point x="496" y="298"/>
      <point x="566" y="375"/>
      <point x="566" y="498" type="curve" smooth="yes"/>
      <point x="566" y="621"/>
      <point x="496" y="698"/>
      <point x="371" y="698" type="curve" smooth="yes"/>
      <point x="93" y="698" type="line"/>
      <point x="93" y="0" type="line"/>
    </contour>
    <contour>
      <point x="177" y="624" type="line"/>
      <point x="371" y="624" type="line" smooth="yes"/>
      <point x="437" y="624"/>
      <point x="476" y="588"/>
      <point x="476" y="524" type="curve" smooth="yes"/>
      <point x="476" y="472" type="line" smooth="yes"/>
      <point x="476" y="408"/>
      <point x="437" y="372"/>
      <point x="371" y="372" type="curve" smooth="yes"/>
      <point x="177" y="372" type="line"/>
    </contour>
    <contour>
      <point x="140" y="0" type="move" name="bottom"/>
    </contour>
    <contour>
      <point x="307" y="698" type="move" name="top"/>
    </contour>
  </outline>
</glyph>
<glyph name="S" format="1">
  <advance width="581"/>
  <unicode hex="0053"/>
  <outline>
    <contour>
      <point x="289" y="-12" type="curve" smooth="yes" name="hr00"/>
      <point x="439" y="-12"/>
      <point x="529" y="70"/>
      <point x="529" y="198" type="curve" smooth="yes"/>
      <point x="529" y="302"/>
      <point x="470" y="362"/>
      <point x="334" y="393" type="curve" smooth="yes"/>
      <point x="277" y="406" type="line" smooth="yes"/>
      <point x="189" y="426"/>
      <point x="146" y="456"/>
      <point x="146" y="522" type="curve" smooth="yes"/>
      <point x="146" y="597"/>
      <point x="201" y="636"/>
      <point x="290" y="636" type="curve" smooth="yes"/>
      <point x="371" y="636"/>
      <point x="424" y="603"/>
      <point x="462" y="550" type="curve"/>
      <point x="525" y="596" type="line"/>
      <point x="473" y="670"/>
      <point x="399" y="710"/>
      <point x="294" y="710" type="curve" smooth="yes"/>
      <point x="157" y="710"/>
      <point x="63" y="643"/>
      <point x="63" y="519" type="curve" smooth="yes"/>
      <point x="63" y="412"/>
      <point x="133" y="356"/>
      <point x="260" y="327" type="curve" smooth="yes"/>
      <point x="317" y="314" type="line" smooth="yes"/>
      <point x="409" y="293"/>
      <point x="446" y="260"/>
      <point x="446" y="194" type="curve" smooth="yes"/>
      <point x="446" y="114"/>
      <point x="392" y="62"/>
      <point x="292" y="62" type="curve" smooth="yes"/>
      <point x="211" y="62"/>
      <point x="153" y="97"/>
      <point x="104" y="162" type="curve"/>
      <point x="42" y="110" type="line"/>
      <point x="98" y="34"/>
      <point x="177" y="-12"/>
    </contour>
    <contour>
      <point x="287" y="0" type="move" name="bottom"/>
    </contour>
    <contour>
      <point x="288" y="698" type="move" name="top"/>
    </contour>
  </outline>
</glyph>
<glyph name="T" format="1">
  <advance width="572"/>
  <unicode hex="0054"/>
  <outline>
    <contour>
      <point x="550" y="624" type="line" name="hr00"/>
      <point x="550" y="698" type="line"/>
      <point x="22" y="698" type="line"/>
      <point x="22" y="624" type="line"/>
      <point x="244" y="624" type="line"/>
      <point x="244" y="0" type="line"/>
      <point x="328" y="0" type="line"/>
      <point x="328" y="624" type="line"/>
    </contour>
    <contour>
      <point x="286" y="0" type="move" name="bottom"/>
    </contour>
    <contour>
      <point x="286" y="698" type="move" name="top"/>
    </contour>
  </outline>
</glyph>
<glyph name="V" format="1">
  <advance width="609"/>
  <unicode hex="0056"/>
  <outline>
    <contour>
      <point x="354" y="0" type="line" name="hr00"/>
      <point x="589" y="698" type="line"/>
      <point x="502" y="698" type="line"/>
      <point x="386" y="346" type="line"/>
      <point x="307" y="84" type="line"/>
      <point x="302" y="84" type="line"/>
      <point x="225" y="346" type="line"/>
      <point x="110" y="698" type="line"/>
      <point x="20" y="698" type="line"/>
      <point x="252" y="0" type="line"/>
    </contour>
    <contour>
      <point x="304" y="0" type="move" name="bottom"/>
    </contour>
    <contour>
      <point x="304" y="698" type="move" name="top"/>
    </contour>
  </outline>
</glyph>
<glyph name="W" format="1">
  <advance width="891"/>
  <unicode hex="0057"/>
  <outline>
    <contour>
      <point x="283" y="0" type="line" name="hr00"/>
      <point x="376" y="348" type="line"/>
      <point x="442" y="604" type="line"/>
      <point x="444" y="604" type="line"/>
      <point x="508" y="348" type="line"/>
      <point x="599" y="0" type="line"/>
      <point x="692" y="0" type="line"/>
      <point x="871" y="698" type="line"/>
      <point x="785" y="698" type="line"/>
      <point x="706" y="362" type="line"/>
      <point x="646" y="102" type="line"/>
      <point x="643" y="102" type="line"/>
      <point x="578" y="362" type="line"/>
      <point x="493" y="698" type="line"/>
      <point x="397" y="698" type="line"/>
      <point x="309" y="362" type="line"/>
      <point x="244" y="101" type="line"/>
      <point x="242" y="101" type="line"/>
      <point x="184" y="362" type="line"/>
      <point x="109" y="698" type="line"/>
      <point x="20" y="698" type="line"/>
      <point x="190" y="0" type="line"/>
    </contour>
    <contour>
      <point x="446" y="0" type="move" name="bottom"/>
    </contour>
    <contour>
      <point x="446" y="698" type="move" name="top"/>
    </contour>
  </outline>
</glyph>
<glyph name="Y" format="1">
  <advance width="593"/>
  <unicode hex="0059"/>
  <outline>
    <contour>
      <point x="337" y="0" type="line" name="hr00"/>
      <point x="337" y="279" type="line"/>
      <point x="580" y="698" type="line"/>
      <point x="484" y="698" type="line"/>
      <point x="298" y="362" type="line"/>
      <point x="295" y="362" type="line"/>
      <point x="109" y="698" type="line"/>
      <point x="13" y="698" type="line"/>
      <point x="253" y="276" type="line"/>
      <point x="253" y="0" type="line"/>
    </contour>
    <contour>
      <point x="297" y="0" type="move" name="bottom"/>
    </contour>
    <contour>
      <point x="297" y="698" type="move" name="top"/>
    </contour>
  </outline>
</glyph>
<glyph name="grave" format="1">
  <advance width="600"/>
  <unicode hex="0060"/>
  <outline>
    <contour>
      <point x="293" y="585" type="line" name="hr00"/>
      <point x="345" y="609" type="line"/>
      <point x="260" y="779" type="line"/>
      <point x="187" y="744" type="line"/>
    </contour>
    <contour>
      <point x="300" y="540" type="move" name="_top"/>
    </contour>
  </outline>
</glyph>
<glyph name="b" format="1">
  <advance width="580"/>
  <unicode hex="0062"/>
  <outline>
    <contour>
      <point x="85" y="0" type="line"/>
      <point x="165" y="0" type="line"/>
      <point x="165" y="84" type="line"/>
      <point x="169" y="84" type="line"/>
      <point x="200" y="20"/>
      <point x="249" y="-12"/>
      <point x="320" y="-12" type="curve" smooth="yes" name="hr01"/>
      <point x="449" y="-12"/>
      <point x="530" y="93"/>
      <point x="530" y="258" type="curve" smooth="yes"/>
      <point x="530" y="423"/>
      <point x="449" y="528"/>
      <point x="320" y="528" type="curve" smooth="yes"/>
      <point x="249" y="528"/>
      <point x="196" y="497"/>
      <point x="169" y="432" type="curve"/>
      <point x="165" y="432" type="line"/>
      <point x="165" y="740" type="line" name="hr02"/>
      <point x="85" y="740" type="line"/>
    </contour>
    <contour>
      <point x="298" y="60" type="curve" smooth="yes" name="hr03"/>
      <point x="225" y="60"/>
      <point x="165" y="98"/>
      <point x="165" y="165" type="curve" smooth="yes"/>
      <point x="165" y="357" type="line" smooth="yes"/>
      <point x="165" y="414"/>
      <point x="225" y="456"/>
      <point x="298" y="456" type="curve" smooth="yes"/>
      <point x="388" y="456"/>
      <point x="444" y="394"/>
      <point x="444" y="302" type="curve" smooth="yes"/>
      <point x="444" y="214" type="line" smooth="yes"/>
      <point x="444" y="122"/>
      <point x="388" y="60"/>
    </contour>
    <contour>
      <point x="308" y="0" type="move" name="bottom"/>
    </contour>
  </outline>
</glyph>
<glyph name="c" format="1">
  <advance width="503"/>
  <unicode hex="0063"/>
  <outline>
    <contour>
      <point x="277" y="-12" type="curve" smooth="yes" name="hr00"/>
      <point x="375" y="-12"/>
      <point x="442" y="36"/>
      <point x="475" y="110" type="curve"/>
      <point x="417" y="149" type="line"/>
      <point x="389" y="90"/>
      <point x="342" y="59"/>
      <point x="277" y="59" type="curve" smooth="yes"/>
      <point x="182" y="59"/>
      <point x="133" y="124"/>
      <point x="133" y="214" type="curve" smooth="yes"/>
      <point x="133" y="302" type="line" smooth="yes"/>
      <point x="133" y="392"/>
      <point x="182" y="457"/>
      <point x="277" y="457" type="curve" smooth="yes"/>
      <point x="340" y="457"/>
      <point x="384" y="426"/>
      <point x="403" y="373" type="curve"/>
      <point x="470" y="407" type="line"/>
      <point x="440" y="478"/>
      <point x="379" y="528"/>
      <point x="277" y="528" type="curve" smooth="yes"/>
      <point x="132" y="528"/>
      <point x="47" y="423"/>
      <point x="47" y="258" type="curve" smooth="yes"/>
      <point x="47" y="93"/>
      <point x="132" y="-12"/>
    </contour>
    <contour>
      <point x="276" y="0" type="move" name="bottom"/>
    </contour>
    <contour>
      <point x="276" y="540" type="move" name="top"/>
    </contour>
  </outline>
</glyph>
<glyph name="e" format="1">
  <advance width="549"/>
  <unicode hex="0065"/>
  <outline>
    <contour>
      <point x="279" y="-12" type="curve" smooth="yes" name="hr00"/>
      <point x="376" y="-12"/>
      <point x="450" y="36"/>
      <point x="483" y="106" type="curve"/>
      <point x="426" y="147" type="line"/>
      <point x="399" y="90"/>
      <point x="349" y="58"/>
      <point x="284" y="58" type="curve" smooth="yes"/>
      <point x="188" y="58"/>
      <point x="131" y="125"/>
      <point x="131" y="214" type="curve" smooth="yes"/>
      <point x="131" y="238" type="line"/>
      <point x="502" y="238" type="line"/>
      <point x="502" y="276" type="line" smooth="yes"/>
      <point x="502" y="422"/>
      <point x="417" y="528"/>
      <point x="279" y="528" type="curve" smooth="yes"/>
      <point x="139" y="528"/>
      <point x="47" y="422"/>
      <point x="47" y="258" type="curve" smooth="yes"/>
      <point x="47" y="94"/>
      <point x="139" y="-12"/>
    </contour>
    <contour>
      <point x="279" y="461" type="curve" smooth="yes"/>
      <point x="361" y="461"/>
      <point x="416" y="400"/>
      <point x="416" y="309" type="curve" smooth="yes"/>
      <point x="416" y="298" type="line"/>
      <point x="131" y="298" type="line"/>
      <point x="131" y="305" type="line" smooth="yes"/>
      <point x="131" y="395"/>
      <point x="192" y="461"/>
    </contour>
    <contour>
      <point x="283" y="0" type="move" name="bottom"/>
    </contour>
    <contour>
      <point x="359" y="0" type="move" name="bottomright"/>
    </contour>
    <contour>
      <point x="279" y="540" type="move" name="top"/>
    </contour>
  </outline>
</glyph>
<glyph name="f" format="1">
  <advance width="324"/>
  <unicode hex="0066"/>
  <outline>
    <contour>
      <point x="113" y="0" type="line" name="hr00"/>
      <point x="193" y="0" type="line"/>
      <point x="193" y="446" type="line"/>
      <point x="304" y="446" type="line"/>
      <point x="304" y="516" type="line"/>
      <point x="193" y="516" type="line"/>
      <point x="193" y="670" type="line"/>
      <point x="304" y="670" type="line"/>
      <point x="304" y="740" type="line"/>
      <point x="226" y="740" type="line" smooth="yes"/>
      <point x="150" y="740"/>
      <point x="113" y="691"/>
      <point x="113" y="620" type="curve" smooth="yes"/>
      <point x="113" y="516" type="line"/>
      <point x="29" y="516" type="line"/>
      <point x="29" y="446" type="line"/>
      <point x="113" y="446" type="line"/>
    </contour>
    <contour>
      <point x="154" y="0" type="move" name="bottom"/>
    </contour>
  </outline>
</glyph>
<glyph name="i" format="1">
  <advance width="250"/>
  <unicode hex="0069"/>
  <outline>
    <contour>
      <point x="125" y="637" type="curve" smooth="yes"/>
      <point x="159" y="637"/>
      <point x="174" y="655"/>
      <point x="174" y="682" type="curve" smooth="yes"/>
      <point x="174" y="695" type="line" smooth="yes"/>
      <point x="174" y="722"/>
      <point x="159" y="740"/>
      <point x="125" y="740" type="curve" smooth="yes"/>
      <point x="91" y="740"/>
      <point x="76" y="722"/>
      <point x="76" y="695" type="curve" smooth="yes"/>
      <point x="76" y="682" type="line" smooth="yes"/>
      <point x="76" y="655"/>
      <point x="91" y="637"/>
    </contour>
    <contour>
      <point x="85" y="0" type="line" name="hr01"/>
      <point x="165" y="0" type="line"/>
      <point x="165" y="516" type="line"/>
      <point x="85" y="516" type="line"/>
    </contour>
    <contour>
      <point x="125" y="0" type="move" name="bottom"/>
    </contour>
    <contour>
      <point x="165" y="0" type="move" name="bottomright"/>
    </contour>
  </outline>
</glyph>
<glyph name="k" format="1">
  <advance width="527"/>
  <unicode hex="006B"/>
  <outline>
    <contour>
      <point x="85" y="0" type="line" name="hr00"/>
      <point x="165" y="0" type="line"/>
      <point x="165" y="184" type="line"/>
      <point x="242" y="263" type="line"/>
      <point x="413" y="0" type="line"/>
      <point x="510" y="0" type="line"/>
      <point x="300" y="312" type="line"/>
      <point x="491" y="516" type="line"/>
      <point x="394" y="516" type="line"/>
      <point x="248" y="359" type="line"/>
      <point x="169" y="271" type="line"/>
      <point x="165" y="271" type="line"/>
      <point x="165" y="740" type="line"/>
      <point x="85" y="740" type="line"/>
    </contour>
    <contour>
      <point x="292" y="0" type="move" name="bottom"/>
    </contour>
  </outline>
</glyph>
<glyph name="l" format="1">
  <advance width="272"/>
  <unicode hex="006C"/>
  <outline>
    <contour>
      <point x="241" y="0" type="line" name="hr00"/>
      <point x="241" y="70" type="line"/>
      <point x="165" y="70" type="line"/>
      <point x="165" y="740" type="line"/>
      <point x="85" y="740" type="line"/>
      <point x="85" y="83" type="line" smooth="yes"/>
      <point x="85" y="35"/>
      <point x="115" y="0"/>
      <point x="170" y="0" type="curve" smooth="yes"/>
    </contour>
    <contour>
      <point x="164" y="0" type="move" name="bottom"/>
    </contour>
    <contour>
      <point x="125" y="740" type="move" name="top"/>
    </contour>
    <contour>
      <point x="224" y="740" type="move" name="topright"/>
    </contour>
  </outline>
</glyph>
<glyph name="m" format="1">
  <advance width="873"/>
  <unicode hex="006D"/>
  <outline>
    <contour>
      <point x="165" y="0" type="line"/>
      <point x="165" y="358" type="line"/>
      <point x="165" y="424"/>
      <point x="225" y="456"/>
      <point x="288" y="456" type="curve" smooth="yes"/>
      <point x="364" y="456"/>
      <point x="399" y="409"/>
      <point x="399" y="317" type="curve" smooth="yes"/>
      <point x="399" y="0" type="line"/>
      <point x="479" y="0" type="line"/>
      <point x="479" y="358" type="line"/>
      <point x="479" y="424"/>
      <point x="537" y="456"/>
      <point x="600" y="456" type="curve" smooth="yes"/>
      <point x="678" y="456"/>
      <point x="713" y="408"/>
      <point x="713" y="317" type="curve" smooth="yes"/>
      <point x="713" y="0" type="line"/>
      <point x="793" y="0" type="line"/>
      <point x="793" y="331" type="line" smooth="yes"/>
      <point x="793" y="456"/>
      <point x="730" y="528"/>
      <point x="625" y="528" type="curve" smooth="yes"/>
      <point x="537" y="528"/>
      <point x="487" y="479"/>
      <point x="468" y="423" type="curve"/>
      <point x="466" y="423" type="line"/>
      <point x="438" y="497"/>
      <point x="376" y="528"/>
      <point x="308" y="528" type="curve" smooth="yes"/>
      <point x="228" y="528"/>
      <point x="192" y="485"/>
      <point x="169" y="432" type="curve"/>
      <point x="165" y="432" type="line"/>
      <point x="165" y="516" type="line" name="hr01"/>
      <point x="85" y="516" type="line"/>
      <point x="85" y="0" type="line"/>
    </contour>
    <contour>
      <point x="438" y="0" type="move" name="bottom"/>
    </contour>
    <contour>
      <point x="438" y="540" type="move" name="top"/>
    </contour>
  </outline>
</glyph>
<glyph name="r" format="1">
  <advance width="367"/>
  <unicode hex="0072"/>
  <outline>
    <contour>
      <point x="165" y="0" type="line" name="hr00"/>
      <point x="165" y="350" type="line"/>
      <point x="165" y="399"/>
      <point x="217" y="436"/>
      <point x="303" y="436" type="curve" smooth="yes"/>
      <point x="350" y="436" type="line"/>
      <point x="350" y="516" type="line"/>
      <point x="319" y="516" type="line" smooth="yes"/>
      <point x="235" y="516"/>
      <point x="188" y="470"/>
      <point x="170" y="421" type="curve"/>
      <point x="165" y="421" type="line"/>
      <point x="165" y="516" type="line"/>
      <point x="85" y="516" type="line"/>
      <point x="85" y="0" type="line"/>
    </contour>
    <contour>
      <point x="127" y="0" type="move" name="bottom"/>
    </contour>
    <contour>
      <point x="219" y="540" type="move" name="top"/>
    </contour>
  </outline>
</glyph>
<glyph name="s" format="1">
  <advance width="487"/>
  <unicode hex="0073"/>
  <outline>
    <contour>
      <point x="240" y="-12" type="curve" smooth="yes" name="hr00"/>
      <point x="358" y="-12"/>
      <point x="431" y="49"/>
      <point x="431" y="149" type="curve" smooth="yes"/>
      <point x="431" y="227"/>
      <point x="387" y="277"/>
      <point x="273" y="294" type="curve" smooth="yes"/>
      <point x="233" y="300" type="line" smooth="yes"/>
      <point x="169" y="310"/>
      <point x="134" y="330"/>
      <point x="134" y="380" type="curve" smooth="yes"/>
      <point x="134" y="429"/>
      <point x="169" y="460"/>
      <point x="235" y="460" type="curve" smooth="yes"/>
      <point x="301" y="460"/>
      <point x="345" y="429"/>
      <point x="368" y="397" type="curve"/>
      <point x="421" y="445" type="line"/>
      <point x="379" y="497"/>
      <point x="324" y="528"/>
      <point x="241" y="528" type="curve" smooth="yes"/>
      <point x="136" y="528"/>
      <point x="57" y="478"/>
      <point x="57" y="376" type="curve" smooth="yes"/>
      <point x="57" y="280"/>
      <point x="128" y="241"/>
      <point x="223" y="227" type="curve" smooth="yes"/>
      <point x="264" y="221" type="line" smooth="yes"/>
      <point x="332" y="211"/>
      <point x="354" y="180"/>
      <point x="354" y="140" type="curve" smooth="yes"/>
      <point x="354" y="87"/>
      <point x="314" y="56"/>
      <point x="246" y="56" type="curve" smooth="yes"/>
      <point x="181" y="56"/>
      <point x="133" y="85"/>
      <point x="93" y="135" type="curve"/>
      <point x="36" y="89" type="line"/>
      <point x="82" y="28"/>
      <point x="145" y="-12"/>
    </contour>
    <contour>
      <point x="240" y="0" type="move" name="bottom"/>
    </contour>
    <contour>
      <point x="238" y="540" type="move" name="top"/>
    </contour>
  </outline>
</glyph>
<glyph name="t" format="1">
  <advance width="351"/>
  <unicode hex="0074"/>
  <outline>
    <contour>
      <point x="299" y="0" type="line" name="hr00"/>
      <point x="299" y="70" type="line"/>
      <point x="194" y="70" type="line"/>
      <point x="194" y="446" type="line"/>
      <point x="307" y="446" type="line"/>
      <point x="307" y="516" type="line"/>
      <point x="194" y="516" type="line"/>
      <point x="194" y="659" type="line"/>
      <point x="122" y="659" type="line"/>
      <point x="122" y="563" type="line" smooth="yes"/>
      <point x="122" y="528"/>
      <point x="111" y="516"/>
      <point x="77" y="516" type="curve" smooth="yes"/>
      <point x="29" y="516" type="line"/>
      <point x="29" y="446" type="line"/>
      <point x="114" y="446" type="line"/>
      <point x="114" y="85" type="line" smooth="yes"/>
      <point x="114" y="35"/>
      <point x="144" y="0"/>
      <point x="199" y="0" type="curve" smooth="yes"/>
    </contour>
    <contour>
      <point x="213" y="0" type="move" name="bottom"/>
    </contour>
    <contour>
      <point x="263" y="751" type="move" name="topright"/>
    </contour>
  </outline>
</glyph>
<glyph name="x" format="1">
  <advance width="507"/>
  <unicode hex="0078"/>
  <outline>
    <contour>
      <point x="21" y="0" type="line" name="hr00"/>
      <point x="110" y="0" type="line"/>
      <point x="255" y="202" type="line"/>
      <point x="258" y="202" type="line"/>
      <point x="392" y="0" type="line"/>
      <point x="486" y="0" type="line"/>
      <point x="300" y="266" type="line"/>
      <point x="482" y="516" type="line"/>
      <point x="393" y="516" type="line"/>
      <point x="257" y="324" type="line"/>
      <point x="254" y="324" type="line"/>
      <point x="123" y="516" type="line"/>
      <point x="29" y="516" type="line"/>
      <point x="212" y="260" type="line"/>
    </contour>
    <contour>
      <point x="254" y="0" type="move" name="bottom"/>
    </contour>
    <contour>
      <point x="254" y="540" type="move" name="top"/>
    </contour>
  </outline>
</glyph>
<glyph name="y" format="1">
  <advance width="499"/>
  <unicode hex="0079"/>
  <outline>
    <contour>
      <point x="278" y="165" type="line" name="hr00"/>
      <point x="250" y="81" type="line"/>
      <point x="245" y="81" type="line"/>
      <point x="221" y="165" type="line"/>
      <point x="97" y="516" type="line"/>
      <point x="17" y="516" type="line"/>
      <point x="210" y="-20" type="line"/>
      <point x="171" y="-130" type="line"/>
      <point x="90" y="-130" type="line"/>
      <point x="90" y="-200" type="line"/>
      <point x="131" y="-200" type="line" smooth="yes"/>
      <point x="207" y="-200"/>
      <point x="228" y="-182"/>
      <point x="251" y="-120" type="curve" smooth="yes"/>
      <point x="482" y="516" type="line"/>
      <point x="403" y="516" type="line"/>
    </contour>
    <contour>
      <point x="392" y="0" type="move" name="bottom"/>
    </contour>
    <contour>
      <point x="250" y="540" type="move" name="top"/>
    </contour>
  </outline>
</glyph>
<glyph name="z" format="1">
  <advance width="464"/>
  <unicode hex="007A"/>
  <outline>
    <contour>
      <point x="431" y="0" type="line" name="hr00"/>
      <point x="431" y="70" type="line"/>
      <point x="124" y="70" type="line"/>
      <point x="423" y="456" type="line"/>
      <point x="423" y="516" type="line"/>
      <point x="42" y="516" type="line"/>
      <point x="42" y="446" type="line"/>
      <point x="326" y="446" type="line"/>
      <point x="33" y="67" type="line"/>
      <point x="33" y="0" type="line"/>
    </contour>
    <contour>
      <point x="232" y="0" type="move" name="bottom"/>
    </contour>
    <contour>
      <point x="232" y="540" type="move" name="top"/>
    </contour>
  </outline>
</glyph>
<glyph name="braceright" format="1">
  <advance width="343"/>
  <unicode hex="007D"/>
  <outline>
    <contour>
      <point x="60" y="760" type="line" name="hr00"/>
      <point x="60" y="697" type="line"/>
      <point x="155" y="697" type="line"/>
      <point x="155" y="447" type="line" smooth="yes"/>
      <point x="155" y="384"/>
      <point x="194" y="330"/>
      <point x="250" y="319" type="curve"/>
      <point x="250" y="303" type="line"/>
      <point x="194" y="292"/>
      <point x="155" y="238"/>
      <point x="155" y="175" type="curve" smooth="yes"/>
      <point x="155" y="-75" type="line"/>
      <point x="60" y="-75" type="line"/>
      <point x="60" y="-138" type="line"/>
      <point x="144" y="-138" type="line" smooth="yes"/>
      <point x="197" y="-138"/>
      <point x="224" y="-102"/>
      <point x="224" y="-56" type="curve" smooth="yes"/>
      <point x="224" y="184" type="line" smooth="yes"/>
      <point x="224" y="241"/>
      <point x="265" y="272"/>
      <point x="321" y="272" type="curve"/>
      <point x="321" y="350" type="line"/>
      <point x="265" y="350"/>
      <point x="224" y="381"/>
      <point x="224" y="438" type="curve" smooth="yes"/>
      <point x="224" y="678" type="line" smooth="yes"/>
      <point x="224" y="724"/>
      <point x="197" y="760"/>
      <point x="144" y="760" type="curve" smooth="yes"/>
    </contour>
  </outline>
</glyph>
<glyph name="copyright" format="1">
  <advance width="776"/>
  <unicode hex="00A9"/>
  <outline>
    <contour>
      <point x="388" y="-11" type="curve" smooth="yes" name="hr00"/>
      <point x="575" y="-11"/>
      <point x="722" y="127"/>
      <point x="722" y="349" type="curve" smooth="yes"/>
      <point x="722" y="571"/>
      <point x="575" y="709"/>
      <point x="388" y="709" type="curve" smooth="yes"/>
      <point x="201" y="709"/>
      <point x="54" y="571"/>
      <point x="54" y="349" type="curve" smooth="yes"/>
      <point x="54" y="127"/>
      <point x="201" y="-11"/>
    </contour>
    <contour>
      <point x="388" y="49" type="curve" smooth="yes"/>
      <point x="232" y="49"/>
      <point x="122" y="164"/>
      <point x="122" y="319" type="curve" smooth="yes"/>
      <point x="122" y="379" type="line" smooth="yes"/>
      <point x="122" y="534"/>
      <point x="232" y="649"/>
      <point x="388" y="649" type="curve" smooth="yes"/>
      <point x="544" y="649"/>
      <point x="654" y="534"/>
      <point x="654" y="379" type="curve" smooth="yes"/>
      <point x="654" y="319" type="line" smooth="yes"/>
      <point x="654" y="164"/>
      <point x="544" y="49"/>
    </contour>
    <contour>
      <point x="396" y="155" type="curve" smooth="yes"/>
      <point x="466" y="155"/>
      <point x="512" y="192"/>
      <point x="535" y="243" type="curve"/>
      <point x="481" y="277" type="line"/>
      <point x="461" y="241"/>
      <point x="438" y="217"/>
      <point x="396" y="217" type="curve" smooth="yes"/>
      <point x="338" y="217"/>
      <point x="307" y="258"/>
      <point x="307" y="316" type="curve" smooth="yes"/>
      <point x="307" y="381" type="line" smooth="yes"/>
      <point x="307" y="439"/>
      <point x="338" y="480"/>
      <point x="396" y="480" type="curve" smooth="yes"/>
      <point x="435" y="480"/>
      <point x="457" y="459"/>
      <point x="472" y="424" type="curve"/>
      <point x="529" y="456" type="line"/>
      <point x="506" y="508"/>
      <point x="463" y="543"/>
      <point x="396" y="543" type="curve" smooth="yes"/>
      <point x="292" y="543"/>
      <point x="231" y="467"/>
      <point x="231" y="349" type="curve" smooth="yes"/>
      <point x="231" y="231"/>
      <point x="292" y="155"/>
    </contour>
  </outline>
</glyph>
<glyph name="ordfeminine" format="1">
  <advance width="399"/>
  <unicode hex="00AA"/>
  <outline>
    <contour>
      <point x="360" y="406" type="line"/>
      <point x="323" y="406" type="line"/>
      <point x="323" y="577" type="line" smooth="yes"/>
      <point x="323" y="658"/>
      <point x="271" y="704"/>
      <point x="188" y="704" type="curve" smooth="yes"/>
      <point x="115" y="704"/>
      <point x="72" y="668"/>
      <point x="52" y="634" type="curve"/>
      <point x="94" y="600" type="line"/>
      <point x="108" y="630"/>
      <point x="140" y="652"/>
      <point x="185" y="652" type="curve" smooth="yes"/>
      <point x="234" y="652"/>
      <point x="260" y="627"/>
      <point x="260" y="574" type="curve" smooth="yes"/>
      <point x="260" y="546" type="line"/>
      <point x="189" y="546" type="line" smooth="yes"/>
      <point x="94" y="546"/>
      <point x="40" y="513"/>
      <point x="40" y="442" type="curve" smooth="yes"/>
      <point x="40" y="384"/>
      <point x="79" y="344"/>
      <point x="149" y="344" type="curve" smooth="yes" name="hr01"/>
      <point x="210" y="344"/>
      <point x="245" y="372"/>
      <point x="260" y="403" type="curve"/>
      <point x="264" y="403" type="line"/>
      <point x="264" y="367"/>
      <point x="287" y="350"/>
      <point x="326" y="350" type="curve" smooth="yes" name="hr02"/>
      <point x="360" y="350" type="line"/>
    </contour>
    <contour>
      <point x="260" y="500" type="line"/>
      <point x="260" y="459" type="line" smooth="yes"/>
      <point x="260" y="420"/>
      <point x="214" y="395"/>
      <point x="163" y="395" type="curve" smooth="yes" name="hr03"/>
      <point x="124" y="395"/>
      <point x="103" y="410"/>
      <point x="103" y="443" type="curve" smooth="yes"/>
      <point x="103" y="453" type="line" smooth="yes"/>
      <point x="103" y="484"/>
      <point x="133" y="500"/>
      <point x="187" y="500" type="curve" smooth="yes"/>
    </contour>
  </outline>
</glyph>
<glyph name="threesuperior" format="1">
  <advance width="346"/>
  <unicode hex="00B3"/>
  <outline>
    <contour>
      <point x="115" y="546" type="line"/>
      <point x="115" y="495" type="line"/>
      <point x="160" y="495" type="line" smooth="yes"/>
      <point x="210" y="495"/>
      <point x="237" y="478"/>
      <point x="237" y="440" type="curve" smooth="yes"/>
      <point x="237" y="434" type="line" smooth="yes"/>
      <point x="237" y="396"/>
      <point x="210" y="373"/>
      <point x="160" y="373" type="curve" smooth="yes"/>
      <point x="114" y="373"/>
      <point x="90" y="394"/>
      <point x="71" y="423" type="curve"/>
      <point x="24" y="389" type="line"/>
      <point x="49" y="355"/>
      <point x="87" y="323"/>
      <point x="160" y="323" type="curve" smooth="yes"/>
      <point x="247" y="323"/>
      <point x="303" y="366"/>
      <point x="303" y="431" type="curve" smooth="yes"/>
      <point x="303" y="484"/>
      <point x="264" y="513"/>
      <point x="219" y="521" type="curve"/>
      <point x="219" y="524" type="line"/>
      <point x="261" y="533"/>
      <point x="297" y="561"/>
      <point x="297" y="609" type="curve" smooth="yes" name="hr01"/>
      <point x="297" y="669"/>
      <point x="242" y="704"/>
      <point x="167" y="704" type="curve" smooth="yes"/>
      <point x="101" y="704"/>
      <point x="62" y="676"/>
      <point x="39" y="643" type="curve"/>
      <point x="82" y="609" type="line"/>
      <point x="100" y="637"/>
      <point x="126" y="654"/>
      <point x="165" y="654" type="curve" smooth="yes"/>
      <point x="205" y="654"/>
      <point x="230" y="635"/>
      <point x="230" y="602" type="curve" smooth="yes"/>
      <point x="230" y="598" type="line" smooth="yes"/>
      <point x="230" y="568"/>
      <point x="206" y="546"/>
      <point x="155" y="546" type="curve" smooth="yes"/>
    </contour>
  </outline>
</glyph>
<glyph name="acute" format="1">
  <advance width="600"/>
  <unicode hex="00B4"/>
  <outline>
    <contour>
      <point x="413" y="744" type="line" name="hr00"/>
      <point x="340" y="779" type="line"/>
      <point x="255" y="609" type="line"/>
      <point x="307" y="585" type="line"/>
    </contour>
    <contour>
      <point x="300" y="540" type="move" name="_top"/>
    </contour>
  </outline>
</glyph>
<glyph name="cedilla" format="1">
  <advance width="600"/>
  <unicode hex="00B8"/>
  <outline>
    <contour>
      <point x="312" y="-207" type="curve" smooth="yes" name="hr00"/>
      <point x="371" y="-207"/>
      <point x="423" y="-181"/>
      <point x="423" y="-124" type="curve" smooth="yes"/>
      <point x="423" y="-81"/>
      <point x="394" y="-58"/>
      <point x="355" y="-58" type="curve" smooth="yes"/>
      <point x="343" y="-58"/>
      <point x="329" y="-60"/>
      <point x="316" y="-64" type="curve"/>
      <point x="313" y="-61" type="line"/>
      <point x="329" y="20" type="line"/>
      <point x="279" y="20" type="line"/>
      <point x="260" y="-77" type="line"/>
      <point x="288" y="-81" type="line" smooth="yes"/>
      <point x="344" y="-89"/>
      <point x="356" y="-104"/>
      <point x="356" y="-122" type="curve" smooth="yes"/>
      <point x="356" y="-143"/>
      <point x="337" y="-153"/>
      <point x="312" y="-153" type="curve" smooth="yes"/>
      <point x="283" y="-153"/>
      <point x="263" y="-140"/>
      <point x="251" y="-125" type="curve"/>
      <point x="213" y="-166" type="line"/>
      <point x="227" y="-185"/>
      <point x="258" y="-207"/>
    </contour>
    <contour>
      <point x="300" y="0" type="move" name="_bottom"/>
    </contour>
  </outline>
</glyph>
<glyph name="onesuperior" format="1">
  <advance width="359"/>
  <unicode hex="00B9"/>
  <outline>
    <contour>
      <point x="325" y="329" type="line" name="hr00"/>
      <point x="325" y="379" type="line"/>
      <point x="227" y="379" type="line"/>
      <point x="227" y="698" type="line"/>
      <point x="159" y="698" type="line"/>
      <point x="33" y="633" type="line"/>
      <point x="58" y="589" type="line"/>
      <point x="164" y="644" type="line"/>
      <point x="164" y="379" type="line"/>
      <point x="55" y="379" type="line"/>
      <point x="55" y="329" type="line"/>
    </contour>
  </outline>
</glyph>
<glyph name="ordmasculine" format="1">
  <advance width="398"/>
  <unicode hex="00BA"/>
  <outline>
    <contour>
      <point x="199" y="338" type="curve" smooth="yes" name="hr00"/>
      <point x="296" y="338"/>
      <point x="354" y="406"/>
      <point x="354" y="518" type="curve" smooth="yes"/>
      <point x="354" y="630"/>
      <point x="296" y="698"/>
      <point x="199" y="698" type="curve" smooth="yes"/>
      <point x="102" y="698"/>
      <point x="44" y="630"/>
      <point x="44" y="518" type="curve" smooth="yes"/>
      <point x="44" y="406"/>
      <point x="102" y="338"/>
    </contour>
    <contour>
      <point x="199" y="390" type="curve" smooth="yes"/>
      <point x="141" y="390"/>
      <point x="112" y="430"/>
      <point x="112" y="487" type="curve" smooth="yes"/>
      <point x="112" y="549" type="line" smooth="yes"/>
      <point x="112" y="606"/>
      <point x="141" y="646"/>
      <point x="199" y="646" type="curve" smooth="yes"/>
      <point x="257" y="646"/>
      <point x="286" y="606"/>
      <point x="286" y="549" type="curve" smooth="yes"/>
      <point x="286" y="487" type="line" smooth="yes"/>
      <point x="286" y="430"/>
      <point x="257" y="390"/>
    </contour>
  </outline>
</glyph>
<glyph name="AE" format="1">
  <advance width="907"/>
  <unicode hex="00C6"/>
  <outline>
    <contour>
      <point x="417" y="0" type="line" name="hr00"/>
      <point x="843" y="0" type="line"/>
      <point x="843" y="74" type="line"/>
      <point x="500" y="74" type="line"/>
      <point x="500" y="316" type="line"/>
      <point x="823" y="316" type="line"/>
      <point x="823" y="390" type="line"/>
      <point x="500" y="390" type="line"/>
      <point x="500" y="624" type="line"/>
      <point x="843" y="624" type="line"/>
      <point x="843" y="698" type="line"/>
      <point x="361" y="698" type="line"/>
      <point x="4" y="0" type="line"/>
      <point x="90" y="0" type="line"/>
      <point x="192" y="205" type="line"/>
      <point x="417" y="205" type="line"/>
    </contour>
    <contour>
      <point x="417" y="624" type="line"/>
      <point x="417" y="279" type="line"/>
      <point x="227" y="279" type="line"/>
      <point x="404" y="624" type="line"/>
    </contour>
    <contour>
      <point x="591" y="698" type="move" name="top"/>
    </contour>
  </outline>
</glyph>
<glyph name="Oslash" format="1">
  <advance width="708"/>
  <unicode hex="00D8"/>
  <outline>
    <contour>
      <point x="354" y="-12" type="curve" smooth="yes" name="hr00"/>
      <point x="534" y="-12"/>
      <point x="650" y="115"/>
      <point x="650" y="349" type="curve" smooth="yes"/>
      <point x="650" y="461"/>
      <point x="624" y="548"/>
      <point x="576" y="609" type="curve"/>
      <point x="644" y="706" type="line"/>
      <point x="587" y="743" type="line"/>
      <point x="527" y="657" type="line"/>
      <point x="480" y="692"/>
      <point x="422" y="710"/>
      <point x="354" y="710" type="curve" smooth="yes"/>
      <point x="174" y="710"/>
      <point x="58" y="583"/>
      <point x="58" y="349" type="curve" smooth="yes"/>
      <point x="58" y="237"/>
      <point x="84" y="150"/>
      <point x="132" y="89" type="curve"/>
      <point x="64" y="-8" type="line"/>
      <point x="121" y="-45" type="line"/>
      <point x="181" y="41" type="line"/>
      <point x="228" y="6"/>
      <point x="286" y="-12"/>
    </contour>
    <contour>
      <point x="148" y="291" type="curve" smooth="yes"/>
      <point x="148" y="407" type="line" smooth="yes"/>
      <point x="148" y="545"/>
      <point x="233" y="635"/>
      <point x="354" y="635" type="curve" smooth="yes"/>
      <point x="404" y="635"/>
      <point x="448" y="620"/>
      <point x="482" y="592" type="curve"/>
      <point x="180" y="160" type="line"/>
      <point x="160" y="196"/>
      <point x="148" y="240"/>
    </contour>
    <contour>
      <point x="560" y="407" type="curve" smooth="yes"/>
      <point x="560" y="291" type="line" smooth="yes"/>
      <point x="560" y="153"/>
      <point x="475" y="63"/>
      <point x="354" y="63" type="curve" smooth="yes"/>
      <point x="304" y="63"/>
      <point x="260" y="78"/>
      <point x="226" y="106" type="curve"/>
      <point x="528" y="538" type="line"/>
      <point x="548" y="502"/>
      <point x="560" y="458"/>
    </contour>
    <contour>
      <point x="354" y="698" type="move" name="top"/>
    </contour>
  </outline>
</glyph>
<glyph name="Thorn" format="1">
  <advance width="606"/>
  <unicode hex="00DE"/>
  <outline>
    <contour>
      <point x="177" y="0" type="line" name="hr00"/>
      <point x="177" y="154" type="line"/>
      <point x="371" y="154" type="line" smooth="yes"/>
      <point x="496" y="154"/>
      <point x="566" y="232"/>
      <point x="566" y="354" type="curve" smooth="yes"/>
      <point x="566" y="476"/>
      <point x="496" y="554"/>
      <point x="371" y="554" type="curve" smooth="yes"/>
      <point x="177" y="554" type="line"/>
      <point x="177" y="698" type="line"/>
      <point x="93" y="698" type="line"/>
      <point x="93" y="0" type="line"/>
    </contour>
    <contour>
      <point x="177" y="479" type="line"/>
      <point x="371" y="479" type="line" smooth="yes"/>
      <point x="437" y="479"/>
      <point x="476" y="442"/>
      <point x="476" y="379" type="curve" smooth="yes"/>
      <point x="476" y="329" type="line" smooth="yes"/>
      <point x="476" y="266"/>
      <point x="437" y="229"/>
      <point x="371" y="229" type="curve" smooth="yes"/>
      <point x="177" y="229" type="line"/>
    </contour>
  </outline>
</glyph>
<glyph name="ae" format="1">
  <advance width="864"/>
  <unicode hex="00E6"/>
  <outline>
    <contour>
      <point x="366" y="238" type="line" name="hr00"/>
      <point x="366" y="150" type="line" smooth="yes"/>
      <point x="366" y="97"/>
      <point x="308" y="56"/>
      <point x="231" y="56" type="curve" smooth="yes"/>
      <point x="167" y="56"/>
      <point x="128" y="85"/>
      <point x="128" y="136" type="curve" smooth="yes"/>
      <point x="128" y="157" type="line" smooth="yes"/>
      <point x="128" y="207"/>
      <point x="169" y="235"/>
      <point x="260" y="238" type="curve" smooth="yes"/>
    </contour>
    <contour>
      <point x="446" y="298" type="line"/>
      <point x="446" y="305" type="line" smooth="yes"/>
      <point x="446" y="395"/>
      <point x="507" y="461"/>
      <point x="594" y="461" type="curve" smooth="yes"/>
      <point x="676" y="461"/>
      <point x="731" y="400"/>
      <point x="731" y="309" type="curve" smooth="yes"/>
      <point x="731" y="298" type="line"/>
    </contour>
    <contour>
      <point x="599" y="58" type="curve" smooth="yes"/>
      <point x="503" y="58"/>
      <point x="446" y="125"/>
      <point x="446" y="214" type="curve" smooth="yes"/>
      <point x="446" y="238" type="line"/>
      <point x="817" y="238" type="line"/>
      <point x="817" y="276" type="line" smooth="yes"/>
      <point x="817" y="422"/>
      <point x="734" y="528"/>
      <point x="603" y="528" type="curve" smooth="yes"/>
      <point x="498" y="528"/>
      <point x="429" y="459"/>
      <point x="417" y="413" type="curve"/>
      <point x="411" y="413" type="line"/>
      <point x="401" y="453"/>
      <point x="367" y="528"/>
      <point x="249" y="528" type="curve" smooth="yes"/>
      <point x="155" y="528"/>
      <point x="92" y="481"/>
      <point x="65" y="427" type="curve"/>
      <point x="113" y="383" type="line"/>
      <point x="142" y="431"/>
      <point x="181" y="459"/>
      <point x="247" y="459" type="curve" smooth="yes"/>
      <point x="325" y="459"/>
      <point x="366" y="419"/>
      <point x="366" y="346" type="curve" smooth="yes"/>
      <point x="366" y="298" type="line"/>
      <point x="264" y="298" type="line" smooth="yes"/>
      <point x="118" y="298"/>
      <point x="44" y="241"/>
      <point x="44" y="142" type="curve" smooth="yes"/>
      <point x="44" y="48"/>
      <point x="111" y="-12"/>
      <point x="215" y="-12" type="curve" smooth="yes"/>
      <point x="330" y="-12"/>
      <point x="397" y="60"/>
      <point x="406" y="104" type="curve"/>
      <point x="412" y="104" type="line"/>
      <point x="423" y="58"/>
      <point x="494" y="-12"/>
      <point x="603" y="-12" type="curve" smooth="yes"/>
      <point x="692" y="-12"/>
      <point x="765" y="35"/>
      <point x="798" y="106" type="curve"/>
      <point x="741" y="146" type="line"/>
      <point x="713" y="89"/>
      <point x="665" y="58"/>
    </contour>
    <contour>
      <point x="414" y="540" type="move" name="top"/>
    </contour>
  </outline>
</glyph>
<glyph name="ecircumflex" format="1">
  <advance width="549"/>
  <unicode hex="00EA"/>
  <outline>
    <component base="e"/>
    <component base="circumflex" xOffset="-21"/>
    <contour>
      <point x="283.0" y="0.0" type="move" name="bottom"/>
    </contour>
    <contour>
      <point x="359.0" y="0.0" type="move" name="bottomright"/>
    </contour>
  </outline>
</glyph>
<glyph name="oacute" format="1">
  <advance width="560"/>
  <unicode hex="00F3"/>
  <outline>
    <component base="o"/>
    <component base="acute" xOffset="-20"/>
    <contour>
      <point x="280.0" y="0.0" type="move" name="bottom"/>
    </contour>
  </outline>
</glyph>
<glyph name="oslash" format="1">
  <advance width="568"/>
  <unicode hex="00F8"/>
  <outline>
    <contour>
      <point x="80" y="-40" type="line" name="hr00"/>
      <point x="142" y="36" type="line"/>
      <point x="180" y="5"/>
      <point x="228" y="-12"/>
      <point x="284" y="-12" type="curve" smooth="yes"/>
      <point x="422" y="-12"/>
      <point x="517" y="94"/>
      <point x="517" y="258" type="curve" smooth="yes"/>
      <point x="517" y="330"/>
      <point x="498" y="392"/>
      <point x="466" y="437" type="curve"/>
      <point x="533" y="522" type="line"/>
      <point x="488" y="556" type="line"/>
      <point x="426" y="479" type="line"/>
      <point x="388" y="510"/>
      <point x="339" y="528"/>
      <point x="284" y="528" type="curve" smooth="yes"/>
      <point x="146" y="528"/>
      <point x="51" y="422"/>
      <point x="51" y="258" type="curve" smooth="yes"/>
      <point x="51" y="185"/>
      <point x="69" y="124"/>
      <point x="102" y="78" type="curve"/>
      <point x="35" y="-6" type="line"/>
    </contour>
    <contour>
      <point x="284" y="59" type="curve" smooth="yes"/>
      <point x="245" y="59"/>
      <point x="211" y="70"/>
      <point x="186" y="92" type="curve"/>
      <point x="416" y="376" type="line"/>
      <point x="425" y="354"/>
      <point x="431" y="327"/>
      <point x="431" y="295" type="curve" smooth="yes"/>
      <point x="431" y="221" type="line" smooth="yes"/>
      <point x="431" y="112"/>
      <point x="370" y="59"/>
    </contour>
    <contour>
      <point x="137" y="221" type="curve"/>
      <point x="137" y="295" type="line" smooth="yes"/>
      <point x="137" y="404"/>
      <point x="198" y="457"/>
      <point x="284" y="457" type="curve" smooth="yes"/>
      <point x="323" y="457"/>
      <point x="356" y="446"/>
      <point x="382" y="424" type="curve"/>
      <point x="152" y="139" type="line"/>
      <point x="142" y="162"/>
      <point x="137" y="189"/>
    </contour>
    <contour>
      <point x="284" y="540" type="move" name="top"/>
    </contour>
  </outline>
</glyph>
<glyph name="Aogonek" format="1">
  <advance width="641"/>
  <unicode hex="0104"/>
  <outline>
    <contour>
      <point x="23" y="0" type="line" name="hr00"/>
      <point x="108" y="0" type="line"/>
      <point x="178" y="206" type="line"/>
      <point x="460" y="206" type="line"/>
      <point x="530" y="0" type="line"/>
      <point x="556" y="0" type="line"/>
      <point x="557" y="-4" type="line"/>
      <point x="503" y="-43"/>
      <point x="456" y="-80"/>
      <point x="456" y="-131" type="curve" smooth="yes"/>
      <point x="456" y="-184"/>
      <point x="499" y="-207"/>
      <point x="551" y="-207" type="curve" smooth="yes"/>
      <point x="597" y="-207"/>
      <point x="627" y="-189"/>
      <point x="639" y="-168" type="curve"/>
      <point x="599" y="-129" type="line"/>
      <point x="587" y="-144"/>
      <point x="570" y="-153"/>
      <point x="551" y="-153" type="curve" smooth="yes"/>
      <point x="533" y="-153"/>
      <point x="520" y="-145"/>
      <point x="520" y="-123" type="curve" smooth="yes"/>
      <point x="520" y="-101"/>
      <point x="533" y="-78"/>
      <point x="618" y="0" type="curve"/>
      <point x="374" y="698" type="line"/>
      <point x="267" y="698" type="line"/>
    </contour>
    <contour>
      <point x="439" y="280" type="line"/>
      <point x="198" y="280" type="line"/>
      <point x="316" y="620" type="line"/>
      <point x="321" y="620" type="line"/>
    </contour>
  </outline>
</glyph>
<glyph name="aogonek" format="1">
  <advance width="534"/>
  <unicode hex="0105"/>
  <outline>
    <contour>
      <point x="505" y="70" type="line"/>
      <point x="446" y="70" type="line"/>
      <point x="446" y="354" type="line" smooth="yes"/>
      <point x="446" y="463"/>
      <point x="372" y="528"/>
      <point x="248" y="528" type="curve" smooth="yes"/>
      <point x="155" y="528"/>
      <point x="93" y="482"/>
      <point x="65" y="427" type="curve"/>
      <point x="113" y="382" type="line"/>
      <point x="141" y="429"/>
      <point x="182" y="459"/>
      <point x="244" y="459" type="curve" smooth="yes"/>
      <point x="326" y="459"/>
      <point x="366" y="419"/>
      <point x="366" y="346" type="curve" smooth="yes"/>
      <point x="366" y="295" type="line"/>
      <point x="264" y="295" type="line" smooth="yes"/>
      <point x="114" y="295"/>
      <point x="44" y="241"/>
      <point x="44" y="144" type="curve" smooth="yes"/>
      <point x="44" y="48"/>
      <point x="108" y="-12"/>
      <point x="217" y="-12" type="curve" smooth="yes" name="hr01"/>
      <point x="289" y="-12"/>
      <point x="344" y="21"/>
      <point x="366" y="84" type="curve"/>
      <point x="371" y="84" type="line"/>
      <point x="376" y="41"/>
      <point x="397" y="7"/>
      <point x="444" y="1" type="curve"/>
      <point x="445" y="-2" type="line"/>
      <point x="390" y="-42"/>
      <point x="343" y="-80"/>
      <point x="343" y="-131" type="curve" smooth="yes" name="hr02"/>
      <point x="343" y="-184"/>
      <point x="386" y="-207"/>
      <point x="438" y="-207" type="curve" smooth="yes"/>
      <point x="484" y="-207"/>
      <point x="514" y="-189"/>
      <point x="526" y="-168" type="curve"/>
      <point x="486" y="-129" type="line"/>
      <point x="474" y="-144"/>
      <point x="457" y="-153"/>
      <point x="438" y="-153" type="curve" smooth="yes"/>
      <point x="420" y="-153"/>
      <point x="407" y="-145"/>
      <point x="407" y="-123" type="curve" smooth="yes"/>
      <point x="407" y="-101"/>
      <point x="420" y="-78"/>
      <point x="505" y="0" type="curve"/>
    </contour>
    <contour>
      <point x="366" y="235" type="line" name="hr03"/>
      <point x="366" y="150" type="line" smooth="yes"/>
      <point x="366" y="97"/>
      <point x="309" y="56"/>
      <point x="230" y="56" type="curve" smooth="yes"/>
      <point x="168" y="56"/>
      <point x="128" y="85"/>
      <point x="128" y="136" type="curve" smooth="yes"/>
      <point x="128" y="157" type="line" smooth="yes"/>
      <point x="128" y="207"/>
      <point x="169" y="235"/>
      <point x="260" y="235" type="curve" smooth="yes"/>
    </contour>
  </outline>
</glyph>
<glyph name="Eogonek" format="1">
  <advance width="583"/>
  <unicode hex="0118"/>
  <outline>
    <contour>
      <point x="93" y="0" type="line" name="hr00"/>
      <point x="457" y="0" type="line"/>
      <point x="458" y="-5" type="line"/>
      <point x="403" y="-42"/>
      <point x="357" y="-80"/>
      <point x="357" y="-131" type="curve" smooth="yes"/>
      <point x="357" y="-184"/>
      <point x="400" y="-207"/>
      <point x="452" y="-207" type="curve" smooth="yes"/>
      <point x="498" y="-207"/>
      <point x="528" y="-189"/>
      <point x="540" y="-168" type="curve"/>
      <point x="500" y="-129" type="line"/>
      <point x="488" y="-144"/>
      <point x="471" y="-153"/>
      <point x="452" y="-153" type="curve" smooth="yes"/>
      <point x="434" y="-153"/>
      <point x="421" y="-145"/>
      <point x="421" y="-123" type="curve" smooth="yes"/>
      <point x="421" y="-101"/>
      <point x="434" y="-78"/>
      <point x="519" y="0" type="curve"/>
      <point x="519" y="74" type="line"/>
      <point x="177" y="74" type="line"/>
      <point x="177" y="316" type="line"/>
      <point x="499" y="316" type="line"/>
      <point x="499" y="390" type="line"/>
      <point x="177" y="390" type="line"/>
      <point x="177" y="624" type="line"/>
      <point x="519" y="624" type="line"/>
      <point x="519" y="698" type="line"/>
      <point x="93" y="698" type="line"/>
    </contour>
  </outline>
</glyph>
<glyph name="eogonek" format="1">
  <advance width="549"/>
  <unicode hex="0119"/>
  <outline>
    <contour>
      <point x="356" y="-207" type="curve" smooth="yes" name="hr00"/>
      <point x="403" y="-207"/>
      <point x="432" y="-189"/>
      <point x="444" y="-168" type="curve"/>
      <point x="405" y="-129" type="line"/>
      <point x="393" y="-144"/>
      <point x="375" y="-153"/>
      <point x="357" y="-153" type="curve" smooth="yes"/>
      <point x="339" y="-153"/>
      <point x="326" y="-145"/>
      <point x="326" y="-122" type="curve" smooth="yes"/>
      <point x="326" y="-62"/>
      <point x="410" y="3"/>
      <point x="449" y="53" type="curve" smooth="yes"/>
      <point x="463" y="70"/>
      <point x="472" y="84"/>
      <point x="483" y="106" type="curve"/>
      <point x="426" y="147" type="line"/>
      <point x="399" y="90"/>
      <point x="349" y="58"/>
      <point x="284" y="58" type="curve" smooth="yes"/>
      <point x="188" y="58"/>
      <point x="131" y="125"/>
      <point x="131" y="214" type="curve" smooth="yes"/>
      <point x="131" y="238" type="line"/>
      <point x="502" y="238" type="line"/>
      <point x="502" y="276" type="line" smooth="yes"/>
      <point x="502" y="422"/>
      <point x="417" y="528"/>
      <point x="279" y="528" type="curve" smooth="yes"/>
      <point x="139" y="528"/>
      <point x="47" y="422"/>
      <point x="47" y="258" type="curve" smooth="yes"/>
      <point x="47" y="94"/>
      <point x="139" y="-12"/>
      <point x="279" y="-12" type="curve" smooth="yes"/>
      <point x="317" y="-12"/>
      <point x="343" y="-4"/>
      <point x="360" y="5" type="curve"/>
      <point x="364" y="0" type="line"/>
      <point x="316" y="-31"/>
      <point x="262" y="-70"/>
      <point x="262" y="-130" type="curve" smooth="yes"/>
      <point x="262" y="-184"/>
      <point x="304" y="-207"/>
    </contour>
    <contour>
      <point x="131" y="298" type="line"/>
      <point x="131" y="305" type="line" smooth="yes"/>
      <point x="131" y="395"/>
      <point x="192" y="461"/>
      <point x="279" y="461" type="curve" smooth="yes"/>
      <point x="361" y="461"/>
      <point x="416" y="400"/>
      <point x="416" y="309" type="curve" smooth="yes"/>
      <point x="416" y="298" type="line"/>
    </contour>
  </outline>
</glyph>
<glyph name="Hbar" format="1">
  <advance width="713"/>
  <unicode hex="0126"/>
  <outline>
    <contour>
      <point x="533" y="0" type="line" name="hr00"/>
      <point x="617" y="0" type="line"/>
      <point x="617" y="518" type="line"/>
      <point x="686" y="518" type="line"/>
      <point x="686" y="582" type="line"/>
      <point x="617" y="582" type="line"/>
      <point x="617" y="698" type="line"/>
      <point x="533" y="698" type="line"/>
      <point x="533" y="582" type="line"/>
      <point x="180" y="582" type="line"/>
      <point x="180" y="698" type="line"/>
      <point x="96" y="698" type="line"/>
      <point x="96" y="582" type="line"/>
      <point x="27" y="582" type="line"/>
      <point x="27" y="518" type="line"/>
      <point x="96" y="518" type="line"/>
      <point x="96" y="0" type="line"/>
      <point x="180" y="0" type="line"/>
      <point x="180" y="316" type="line"/>
      <point x="533" y="316" type="line"/>
    </contour>
    <contour>
      <point x="180" y="390" type="line"/>
      <point x="180" y="518" type="line"/>
      <point x="533" y="518" type="line"/>
      <point x="533" y="390" type="line"/>
    </contour>
  </outline>
</glyph>
<glyph name="hbar" format="1">
  <advance width="568"/>
  <unicode hex="0127"/>
  <outline>
    <contour>
      <point x="165" y="0" type="line" name="hr00"/>
      <point x="165" y="358" type="line"/>
      <point x="165" y="424"/>
      <point x="227" y="456"/>
      <point x="291" y="456" type="curve" smooth="yes"/>
      <point x="368" y="456"/>
      <point x="408" y="409"/>
      <point x="408" y="317" type="curve" smooth="yes"/>
      <point x="408" y="0" type="line"/>
      <point x="488" y="0" type="line"/>
      <point x="488" y="331" type="line" smooth="yes"/>
      <point x="488" y="456"/>
      <point x="421" y="528"/>
      <point x="315" y="528" type="curve" smooth="yes"/>
      <point x="238" y="528"/>
      <point x="194" y="490"/>
      <point x="169" y="432" type="curve"/>
      <point x="165" y="432" type="line"/>
      <point x="165" y="608" type="line"/>
      <point x="315" y="608" type="line"/>
      <point x="315" y="670" type="line"/>
      <point x="165" y="670" type="line"/>
      <point x="165" y="740" type="line"/>
      <point x="85" y="740" type="line"/>
      <point x="85" y="670" type="line"/>
      <point x="21" y="670" type="line"/>
      <point x="21" y="608" type="line"/>
      <point x="85" y="608" type="line"/>
      <point x="85" y="0" type="line"/>
    </contour>
  </outline>
</glyph>
<glyph name="Iogonek" format="1">
  <advance width="400"/>
  <unicode hex="012E"/>
  <outline>
    <contour>
      <point x="60" y="0" type="line"/>
      <point x="278" y="0" type="line"/>
      <point x="279" y="-5" type="line"/>
      <point x="216" y="-47"/>
      <point x="178" y="-81"/>
      <point x="178" y="-131" type="curve" smooth="yes"/>
      <point x="178" y="-184"/>
      <point x="221" y="-207"/>
      <point x="273" y="-207" type="curve" smooth="yes"/>
      <point x="319" y="-207"/>
      <point x="349" y="-189"/>
      <point x="361" y="-168" type="curve"/>
      <point x="321" y="-129" type="line"/>
      <point x="309" y="-144"/>
      <point x="292" y="-153"/>
      <point x="273" y="-153" type="curve" smooth="yes"/>
      <point x="255" y="-153"/>
      <point x="242" y="-145"/>
      <point x="242" y="-123" type="curve" smooth="yes"/>
      <point x="242" y="-101"/>
      <point x="255" y="-78"/>
      <point x="340" y="0" type="curve"/>
      <point x="340" y="70" type="line"/>
      <point x="242" y="70" type="line"/>
      <point x="242" y="628" type="line"/>
      <point x="340" y="628" type="line"/>
      <point x="340" y="698" type="line"/>
      <point x="60" y="698" type="line"/>
      <point x="60" y="628" type="line"/>
      <point x="158" y="628" type="line" name="hr01"/>
      <point x="158" y="70" type="line"/>
      <point x="60" y="70" type="line"/>
    </contour>
  </outline>
</glyph>
<glyph name="iogonek" format="1">
  <advance width="250"/>
  <unicode hex="012F"/>
  <outline>
    <contour>
      <point x="85" y="0" type="line"/>
      <point x="103" y="0" type="line"/>
      <point x="105" y="-4" type="line"/>
      <point x="51" y="-43"/>
      <point x="3" y="-80"/>
      <point x="3" y="-131" type="curve" smooth="yes"/>
      <point x="3" y="-184"/>
      <point x="46" y="-207"/>
      <point x="98" y="-207" type="curve" smooth="yes"/>
      <point x="144" y="-207"/>
      <point x="174" y="-189"/>
      <point x="186" y="-168" type="curve"/>
      <point x="146" y="-129" type="line"/>
      <point x="134" y="-144"/>
      <point x="117" y="-153"/>
      <point x="98" y="-153" type="curve" smooth="yes"/>
      <point x="80" y="-153"/>
      <point x="67" y="-145"/>
      <point x="67" y="-123" type="curve" smooth="yes"/>
      <point x="67" y="-101"/>
      <point x="80" y="-78"/>
      <point x="165" y="0" type="curve"/>
      <point x="165" y="516" type="line"/>
      <point x="85" y="516" type="line"/>
    </contour>
    <contour>
      <point x="125" y="637" type="curve" smooth="yes"/>
      <point x="159" y="637"/>
      <point x="174" y="655"/>
      <point x="174" y="682" type="curve" smooth="yes" name="hr01"/>
      <point x="174" y="695" type="line" smooth="yes"/>
      <point x="174" y="722"/>
      <point x="159" y="740"/>
      <point x="125" y="740" type="curve" smooth="yes"/>
      <point x="91" y="740"/>
      <point x="76" y="722"/>
      <point x="76" y="695" type="curve" smooth="yes"/>
      <point x="76" y="682" type="line" smooth="yes"/>
      <point x="76" y="655"/>
      <point x="91" y="637"/>
    </contour>
  </outline>
</glyph>
<glyph name="dotlessi" format="1">
  <advance width="250"/>
  <unicode hex="0131"/>
  <outline>
    <contour>
      <point x="165" y="0" type="line" name="hr00"/>
      <point x="165" y="516" type="line"/>
      <point x="85" y="516" type="line"/>
      <point x="85" y="0" type="line"/>
    </contour>
    <contour>
      <point x="125" y="540" type="move" name="top"/>
    </contour>
  </outline>
</glyph>
<glyph name="kgreenlandic" format="1">
  <advance width="527"/>
  <unicode hex="0138"/>
  <outline>
    <contour>
      <point x="413" y="0" type="line" name=""/>
      <point x="510" y="0" type="line"/>
      <point x="300" y="314" type="line"/>
      <point x="494" y="516" type="line"/>
      <point x="396" y="516" type="line"/>
      <point x="249" y="361" type="line"/>
      <point x="169" y="273" type="line"/>
      <point x="165" y="273" type="line"/>
      <point x="165" y="516" type="line"/>
      <point x="85" y="516" type="line"/>
      <point x="85" y="0" type="line"/>
      <point x="165" y="0" type="line"/>
      <point x="165" y="184" type="line"/>
      <point x="242" y="263" type="line"/>
    </contour>
    <contour>
      <point x="292.0" y="0.0" type="move" name="bottom"/>
    </contour>
    <contour>
      <point x="292.0" y="540.0" type="move" name="top"/>
    </contour>
  </outline>
</glyph>
<glyph name="ldot" format="1">
  <advance width="358"/>
  <unicode hex="0140"/>
  <outline>
    <component base="l"/>
    <component base="dotaccent" xOffset="4" yOffset="-363"/>
    <contour>
      <point x="164.0" y="0.0" type="move" name="bottom"/>
    </contour>
    <contour>
      <point x="224.0" y="740.0" type="move" name="topright"/>
    </contour>
  </outline>
</glyph>
<glyph name="Eng" format="1">
  <advance width="707"/>
  <unicode hex="014A"/>
  <outline>
    <contour>
      <point x="175" y="0" type="line" name="hr00"/>
      <point x="175" y="581" type="line"/>
      <point x="178" y="581" type="line"/>
      <point x="262" y="426" type="line"/>
      <point x="517" y="0" type="line"/>
      <point x="532" y="0" type="line"/>
      <point x="532" y="-126" type="line"/>
      <point x="446" y="-126" type="line"/>
      <point x="446" y="-200" type="line"/>
      <point x="500" y="-200" type="line" smooth="yes"/>
      <point x="577" y="-200"/>
      <point x="614" y="-149"/>
      <point x="614" y="-75" type="curve" smooth="yes"/>
      <point x="614" y="698" type="line"/>
      <point x="532" y="698" type="line"/>
      <point x="532" y="117" type="line"/>
      <point x="529" y="117" type="line"/>
      <point x="445" y="272" type="line"/>
      <point x="190" y="698" type="line"/>
      <point x="93" y="698" type="line"/>
      <point x="93" y="0" type="line"/>
    </contour>
  </outline>
</glyph>
<glyph name="eng" format="1">
  <advance width="568"/>
  <unicode hex="014B"/>
  <outline>
    <contour>
      <point x="324" y="-200" type="line"/>
      <point x="377" y="-200" type="line" smooth="yes"/>
      <point x="453" y="-200"/>
      <point x="488" y="-153"/>
      <point x="488" y="-82" type="curve" smooth="yes"/>
      <point x="488" y="331" type="line" smooth="yes"/>
      <point x="488" y="456"/>
      <point x="421" y="528"/>
      <point x="315" y="528" type="curve" smooth="yes"/>
      <point x="238" y="528"/>
      <point x="194" y="490"/>
      <point x="169" y="432" type="curve"/>
      <point x="165" y="432" type="line"/>
      <point x="165" y="516" type="line" name="hr01"/>
      <point x="85" y="516" type="line"/>
      <point x="85" y="0" type="line"/>
      <point x="165" y="0" type="line"/>
      <point x="165" y="358" type="line" smooth="yes"/>
      <point x="165" y="424"/>
      <point x="227" y="456"/>
      <point x="291" y="456" type="curve" smooth="yes" name="hr02"/>
      <point x="368" y="456"/>
      <point x="408" y="409"/>
      <point x="408" y="317" type="curve" smooth="yes"/>
      <point x="408" y="-130" type="line"/>
      <point x="324" y="-130" type="line"/>
    </contour>
  </outline>
</glyph>
<glyph name="Scedilla" format="1">
  <advance width="581"/>
  <unicode hex="015E"/>
  <outline>
    <contour>
      <point x="290" y="636" type="curve" smooth="yes" name="hr00"/>
      <point x="371" y="636"/>
      <point x="424" y="603"/>
      <point x="462" y="550" type="curve"/>
      <point x="525" y="596" type="line"/>
      <point x="473" y="670"/>
      <point x="399" y="710"/>
      <point x="294" y="710" type="curve" smooth="yes"/>
      <point x="157" y="710"/>
      <point x="63" y="643"/>
      <point x="63" y="519" type="curve" smooth="yes"/>
      <point x="63" y="412"/>
      <point x="133" y="356"/>
      <point x="260" y="327" type="curve" smooth="yes"/>
      <point x="317" y="314" type="line" smooth="yes"/>
      <point x="409" y="293"/>
      <point x="446" y="260"/>
      <point x="446" y="194" type="curve" smooth="yes"/>
      <point x="446" y="114"/>
      <point x="392" y="62"/>
      <point x="292" y="62" type="curve" smooth="yes"/>
      <point x="211" y="62"/>
      <point x="153" y="97"/>
      <point x="104" y="162" type="curve"/>
      <point x="42" y="110" type="line"/>
      <point x="93" y="41"/>
      <point x="163" y="-4"/>
      <point x="260" y="-11" type="curve"/>
      <point x="247" y="-77" type="line"/>
      <point x="275" y="-81" type="line" smooth="yes"/>
      <point x="331" y="-89"/>
      <point x="343" y="-104"/>
      <point x="343" y="-122" type="curve" smooth="yes"/>
      <point x="343" y="-143"/>
      <point x="324" y="-153"/>
      <point x="299" y="-153" type="curve" smooth="yes"/>
      <point x="270" y="-153"/>
      <point x="250" y="-140"/>
      <point x="238" y="-125" type="curve"/>
      <point x="200" y="-166" type="line"/>
      <point x="214" y="-185"/>
      <point x="245" y="-207"/>
      <point x="299" y="-207" type="curve" smooth="yes"/>
      <point x="358" y="-207"/>
      <point x="410" y="-181"/>
      <point x="410" y="-124" type="curve" smooth="yes"/>
      <point x="410" y="-81"/>
      <point x="381" y="-58"/>
      <point x="342" y="-58" type="curve" smooth="yes"/>
      <point x="330" y="-58"/>
      <point x="316" y="-60"/>
      <point x="303" y="-64" type="curve"/>
      <point x="300" y="-61" type="line"/>
      <point x="310" y="-11" type="line"/>
      <point x="447" y="-4"/>
      <point x="529" y="76"/>
      <point x="529" y="198" type="curve" smooth="yes"/>
      <point x="529" y="302"/>
      <point x="470" y="362"/>
      <point x="334" y="393" type="curve" smooth="yes"/>
      <point x="277" y="406" type="line" smooth="yes"/>
      <point x="189" y="426"/>
      <point x="146" y="456"/>
      <point x="146" y="522" type="curve" smooth="yes"/>
      <point x="146" y="597"/>
      <point x="201" y="636"/>
    </contour>
  </outline>
</glyph>
<glyph name="scedilla" format="1">
  <advance width="487"/>
  <unicode hex="015F"/>
  <outline>
    <contour>
      <point x="252" y="-207" type="curve" smooth="yes"/>
      <point x="311" y="-207"/>
      <point x="363" y="-181"/>
      <point x="363" y="-124" type="curve" smooth="yes"/>
      <point x="363" y="-81"/>
      <point x="334" y="-58"/>
      <point x="295" y="-58" type="curve" smooth="yes"/>
      <point x="283" y="-58"/>
      <point x="269" y="-60"/>
      <point x="256" y="-64" type="curve"/>
      <point x="253" y="-61" type="line"/>
      <point x="263" y="-11" type="line"/>
      <point x="367" y="-4"/>
      <point x="431" y="56"/>
      <point x="431" y="149" type="curve" smooth="yes" name="hr01"/>
      <point x="431" y="227"/>
      <point x="387" y="277"/>
      <point x="273" y="294" type="curve" smooth="yes"/>
      <point x="233" y="300" type="line" smooth="yes"/>
      <point x="169" y="310"/>
      <point x="134" y="330"/>
      <point x="134" y="380" type="curve" smooth="yes"/>
      <point x="134" y="429"/>
      <point x="169" y="460"/>
      <point x="235" y="460" type="curve" smooth="yes"/>
      <point x="301" y="460"/>
      <point x="345" y="429"/>
      <point x="368" y="397" type="curve"/>
      <point x="421" y="445" type="line"/>
      <point x="379" y="497"/>
      <point x="324" y="528"/>
      <point x="241" y="528" type="curve" smooth="yes"/>
      <point x="136" y="528"/>
      <point x="57" y="478"/>
      <point x="57" y="376" type="curve" smooth="yes"/>
      <point x="57" y="280"/>
      <point x="128" y="241"/>
      <point x="223" y="227" type="curve" smooth="yes"/>
      <point x="264" y="221" type="line" smooth="yes"/>
      <point x="332" y="211"/>
      <point x="354" y="180"/>
      <point x="354" y="140" type="curve" smooth="yes"/>
      <point x="354" y="87"/>
      <point x="314" y="56"/>
      <point x="246" y="56" type="curve" smooth="yes"/>
      <point x="181" y="56"/>
      <point x="133" y="85"/>
      <point x="93" y="135" type="curve"/>
      <point x="36" y="89" type="line"/>
      <point x="77" y="34"/>
      <point x="133" y="-4"/>
      <point x="213" y="-11" type="curve"/>
      <point x="200" y="-77" type="line"/>
      <point x="228" y="-81" type="line" smooth="yes"/>
      <point x="284" y="-89"/>
      <point x="296" y="-104"/>
      <point x="296" y="-122" type="curve" smooth="yes" name="hr02"/>
      <point x="296" y="-143"/>
      <point x="277" y="-153"/>
      <point x="252" y="-153" type="curve" smooth="yes"/>
      <point x="223" y="-153"/>
      <point x="203" y="-140"/>
      <point x="191" y="-125" type="curve"/>
      <point x="153" y="-166" type="line"/>
      <point x="167" y="-185"/>
      <point x="198" y="-207"/>
    </contour>
  </outline>
</glyph>
<glyph name="Tcedilla" format="1">
  <advance width="572"/>
  <unicode hex="0162"/>
  <outline>
    <contour>
      <point x="298" y="-207" type="curve" smooth="yes" name=""/>
      <point x="357" y="-207"/>
      <point x="409" y="-181"/>
      <point x="409" y="-124" type="curve" smooth="yes"/>
      <point x="409" y="-81"/>
      <point x="380" y="-58"/>
      <point x="341" y="-58" type="curve" smooth="yes"/>
      <point x="329" y="-58"/>
      <point x="315" y="-60"/>
      <point x="302" y="-64" type="curve"/>
      <point x="299" y="-61" type="line"/>
      <point x="311" y="0" type="line"/>
      <point x="328" y="0" type="line"/>
      <point x="328" y="624" type="line"/>
      <point x="550" y="624" type="line"/>
      <point x="550" y="698" type="line"/>
      <point x="22" y="698" type="line"/>
      <point x="22" y="624" type="line"/>
      <point x="244" y="624" type="line"/>
      <point x="244" y="0" type="line"/>
      <point x="261" y="0" type="line"/>
      <point x="246" y="-77" type="line"/>
      <point x="274" y="-81" type="line" smooth="yes"/>
      <point x="330" y="-89"/>
      <point x="342" y="-104"/>
      <point x="342" y="-122" type="curve" smooth="yes"/>
      <point x="342" y="-143"/>
      <point x="323" y="-153"/>
      <point x="298" y="-153" type="curve" smooth="yes"/>
      <point x="269" y="-153"/>
      <point x="249" y="-140"/>
      <point x="237" y="-125" type="curve"/>
      <point x="199" y="-166" type="line"/>
      <point x="213" y="-185"/>
      <point x="244" y="-207"/>
    </contour>
  </outline>
</glyph>
<glyph name="tcedilla" format="1">
  <advance width="351"/>
  <unicode hex="0163"/>
  <outline>
    <contour>
      <point x="225" y="-207" type="curve" smooth="yes" name=""/>
      <point x="284" y="-207"/>
      <point x="336" y="-181"/>
      <point x="336" y="-124" type="curve" smooth="yes"/>
      <point x="336" y="-81"/>
      <point x="307" y="-58"/>
      <point x="268" y="-58" type="curve" smooth="yes"/>
      <point x="256" y="-58"/>
      <point x="242" y="-60"/>
      <point x="229" y="-64" type="curve"/>
      <point x="226" y="-61" type="line"/>
      <point x="238" y="0" type="line"/>
      <point x="299" y="0" type="line"/>
      <point x="299" y="70" type="line"/>
      <point x="194" y="70" type="line"/>
      <point x="194" y="446" type="line"/>
      <point x="307" y="446" type="line"/>
      <point x="307" y="516" type="line"/>
      <point x="194" y="516" type="line"/>
      <point x="194" y="659" type="line"/>
      <point x="122" y="659" type="line"/>
      <point x="122" y="563" type="line" smooth="yes"/>
      <point x="122" y="528"/>
      <point x="111" y="516"/>
      <point x="77" y="516" type="curve" smooth="yes"/>
      <point x="29" y="516" type="line"/>
      <point x="29" y="446" type="line"/>
      <point x="114" y="446" type="line"/>
      <point x="114" y="85" type="line" smooth="yes"/>
      <point x="114" y="38"/>
      <point x="140" y="5"/>
      <point x="188" y="0" type="curve"/>
      <point x="173" y="-77" type="line"/>
      <point x="201" y="-81" type="line" smooth="yes"/>
      <point x="257" y="-89"/>
      <point x="269" y="-104"/>
      <point x="269" y="-122" type="curve" smooth="yes"/>
      <point x="269" y="-143"/>
      <point x="250" y="-153"/>
      <point x="225" y="-153" type="curve" smooth="yes"/>
      <point x="196" y="-153"/>
      <point x="176" y="-140"/>
      <point x="164" y="-125" type="curve"/>
      <point x="126" y="-166" type="line"/>
      <point x="140" y="-185"/>
      <point x="171" y="-207"/>
    </contour>
  </outline>
</glyph>
<glyph name="Tbar" format="1">
  <advance width="582"/>
  <unicode hex="0166"/>
  <outline>
    <contour>
      <point x="497" y="338" type="line" name="hr00"/>
      <point x="497" y="402" type="line"/>
      <point x="333" y="402" type="line"/>
      <point x="333" y="624" type="line"/>
      <point x="555" y="624" type="line"/>
      <point x="555" y="698" type="line"/>
      <point x="27" y="698" type="line"/>
      <point x="27" y="624" type="line"/>
      <point x="249" y="624" type="line"/>
      <point x="249" y="402" type="line"/>
      <point x="84" y="402" type="line"/>
      <point x="84" y="338" type="line"/>
      <point x="249" y="338" type="line"/>
      <point x="249" y="0" type="line"/>
      <point x="333" y="0" type="line"/>
      <point x="333" y="338" type="line"/>
    </contour>
  </outline>
</glyph>
<glyph name="tbar" format="1">
  <advance width="357"/>
  <unicode hex="0167"/>
  <outline>
    <contour>
      <point x="302" y="70" type="line" name="hr00"/>
      <point x="197" y="70" type="line"/>
      <point x="197" y="248" type="line"/>
      <point x="288" y="248" type="line"/>
      <point x="288" y="310" type="line"/>
      <point x="197" y="310" type="line"/>
      <point x="197" y="446" type="line"/>
      <point x="310" y="446" type="line"/>
      <point x="310" y="516" type="line"/>
      <point x="197" y="516" type="line"/>
      <point x="197" y="659" type="line"/>
      <point x="125" y="659" type="line"/>
      <point x="125" y="563" type="line" smooth="yes"/>
      <point x="125" y="528"/>
      <point x="114" y="516"/>
      <point x="80" y="516" type="curve" smooth="yes"/>
      <point x="32" y="516" type="line"/>
      <point x="32" y="446" type="line"/>
      <point x="117" y="446" type="line"/>
      <point x="117" y="310" type="line"/>
      <point x="53" y="310" type="line"/>
      <point x="53" y="248" type="line"/>
      <point x="117" y="248" type="line"/>
      <point x="117" y="84" type="line" smooth="yes"/>
      <point x="117" y="34"/>
      <point x="147" y="0"/>
      <point x="202" y="0" type="curve" smooth="yes"/>
      <point x="302" y="0" type="line"/>
    </contour>
  </outline>
</glyph>
<glyph name="Uogonek" format="1">
  <advance width="678"/>
  <unicode hex="0172"/>
  <outline>
    <contour>
      <point x="88" y="698" type="line" name="hr00"/>
      <point x="88" y="286" type="line" smooth="yes"/>
      <point x="88" y="83"/>
      <point x="150" y="-12"/>
      <point x="336" y="-12" type="curve" smooth="yes"/>
      <point x="372" y="-12"/>
      <point x="407" y="-8"/>
      <point x="437" y="5" type="curve"/>
      <point x="441" y="0" type="line"/>
      <point x="376" y="-44"/>
      <point x="325" y="-78"/>
      <point x="325" y="-133" type="curve" smooth="yes"/>
      <point x="325" y="-183"/>
      <point x="369" y="-207"/>
      <point x="420" y="-207" type="curve" smooth="yes"/>
      <point x="466" y="-207"/>
      <point x="496" y="-189"/>
      <point x="508" y="-168" type="curve"/>
      <point x="468" y="-129" type="line"/>
      <point x="456" y="-144"/>
      <point x="439" y="-153"/>
      <point x="420" y="-153" type="curve" smooth="yes"/>
      <point x="402" y="-153"/>
      <point x="389" y="-145"/>
      <point x="389" y="-123" type="curve" smooth="yes"/>
      <point x="389" y="-96"/>
      <point x="409" y="-77"/>
      <point x="475" y="-12" type="curve" smooth="yes"/>
      <point x="566" y="78"/>
      <point x="590" y="154"/>
      <point x="590" y="286" type="curve" smooth="yes"/>
      <point x="590" y="698" type="line"/>
      <point x="506" y="698" type="line"/>
      <point x="506" y="266" type="line" smooth="yes"/>
      <point x="506" y="133"/>
      <point x="463" y="63"/>
      <point x="339" y="63" type="curve" smooth="yes"/>
      <point x="215" y="63"/>
      <point x="172" y="133"/>
      <point x="172" y="266" type="curve" smooth="yes"/>
      <point x="172" y="698" type="line"/>
    </contour>
  </outline>
</glyph>
<glyph name="uogonek" format="1">
  <advance width="568"/>
  <unicode hex="0173"/>
  <outline>
    <contour>
      <point x="483" y="516" type="line"/>
      <point x="403" y="516" type="line"/>
      <point x="403" y="159" type="line"/>
      <point x="403" y="91"/>
      <point x="341" y="60"/>
      <point x="278" y="60" type="curve" smooth="yes"/>
      <point x="201" y="60"/>
      <point x="160" y="107"/>
      <point x="160" y="199" type="curve" smooth="yes"/>
      <point x="160" y="516" type="line"/>
      <point x="80" y="516" type="line"/>
      <point x="80" y="185" type="line" smooth="yes"/>
      <point x="80" y="60"/>
      <point x="148" y="-12"/>
      <point x="254" y="-12" type="curve" smooth="yes"/>
      <point x="340" y="-12"/>
      <point x="379" y="35"/>
      <point x="399" y="84" type="curve"/>
      <point x="403" y="84" type="line"/>
      <point x="403" y="0" type="line" name="hr01"/>
      <point x="421" y="0" type="line"/>
      <point x="422" y="-3" type="line"/>
      <point x="367" y="-42"/>
      <point x="321" y="-80"/>
      <point x="321" y="-131" type="curve" smooth="yes"/>
      <point x="321" y="-184"/>
      <point x="364" y="-207"/>
      <point x="416" y="-207" type="curve" smooth="yes"/>
      <point x="462" y="-207"/>
      <point x="492" y="-189"/>
      <point x="504" y="-168" type="curve"/>
      <point x="464" y="-129" type="line"/>
      <point x="452" y="-144"/>
      <point x="435" y="-153"/>
      <point x="416" y="-153" type="curve" smooth="yes"/>
      <point x="398" y="-153"/>
      <point x="385" y="-145"/>
      <point x="385" y="-123" type="curve" smooth="yes"/>
      <point x="385" y="-101"/>
      <point x="398" y="-78"/>
      <point x="483" y="0" type="curve"/>
    </contour>
  </outline>
</glyph>
<glyph name="Ydieresis" format="1">
  <advance width="593"/>
  <unicode hex="0178"/>
  <outline>
    <component base="Y"/>
    <component base="dieresis.case" xOffset="-3"/>
    <contour>
      <point x="297.0" y="0.0" type="move" name="bottom"/>
    </contour>
  </outline>
</glyph>
<glyph name="longs" format="1">
  <advance width="278"/>
  <unicode hex="017F"/>
  <outline>
    <contour>
      <point x="113" y="0" type="line" name="hr00"/>
      <point x="193" y="0" type="line"/>
      <point x="193" y="670" type="line"/>
      <point x="304" y="670" type="line"/>
      <point x="304" y="740" type="line"/>
      <point x="226" y="740" type="line" smooth="yes"/>
      <point x="150" y="740"/>
      <point x="113" y="691"/>
      <point x="113" y="620" type="curve" smooth="yes"/>
      <point x="113" y="516" type="line"/>
      <point x="29" y="516" type="line"/>
      <point x="29" y="446" type="line"/>
      <point x="113" y="446" type="line"/>
    </contour>
  </outline>
</glyph>
<glyph name="Schwa" format="1">
  <advance width="708"/>
  <unicode hex="018F"/>
  <outline>
    <contour>
      <point x="58" y="349" type="line" smooth="yes" name="hr00"/>
      <point x="58" y="109"/>
      <point x="169" y="-12"/>
      <point x="353" y="-12" type="curve" smooth="yes"/>
      <point x="537" y="-12"/>
      <point x="650" y="123"/>
      <point x="650" y="349" type="curve" smooth="yes"/>
      <point x="650" y="574"/>
      <point x="546" y="710"/>
      <point x="360" y="710" type="curve" smooth="yes"/>
      <point x="230" y="710"/>
      <point x="129" y="633"/>
      <point x="89" y="532" type="curve"/>
      <point x="159" y="498" type="line"/>
      <point x="194" y="582"/>
      <point x="269" y="635"/>
      <point x="359" y="635" type="curve" smooth="yes"/>
      <point x="481" y="635"/>
      <point x="561" y="547"/>
      <point x="561" y="401" type="curve" smooth="yes"/>
      <point x="561" y="371" type="line"/>
      <point x="58" y="371" type="line"/>
    </contour>
    <contour>
      <point x="353" y="63" type="curve" smooth="yes"/>
      <point x="237" y="63"/>
      <point x="145" y="156"/>
      <point x="145" y="297" type="curve" smooth="yes"/>
      <point x="145" y="302" type="line"/>
      <point x="561" y="302" type="line"/>
      <point x="561" y="297" type="line" smooth="yes"/>
      <point x="561" y="156"/>
      <point x="469" y="63"/>
    </contour>
    <contour>
      <point x="353.0" y="0.0" type="move" name="bottom"/>
    </contour>
    <contour>
      <point x="353.0" y="698.0" type="move" name="top"/>
    </contour>
  </outline>
</glyph>
<glyph name="ohorn" format="1">
  <advance width="560"/>
  <unicode hex="01A1"/>
  <outline>
    <contour>
      <point x="448" y="628" type="line"/>
      <point x="448" y="516" type="line"/>
      <point x="356" y="516" type="line"/>
      <point x="333" y="524"/>
      <point x="307" y="528"/>
      <point x="280" y="528" type="curve" smooth="yes" name="hr01"/>
      <point x="142" y="528"/>
      <point x="47" y="422"/>
      <point x="47" y="258" type="curve" smooth="yes"/>
      <point x="47" y="94"/>
      <point x="142" y="-12"/>
      <point x="280" y="-12" type="curve" smooth="yes"/>
      <point x="418" y="-12"/>
      <point x="513" y="94"/>
      <point x="513" y="258" type="curve" smooth="yes"/>
      <point x="513" y="338"/>
      <point x="494" y="407"/>
      <point x="436" y="467" type="curve" name="hr02"/>
      <point x="457" y="467" type="line" smooth="yes"/>
      <point x="506" y="467"/>
      <point x="519" y="494"/>
      <point x="519" y="530" type="curve" smooth="yes"/>
      <point x="519" y="628" type="line"/>
    </contour>
    <contour>
      <point x="280" y="59" type="curve" smooth="yes"/>
      <point x="194" y="59"/>
      <point x="133" y="112"/>
      <point x="133" y="221" type="curve" smooth="yes"/>
      <point x="133" y="295" type="line" smooth="yes"/>
      <point x="133" y="404"/>
      <point x="194" y="457"/>
      <point x="280" y="457" type="curve" smooth="yes" name="hr03"/>
      <point x="366" y="457"/>
      <point x="427" y="404"/>
      <point x="427" y="295" type="curve" smooth="yes"/>
      <point x="427" y="221" type="line" smooth="yes"/>
      <point x="427" y="112"/>
      <point x="366" y="59"/>
    </contour>
    <contour>
      <point x="280" y="0" type="move" name="bottom"/>
    </contour>
    <contour>
      <point x="280" y="540" type="move" name="top"/>
    </contour>
  </outline>
</glyph>
<glyph name="Uhorn" format="1">
  <advance width="678"/>
  <unicode hex="01AF"/>
  <outline>
    <contour>
      <point x="88" y="698" type="line" name="hr00"/>
      <point x="88" y="286" type="line" smooth="yes"/>
      <point x="88" y="83"/>
      <point x="150" y="-12"/>
      <point x="336" y="-12" type="curve" smooth="yes"/>
      <point x="522" y="-12"/>
      <point x="590" y="83"/>
      <point x="590" y="286" type="curve" smooth="yes"/>
      <point x="590" y="645" type="line"/>
      <point x="605" y="645" type="line" smooth="yes"/>
      <point x="655" y="645"/>
      <point x="668" y="673"/>
      <point x="668" y="708" type="curve" smooth="yes"/>
      <point x="668" y="810" type="line"/>
      <point x="597" y="810" type="line"/>
      <point x="597" y="698" type="line"/>
      <point x="506" y="698" type="line"/>
      <point x="506" y="266" type="line" smooth="yes"/>
      <point x="506" y="133"/>
      <point x="463" y="63"/>
      <point x="339" y="63" type="curve" smooth="yes"/>
      <point x="215" y="63"/>
      <point x="172" y="133"/>
      <point x="172" y="266" type="curve" smooth="yes"/>
      <point x="172" y="698" type="line"/>
    </contour>
    <contour>
      <point x="337" y="0" type="move" name="bottom"/>
    </contour>
    <contour>
      <point x="337" y="698" type="move" name="top"/>
    </contour>
  </outline>
</glyph>
<glyph name="uhorn" format="1">
  <advance width="568"/>
  <unicode hex="01B0"/>
  <outline>
    <contour>
      <point x="566" y="628" type="line"/>
      <point x="495" y="628" type="line"/>
      <point x="495" y="516" type="line"/>
      <point x="403" y="516" type="line"/>
      <point x="403" y="159" type="line" smooth="yes"/>
      <point x="403" y="91"/>
      <point x="341" y="60"/>
      <point x="278" y="60" type="curve" smooth="yes"/>
      <point x="201" y="60"/>
      <point x="160" y="107"/>
      <point x="160" y="199" type="curve" smooth="yes"/>
      <point x="160" y="516" type="line"/>
      <point x="80" y="516" type="line"/>
      <point x="80" y="185" type="line" smooth="yes"/>
      <point x="80" y="60"/>
      <point x="148" y="-12"/>
      <point x="254" y="-12" type="curve" smooth="yes"/>
      <point x="340" y="-12"/>
      <point x="379" y="35"/>
      <point x="399" y="84" type="curve"/>
      <point x="403" y="84" type="line"/>
      <point x="403" y="0" type="line" name="hr01"/>
      <point x="483" y="0" type="line"/>
      <point x="483" y="463" type="line"/>
      <point x="503" y="463" type="line" smooth="yes"/>
      <point x="553" y="463"/>
      <point x="566" y="491"/>
      <point x="566" y="526" type="curve" smooth="yes"/>
    </contour>
    <contour>
      <point x="278" y="0" type="move" name="bottom"/>
    </contour>
    <contour>
      <point x="282" y="540" type="move" name="top"/>
    </contour>
  </outline>
</glyph>
<glyph name="icaron" format="1">
  <advance width="250"/>
  <unicode hex="01D0"/>
  <outline>
    <component base="dotlessi"/>
    <component base="caron" xOffset="-175"/>
    <contour>
      <point x="125.0" y="0.0" type="move" name="bottom"/>
    </contour>
    <contour>
      <point x="165.0" y="0.0" type="move" name="bottomright"/>
    </contour>
  </outline>
</glyph>
<glyph name="tcommaaccent" format="1">
  <advance width="351"/>
  <unicode hex="021B"/>
  <outline>
    <component base="t"/>
    <component base="commabelowcomb" xOffset="213"/>
    <contour>
      <point x="263.0" y="751.0" type="move" name="topright"/>
    </contour>
  </outline>
</glyph>
<glyph name="dotlessj" format="1">
  <advance width="250"/>
  <unicode hex="0237"/>
  <outline>
    <contour>
      <point x="1" y="-200" type="line" name="hr00"/>
      <point x="53" y="-200" type="line" smooth="yes"/>
      <point x="130" y="-200"/>
      <point x="165" y="-151"/>
      <point x="165" y="-80" type="curve" smooth="yes"/>
      <point x="165" y="516" type="line"/>
      <point x="85" y="516" type="line"/>
      <point x="85" y="-130" type="line"/>
      <point x="1" y="-130" type="line"/>
    </contour>
    <contour>
      <point x="125" y="540" type="move" name="top"/>
    </contour>
  </outline>
</glyph>
<glyph name="schwa" format="1">
  <advance width="549"/>
  <unicode hex="0259"/>
  <outline>
    <contour>
      <point x="47" y="278" type="line" name="hr00"/>
      <point x="47" y="240" type="line" smooth="yes"/>
      <point x="47" y="94"/>
      <point x="132" y="-12"/>
      <point x="270" y="-12" type="curve" smooth="yes"/>
      <point x="410" y="-12"/>
      <point x="502" y="94"/>
      <point x="502" y="258" type="curve" smooth="yes"/>
      <point x="502" y="422"/>
      <point x="410" y="528"/>
      <point x="270" y="528" type="curve" smooth="yes"/>
      <point x="173" y="528"/>
      <point x="99" y="480"/>
      <point x="66" y="410" type="curve"/>
      <point x="123" y="369" type="line"/>
      <point x="150" y="426"/>
      <point x="200" y="458"/>
      <point x="265" y="458" type="curve" smooth="yes"/>
      <point x="361" y="458"/>
      <point x="418" y="391"/>
      <point x="418" y="302" type="curve" smooth="yes"/>
      <point x="418" y="278" type="line"/>
    </contour>
    <contour>
      <point x="133" y="218" type="line"/>
      <point x="418" y="218" type="line"/>
      <point x="418" y="211" type="line" smooth="yes"/>
      <point x="418" y="121"/>
      <point x="357" y="55"/>
      <point x="270" y="55" type="curve" smooth="yes"/>
      <point x="188" y="55"/>
      <point x="133" y="116"/>
      <point x="133" y="207" type="curve" smooth="yes"/>
    </contour>
  </outline>
</glyph>
<glyph name="commaturnedtop" format="1">
  <advance width="600"/>
  <unicode hex="02BB"/>
  <outline>
    <contour>
      <point x="301" y="595" type="curve" smooth="yes" name="hr00"/>
      <point x="334" y="595"/>
      <point x="352" y="613"/>
      <point x="352" y="642" type="curve" smooth="yes"/>
      <point x="352" y="652" type="line" smooth="yes"/>
      <point x="352" y="674"/>
      <point x="340" y="691"/>
      <point x="317" y="696" type="curve"/>
      <point x="326" y="727"/>
      <point x="341" y="746"/>
      <point x="368" y="774" type="curve"/>
      <point x="310" y="774" type="line"/>
      <point x="278" y="744"/>
      <point x="250" y="700"/>
      <point x="250" y="653" type="curve" smooth="yes"/>
      <point x="250" y="642" type="line" smooth="yes"/>
      <point x="250" y="613"/>
      <point x="268" y="595"/>
    </contour>
    <contour>
      <point x="300" y="540" type="move" name="_top"/>
    </contour>
  </outline>
</glyph>
<glyph name="circumflex" format="1">
  <advance width="600"/>
  <unicode hex="02C6"/>
  <outline>
    <contour>
      <point x="250" y="765" type="line" name="hr00"/>
      <point x="139" y="622" type="line"/>
      <point x="183" y="591" type="line"/>
      <point x="300" y="708" type="line"/>
      <point x="417" y="591" type="line"/>
      <point x="461" y="622" type="line"/>
      <point x="350" y="765" type="line"/>
    </contour>
    <contour>
      <point x="300" y="540" type="move" name="_top"/>
    </contour>
  </outline>
</glyph>
<glyph name="breve" format="1">
  <advance width="600"/>
  <unicode hex="02D8"/>
  <outline>
    <contour>
      <point x="300" y="596" type="curve" smooth="yes" name="hr00"/>
      <point x="407" y="596"/>
      <point x="434" y="666"/>
      <point x="452" y="721" type="curve"/>
      <point x="407" y="743" type="line"/>
      <point x="386" y="710" type="line" smooth="yes"/>
      <point x="368" y="681"/>
      <point x="351" y="659"/>
      <point x="300" y="659" type="curve" smooth="yes"/>
      <point x="249" y="659"/>
      <point x="232" y="681"/>
      <point x="214" y="710" type="curve" smooth="yes"/>
      <point x="193" y="743" type="line"/>
      <point x="148" y="721" type="line"/>
      <point x="166" y="666"/>
      <point x="193" y="596"/>
    </contour>
    <contour>
      <point x="300" y="540" type="move" name="_top"/>
    </contour>
  </outline>
</glyph>
<glyph name="dotaccent" format="1">
  <advance width="600"/>
  <unicode hex="02D9"/>
  <outline>
    <contour>
      <point x="300" y="616" type="curve" smooth="yes" name="hr00"/>
      <point x="334" y="616"/>
      <point x="351" y="634"/>
      <point x="351" y="662" type="curve" smooth="yes"/>
      <point x="351" y="673" type="line" smooth="yes"/>
      <point x="351" y="701"/>
      <point x="334" y="719"/>
      <point x="300" y="719" type="curve" smooth="yes"/>
      <point x="266" y="719"/>
      <point x="249" y="701"/>
      <point x="249" y="673" type="curve" smooth="yes"/>
      <point x="249" y="662" type="line" smooth="yes"/>
      <point x="249" y="634"/>
      <point x="266" y="616"/>
    </contour>
    <contour>
      <point x="300" y="540" type="move" name="_top"/>
    </contour>
  </outline>
</glyph>
<glyph name="ogonek" format="1">
  <advance width="600"/>
  <unicode hex="02DB"/>
  <outline>
    <contour>
      <point x="261" y="-207" type="curve" smooth="yes" name="hr00"/>
      <point x="307" y="-207"/>
      <point x="337" y="-189"/>
      <point x="349" y="-168" type="curve"/>
      <point x="309" y="-129" type="line"/>
      <point x="297" y="-144"/>
      <point x="280" y="-153"/>
      <point x="261" y="-153" type="curve" smooth="yes"/>
      <point x="243" y="-153"/>
      <point x="230" y="-145"/>
      <point x="230" y="-123" type="curve" smooth="yes"/>
      <point x="230" y="-101"/>
      <point x="243" y="-78"/>
      <point x="328" y="0" type="curve"/>
      <point x="320" y="22" type="line"/>
      <point x="266" y="22" type="line"/>
      <point x="271" y="4" type="line"/>
      <point x="209" y="-41"/>
      <point x="166" y="-78"/>
      <point x="166" y="-131" type="curve" smooth="yes"/>
      <point x="166" y="-184"/>
      <point x="209" y="-207"/>
    </contour>
    <contour>
      <point x="328" y="0" type="move" name="_bottomright"/>
    </contour>
  </outline>
</glyph>
<glyph name="tilde" format="1">
  <advance width="600"/>
  <unicode hex="02DC"/>
  <outline>
    <contour>
      <point x="373" y="612" type="curve" smooth="yes" name="hr02"/>
      <point x="419" y="612"/>
      <point x="450" y="638"/>
      <point x="468" y="665" type="curve"/>
      <point x="435" y="705" type="line"/>
      <point x="415" y="688"/>
      <point x="399" y="678"/>
      <point x="377" y="678" type="curve" smooth="yes"/>
      <point x="360" y="678"/>
      <point x="339" y="685"/>
      <point x="307" y="702" type="curve" smooth="yes"/>
      <point x="286" y="713"/>
      <point x="262" y="728"/>
      <point x="227" y="728" type="curve" smooth="yes" name="hr01"/>
      <point x="181" y="728"/>
      <point x="150" y="702"/>
      <point x="132" y="675" type="curve"/>
      <point x="165" y="635" type="line"/>
      <point x="185" y="652"/>
      <point x="201" y="662"/>
      <point x="223" y="662" type="curve" smooth="yes"/>
      <point x="240" y="662"/>
      <point x="261" y="655"/>
      <point x="293" y="638" type="curve" smooth="yes"/>
      <point x="314" y="627"/>
      <point x="338" y="612"/>
    </contour>
    <contour>
      <point x="300" y="540" type="move" name="_top"/>
    </contour>
  </outline>
</glyph>
<glyph name="hookcomb" format="1">
  <advance width="0"/>
  <unicode hex="0309"/>
  <outline>
    <contour>
      <point x="-84" y="704" type="line" name="hr00"/>
      <point x="34" y="704" type="line"/>
      <point x="-24" y="600" type="line"/>
      <point x="22" y="577" type="line"/>
      <point x="46" y="607" type="line" smooth="yes"/>
      <point x="77" y="646"/>
      <point x="95" y="681"/>
      <point x="95" y="710" type="curve" smooth="yes"/>
      <point x="95" y="740"/>
      <point x="76" y="765"/>
      <point x="25" y="765" type="curve" smooth="yes"/>
      <point x="-84" y="765" type="line"/>
    </contour>
    <contour>
      <point x="0.0" y="540.0" type="move" name="_top"/>
    </contour>
  </outline>
</glyph>
<glyph name="horncomb" format="1">
  <advance width="0"/>
  <unicode hex="031B"/>
  <outline>
    <contour>
      <point x="77" y="628" type="line" name="hr00"/>
      <point x="6" y="628" type="line"/>
      <point x="6" y="516" type="line"/>
      <point x="-77" y="516" type="line"/>
      <point x="-77" y="463" type="line"/>
      <point x="14" y="463" type="line" smooth="yes"/>
      <point x="64" y="463"/>
      <point x="77" y="491"/>
      <point x="77" y="526" type="curve" smooth="yes"/>
    </contour>
  </outline>
</glyph>
<glyph name="dotbelowcomb" format="1">
  <advance width="0"/>
  <unicode hex="0323"/>
  <outline>
    <contour>
      <point x="0" y="-169" type="curve" smooth="yes" name="hr00"/>
      <point x="34" y="-169"/>
      <point x="51" y="-151"/>
      <point x="51" y="-123" type="curve" smooth="yes"/>
      <point x="51" y="-112" type="line" smooth="yes"/>
      <point x="51" y="-84"/>
      <point x="34" y="-66"/>
      <point x="0" y="-66" type="curve" smooth="yes"/>
      <point x="-34" y="-66"/>
      <point x="-51" y="-84"/>
      <point x="-51" y="-112" type="curve" smooth="yes"/>
      <point x="-51" y="-123" type="line" smooth="yes"/>
      <point x="-51" y="-151"/>
      <point x="-34" y="-169"/>
    </contour>
    <contour>
      <point x="0.0" y="0.0" type="move" name="_bottom"/>
    </contour>
  </outline>
</glyph>
<glyph name="commabelowcomb" format="1">
  <advance width="0"/>
  <unicode hex="0326"/>
  <outline>
    <contour>
      <point x="0" y="-66" type="curve" smooth="yes" name="hr00"/>
      <point x="-33" y="-66"/>
      <point x="-51" y="-84"/>
      <point x="-51" y="-113" type="curve" smooth="yes"/>
      <point x="-51" y="-123" type="line" smooth="yes"/>
      <point x="-51" y="-145"/>
      <point x="-39" y="-162"/>
      <point x="-16" y="-167" type="curve"/>
      <point x="-25" y="-198"/>
      <point x="-40" y="-217"/>
      <point x="-67" y="-245" type="curve"/>
      <point x="-9" y="-245" type="line"/>
      <point x="23" y="-215"/>
      <point x="51" y="-171"/>
      <point x="51" y="-124" type="curve" smooth="yes"/>
      <point x="51" y="-113" type="line" smooth="yes"/>
      <point x="51" y="-84"/>
      <point x="33" y="-66"/>
    </contour>
    <contour>
      <point x="0.0" y="0.0" type="move" name="_bottom"/>
    </contour>
  </outline>
</glyph>
<glyph name="tonos" format="1">
  <advance width="600"/>
  <unicode hex="0384"/>
  <outline>
    <contour>
      <point x="388" y="769" type="line" name="hr00"/>
      <point x="308" y="780" type="line"/>
      <point x="279" y="592" type="line"/>
      <point x="336" y="585" type="line"/>
    </contour>
    <contour>
      <point x="312" y="540" type="move" name="_top"/>
    </contour>
  </outline>
</glyph>
<glyph name="dieresistonos" format="1">
  <advance width="600"/>
  <unicode hex="0385"/>
  <outline>
    <contour>
      <point x="183" y="618" type="curve" smooth="yes"/>
      <point x="213" y="618"/>
      <point x="228" y="636"/>
      <point x="228" y="664" type="curve" smooth="yes"/>
      <point x="228" y="675" type="line" smooth="yes"/>
      <point x="228" y="703"/>
      <point x="213" y="721"/>
      <point x="183" y="721" type="curve" smooth="yes"/>
      <point x="153" y="721"/>
      <point x="138" y="703"/>
      <point x="138" y="675" type="curve" smooth="yes"/>
      <point x="138" y="664" type="line" smooth="yes"/>
      <point x="138" y="636"/>
      <point x="153" y="618"/>
    </contour>
    <contour>
      <point x="357" y="769" type="line"/>
      <point x="285" y="780" type="line" name=""/>
      <point x="256" y="592" type="line"/>
      <point x="305" y="585" type="line"/>
    </contour>
    <contour>
      <point x="417" y="618" type="curve" smooth="yes" name=""/>
      <point x="447" y="618"/>
      <point x="462" y="636"/>
      <point x="462" y="664" type="curve" smooth="yes"/>
      <point x="462" y="675" type="line" smooth="yes"/>
      <point x="462" y="703"/>
      <point x="447" y="721"/>
      <point x="417" y="721" type="curve" smooth="yes"/>
      <point x="387" y="721"/>
      <point x="372" y="703"/>
      <point x="372" y="675" type="curve" smooth="yes"/>
      <point x="372" y="664" type="line" smooth="yes"/>
      <point x="372" y="636"/>
      <point x="387" y="618"/>
    </contour>
    <contour>
      <point x="295.0" y="540.0" type="move" name="_top"/>
    </contour>
  </outline>
</glyph>
<glyph name="Epsilontonos" format="1">
  <advance width="609"/>
  <unicode hex="0388"/>
  <outline>
    <component base="E" xOffset="26"/>
    <component base="tonos.case" xOffset="-304"/>
    <contour>
      <point x="330.0" y="0.0" type="move" name="bottom"/>
    </contour>
    <contour>
      <point x="545.0" y="0.0" type="move" name="bottomright"/>
    </contour>
    <contour>
      <point x="330.0" y="698.0" type="move" name="top"/>
    </contour>
  </outline>
</glyph>
<glyph name="Lambda" format="1">
  <advance width="629"/>
  <unicode hex="039B"/>
  <outline>
    <contour>
      <point x="261" y="698" type="line" name="hr00"/>
      <point x="23" y="0" type="line"/>
      <point x="108" y="0" type="line"/>
      <point x="223" y="352" type="line"/>
      <point x="310" y="620" type="line"/>
      <point x="315" y="620" type="line"/>
      <point x="403" y="352" type="line"/>
      <point x="518" y="0" type="line"/>
      <point x="606" y="0" type="line"/>
      <point x="368" y="698" type="line"/>
    </contour>
  </outline>
</glyph>
<glyph name="Xi" format="1">
  <advance width="584"/>
  <unicode hex="039E"/>
  <outline>
    <contour>
      <point x="64" y="624" type="line" name="hr00"/>
      <point x="520" y="624" type="line"/>
      <point x="520" y="698" type="line"/>
      <point x="64" y="698" type="line"/>
    </contour>
    <contour>
      <point x="104" y="316" type="line"/>
      <point x="480" y="316" type="line"/>
      <point x="480" y="390" type="line"/>
      <point x="104" y="390" type="line"/>
    </contour>
    <contour>
      <point x="64" y="0" type="line"/>
      <point x="520" y="0" type="line"/>
      <point x="520" y="74" type="line"/>
      <point x="64" y="74" type="line"/>
    </contour>
  </outline>
</glyph>
<glyph name="Sigma" format="1">
  <advance width="569"/>
  <unicode hex="03A3"/>
  <outline>
    <contour>
      <point x="509" y="0" type="line" name="hr00"/>
      <point x="509" y="74" type="line"/>
      <point x="136" y="74" type="line"/>
      <point x="388" y="354" type="line"/>
      <point x="148" y="624" type="line"/>
      <point x="509" y="624" type="line"/>
      <point x="509" y="698" type="line"/>
      <point x="48" y="698" type="line"/>
      <point x="48" y="622" type="line"/>
      <point x="288" y="352" type="line"/>
      <point x="40" y="76" type="line"/>
      <point x="40" y="0" type="line"/>
    </contour>
  </outline>
</glyph>
<glyph name="Phi" format="1">
  <advance width="852"/>
  <unicode hex="03A6"/>
  <outline>
    <contour>
      <point x="384" y="-29" type="line" name="hr00"/>
      <point x="468" y="-29" type="line"/>
      <point x="468" y="31" type="line"/>
      <point x="486" y="31" type="line" smooth="yes"/>
      <point x="688" y="31"/>
      <point x="798" y="170"/>
      <point x="798" y="354" type="curve" smooth="yes"/>
      <point x="798" y="538"/>
      <point x="688" y="677"/>
      <point x="486" y="677" type="curve" smooth="yes"/>
      <point x="468" y="677" type="line"/>
      <point x="468" y="725" type="line"/>
      <point x="384" y="725" type="line"/>
      <point x="384" y="677" type="line"/>
      <point x="366" y="677" type="line" smooth="yes"/>
      <point x="164" y="677"/>
      <point x="54" y="538"/>
      <point x="54" y="354" type="curve" smooth="yes"/>
      <point x="54" y="170"/>
      <point x="164" y="31"/>
      <point x="366" y="31" type="curve" smooth="yes"/>
      <point x="384" y="31" type="line"/>
    </contour>
    <contour>
      <point x="386" y="101" type="line"/>
      <point x="366" y="101" type="line" smooth="yes"/>
      <point x="230" y="101"/>
      <point x="144" y="197"/>
      <point x="144" y="323" type="curve" smooth="yes"/>
      <point x="144" y="385" type="line" smooth="yes"/>
      <point x="144" y="511"/>
      <point x="230" y="607"/>
      <point x="366" y="607" type="curve" smooth="yes"/>
      <point x="386" y="607" type="line"/>
    </contour>
    <contour>
      <point x="466" y="101" type="line"/>
      <point x="466" y="607" type="line"/>
      <point x="486" y="607" type="line" smooth="yes"/>
      <point x="622" y="607"/>
      <point x="708" y="511"/>
      <point x="708" y="385" type="curve" smooth="yes"/>
      <point x="708" y="323" type="line" smooth="yes"/>
      <point x="708" y="197"/>
      <point x="622" y="101"/>
      <point x="486" y="101" type="curve" smooth="yes"/>
    </contour>
  </outline>
</glyph>
<glyph name="Psi" format="1">
  <advance width="790"/>
  <unicode hex="03A8"/>
  <outline>
    <contour>
      <point x="353" y="0" type="line" name="hr00"/>
      <point x="437" y="0" type="line"/>
      <point x="437" y="203" type="line"/>
      <point x="605" y="203"/>
      <point x="722" y="286"/>
      <point x="722" y="468" type="curve" smooth="yes"/>
      <point x="722" y="698" type="line"/>
      <point x="638" y="698" type="line"/>
      <point x="638" y="468" type="line" smooth="yes"/>
      <point x="638" y="322"/>
      <point x="549" y="273"/>
      <point x="437" y="273" type="curve"/>
      <point x="437" y="698" type="line"/>
      <point x="353" y="698" type="line"/>
      <point x="353" y="273" type="line"/>
      <point x="241" y="273"/>
      <point x="152" y="322"/>
      <point x="152" y="468" type="curve" smooth="yes"/>
      <point x="152" y="698" type="line"/>
      <point x="68" y="698" type="line"/>
      <point x="68" y="468" type="line" smooth="yes"/>
      <point x="68" y="286"/>
      <point x="185" y="203"/>
      <point x="353" y="203" type="curve"/>
    </contour>
  </outline>
</glyph>
<glyph name="alpha" format="1">
  <advance width="644"/>
  <unicode hex="03B1"/>
  <outline>
    <contour>
      <point x="608" y="70" type="line"/>
      <point x="554" y="70" type="line"/>
      <point x="491" y="260" type="line"/>
      <point x="600" y="516" type="line"/>
      <point x="512" y="516" type="line"/>
      <point x="485" y="443" type="line"/>
      <point x="456" y="332" type="line"/>
      <point x="452" y="332" type="line"/>
      <point x="424" y="464"/>
      <point x="363" y="528"/>
      <point x="257" y="528" type="curve" smooth="yes" name="hr01"/>
      <point x="133" y="528"/>
      <point x="50" y="421"/>
      <point x="50" y="258" type="curve" smooth="yes"/>
      <point x="50" y="95"/>
      <point x="133" y="-12"/>
      <point x="257" y="-12" type="curve" smooth="yes"/>
      <point x="365" y="-12"/>
      <point x="423" y="55"/>
      <point x="450" y="184" type="curve"/>
      <point x="454" y="184" type="line"/>
      <point x="471" y="83" type="line" smooth="yes"/>
      <point x="481" y="23"/>
      <point x="509" y="0"/>
      <point x="563" y="0" type="curve" smooth="yes" name="hr02"/>
      <point x="608" y="0" type="line"/>
    </contour>
    <contour>
      <point x="257" y="59" type="curve" smooth="yes" name="hr03"/>
      <point x="194" y="59"/>
      <point x="136" y="114"/>
      <point x="136" y="222" type="curve" smooth="yes"/>
      <point x="136" y="294" type="line" smooth="yes"/>
      <point x="136" y="402"/>
      <point x="194" y="457"/>
      <point x="257" y="457" type="curve" smooth="yes"/>
      <point x="317" y="457"/>
      <point x="351" y="433"/>
      <point x="384" y="343" type="curve" smooth="yes"/>
      <point x="415" y="258" type="line"/>
      <point x="384" y="173" type="line" smooth="yes"/>
      <point x="351" y="83"/>
      <point x="317" y="59"/>
    </contour>
    <contour>
      <point x="268" y="540" type="move" name="top"/>
    </contour>
  </outline>
</glyph>
<glyph name="beta" format="1">
  <advance width="584"/>
  <unicode hex="03B2"/>
  <outline>
    <contour>
      <point x="85" y="-200" type="line"/>
      <point x="165" y="-200" type="line"/>
      <point x="165" y="60" type="line"/>
      <point x="169" y="60" type="line"/>
      <point x="198" y="12"/>
      <point x="250" y="-12"/>
      <point x="316" y="-12" type="curve" smooth="yes"/>
      <point x="449" y="-12"/>
      <point x="530" y="85"/>
      <point x="530" y="211" type="curve" smooth="yes"/>
      <point x="530" y="344"/>
      <point x="441" y="393"/>
      <point x="360" y="403" type="curve"/>
      <point x="360" y="407" type="line"/>
      <point x="425" y="418"/>
      <point x="494" y="472"/>
      <point x="494" y="574" type="curve" smooth="yes" name="hr01"/>
      <point x="494" y="684"/>
      <point x="415" y="752"/>
      <point x="296" y="752" type="curve" smooth="yes"/>
      <point x="158" y="752"/>
      <point x="85" y="661"/>
      <point x="85" y="521" type="curve"/>
    </contour>
    <contour>
      <point x="246" y="368" type="line"/>
      <point x="298" y="368" type="line" smooth="yes"/>
      <point x="388" y="368"/>
      <point x="444" y="317"/>
      <point x="444" y="226" type="curve" smooth="yes" name="hr02"/>
      <point x="444" y="202" type="line" smooth="yes"/>
      <point x="444" y="111"/>
      <point x="389" y="60"/>
      <point x="296" y="60" type="curve" smooth="yes"/>
      <point x="226" y="60"/>
      <point x="165" y="88"/>
      <point x="165" y="137" type="curve" smooth="yes"/>
      <point x="165" y="527" type="line" smooth="yes"/>
      <point x="165" y="634"/>
      <point x="206" y="680"/>
      <point x="291" y="680" type="curve" smooth="yes"/>
      <point x="371" y="680"/>
      <point x="408" y="639"/>
      <point x="408" y="575" type="curve" smooth="yes" name="hr03"/>
      <point x="408" y="551" type="line" smooth="yes"/>
      <point x="408" y="483"/>
      <point x="373" y="438"/>
      <point x="293" y="438" type="curve" smooth="yes"/>
      <point x="246" y="438" type="line"/>
    </contour>
  </outline>
</glyph>
<glyph name="gamma" format="1">
  <advance width="502"/>
  <unicode hex="03B3"/>
  <outline>
    <contour>
      <point x="216" y="-200" type="line" name="hr00"/>
      <point x="296" y="-200" type="line"/>
      <point x="296" y="0" type="line"/>
      <point x="484" y="516" type="line"/>
      <point x="407" y="516" type="line"/>
      <point x="312" y="259" type="line"/>
      <point x="259" y="94" type="line"/>
      <point x="254" y="94" type="line"/>
      <point x="207" y="259" type="line"/>
      <point x="141" y="457" type="line" smooth="yes"/>
      <point x="126" y="502"/>
      <point x="99" y="516"/>
      <point x="55" y="516" type="curve" smooth="yes"/>
      <point x="10" y="516" type="line"/>
      <point x="10" y="446" type="line"/>
      <point x="64" y="446" type="line"/>
      <point x="216" y="0" type="line"/>
    </contour>
  </outline>
</glyph>
<glyph name="delta" format="1">
  <advance width="560"/>
  <unicode hex="03B4"/>
  <outline>
    <contour>
      <point x="459" y="670" type="line" name="hr00"/>
      <point x="459" y="740" type="line"/>
      <point x="117" y="740" type="line"/>
      <point x="117" y="647" type="line"/>
      <point x="262" y="521" type="line"/>
      <point x="262" y="516" type="line"/>
      <point x="148" y="516"/>
      <point x="47" y="424"/>
      <point x="47" y="250" type="curve" smooth="yes"/>
      <point x="47" y="94"/>
      <point x="142" y="-12"/>
      <point x="280" y="-12" type="curve" smooth="yes"/>
      <point x="418" y="-12"/>
      <point x="513" y="91"/>
      <point x="513" y="259" type="curve" smooth="yes"/>
      <point x="513" y="367"/>
      <point x="468" y="449"/>
      <point x="332" y="557" type="curve" smooth="yes"/>
      <point x="189" y="671" type="line"/>
      <point x="189" y="675" type="line"/>
      <point x="259" y="670" type="line"/>
    </contour>
    <contour>
      <point x="427" y="241" type="curve"/>
      <point x="427" y="223" type="line" smooth="yes"/>
      <point x="427" y="112"/>
      <point x="366" y="59"/>
      <point x="280" y="59" type="curve" smooth="yes"/>
      <point x="194" y="59"/>
      <point x="133" y="112"/>
      <point x="133" y="223" type="curve" smooth="yes"/>
      <point x="133" y="277" type="line" smooth="yes"/>
      <point x="133" y="404"/>
      <point x="206" y="475"/>
      <point x="301" y="487" type="curve"/>
      <point x="406" y="392"/>
      <point x="427" y="341"/>
    </contour>
  </outline>
</glyph>
<glyph name="epsilon" format="1">
  <advance width="518"/>
  <unicode hex="03B5"/>
  <outline>
    <contour>
      <point x="433" y="140" type="line"/>
      <point x="404" y="87"/>
      <point x="351" y="59"/>
      <point x="271" y="59" type="curve" smooth="yes"/>
      <point x="188" y="59"/>
      <point x="146" y="89"/>
      <point x="146" y="141" type="curve" smooth="yes"/>
      <point x="146" y="153" type="line" smooth="yes"/>
      <point x="146" y="205"/>
      <point x="183" y="233"/>
      <point x="255" y="233" type="curve" smooth="yes"/>
      <point x="377" y="233" type="line"/>
      <point x="377" y="300" type="line"/>
      <point x="255" y="300" type="line" smooth="yes"/>
      <point x="194" y="300"/>
      <point x="157" y="331"/>
      <point x="157" y="374" type="curve" smooth="yes" name="hr01"/>
      <point x="157" y="386" type="line" smooth="yes"/>
      <point x="157" y="421"/>
      <point x="190" y="457"/>
      <point x="274" y="457" type="curve" smooth="yes"/>
      <point x="348" y="457"/>
      <point x="401" y="429"/>
      <point x="427" y="381" type="curve"/>
      <point x="485" y="427" type="line"/>
      <point x="449" y="489"/>
      <point x="375" y="528"/>
      <point x="275" y="528" type="curve" smooth="yes"/>
      <point x="148" y="528"/>
      <point x="71" y="464"/>
      <point x="71" y="379" type="curve" smooth="yes"/>
      <point x="71" y="315"/>
      <point x="115" y="277"/>
      <point x="187" y="269" type="curve"/>
      <point x="187" y="265" type="line"/>
      <point x="104" y="250"/>
      <point x="60" y="209"/>
      <point x="60" y="137" type="curve" smooth="yes" name="hr02"/>
      <point x="60" y="48"/>
      <point x="127" y="-12"/>
      <point x="266" y="-12" type="curve" smooth="yes"/>
      <point x="375" y="-12"/>
      <point x="448" y="25"/>
      <point x="490" y="99" type="curve"/>
    </contour>
    <contour>
      <point x="274" y="540" type="move" name="top"/>
    </contour>
  </outline>
</glyph>
<glyph name="zeta" format="1">
  <advance width="428"/>
  <unicode hex="03B6"/>
  <outline>
    <contour>
      <point x="64" y="670" type="line" name="hr00"/>
      <point x="257" y="670" type="line"/>
      <point x="319" y="675" type="line"/>
      <point x="319" y="670" type="line"/>
      <point x="170" y="483" type="line" smooth="yes"/>
      <point x="69" y="356"/>
      <point x="47" y="291"/>
      <point x="47" y="222" type="curve" smooth="yes"/>
      <point x="47" y="98"/>
      <point x="99" y="43"/>
      <point x="251" y="5" type="curve" smooth="yes"/>
      <point x="323" y="-13" type="line"/>
      <point x="289" y="-140" type="line"/>
      <point x="365" y="-159" type="line"/>
      <point x="395" y="-47" type="line" smooth="yes"/>
      <point x="398" y="-35"/>
      <point x="400" y="-24"/>
      <point x="400" y="-14" type="curve" smooth="yes"/>
      <point x="400" y="21"/>
      <point x="380" y="48"/>
      <point x="333" y="60" type="curve" smooth="yes"/>
      <point x="261" y="79" type="line" smooth="yes"/>
      <point x="169" y="103"/>
      <point x="133" y="143"/>
      <point x="133" y="215" type="curve" smooth="yes"/>
      <point x="133" y="229" type="line" smooth="yes"/>
      <point x="133" y="287"/>
      <point x="155" y="353"/>
      <point x="240" y="459" type="curve" smooth="yes"/>
      <point x="416" y="680" type="line"/>
      <point x="416" y="740" type="line"/>
      <point x="64" y="740" type="line"/>
    </contour>
  </outline>
</glyph>
<glyph name="eta" format="1">
  <advance width="573"/>
  <unicode hex="03B7"/>
  <outline>
    <contour>
      <point x="170" y="0" type="line"/>
      <point x="170" y="358" type="line" smooth="yes"/>
      <point x="170" y="424"/>
      <point x="232" y="456"/>
      <point x="296" y="456" type="curve" smooth="yes"/>
      <point x="373" y="456"/>
      <point x="413" y="409"/>
      <point x="413" y="317" type="curve" smooth="yes"/>
      <point x="413" y="-200" type="line"/>
      <point x="493" y="-200" type="line"/>
      <point x="493" y="331" type="line" smooth="yes"/>
      <point x="493" y="456"/>
      <point x="426" y="528"/>
      <point x="320" y="528" type="curve" smooth="yes"/>
      <point x="243" y="528"/>
      <point x="199" y="490"/>
      <point x="174" y="432" type="curve"/>
      <point x="170" y="432" type="line"/>
      <point x="170" y="481"/>
      <point x="140" y="516"/>
      <point x="85" y="516" type="curve" smooth="yes" name="hr01"/>
      <point x="31" y="516" type="line"/>
      <point x="31" y="446" type="line"/>
      <point x="90" y="446" type="line"/>
      <point x="90" y="0" type="line"/>
    </contour>
    <contour>
      <point x="295" y="540" type="move" name="top"/>
    </contour>
  </outline>
</glyph>
<glyph name="theta" format="1">
  <advance width="562"/>
  <unicode hex="03B8"/>
  <outline>
    <contour>
      <point x="281" y="752" type="curve" smooth="yes" name="hr00"/>
      <point x="139" y="752"/>
      <point x="56" y="658"/>
      <point x="56" y="370" type="curve" smooth="yes"/>
      <point x="56" y="82"/>
      <point x="139" y="-12"/>
      <point x="281" y="-12" type="curve" smooth="yes"/>
      <point x="423" y="-12"/>
      <point x="506" y="82"/>
      <point x="506" y="370" type="curve" smooth="yes"/>
      <point x="506" y="658"/>
      <point x="423" y="752"/>
    </contour>
    <contour>
      <point x="142" y="468" type="line" smooth="yes"/>
      <point x="142" y="625"/>
      <point x="193" y="683"/>
      <point x="281" y="683" type="curve" smooth="yes"/>
      <point x="369" y="683"/>
      <point x="420" y="625"/>
      <point x="420" y="468" type="curve" smooth="yes"/>
      <point x="420" y="405" type="line"/>
      <point x="142" y="405" type="line"/>
    </contour>
    <contour>
      <point x="281" y="57" type="curve" smooth="yes"/>
      <point x="193" y="57"/>
      <point x="142" y="115"/>
      <point x="142" y="272" type="curve" smooth="yes"/>
      <point x="142" y="335" type="line"/>
      <point x="420" y="335" type="line"/>
      <point x="420" y="272" type="line" smooth="yes"/>
      <point x="420" y="115"/>
      <point x="369" y="57"/>
    </contour>
  </outline>
</glyph>
<glyph name="iota" format="1">
  <advance width="295"/>
  <unicode hex="03B9"/>
  <outline>
    <contour>
      <point x="270" y="70" type="line" name=""/>
      <point x="165" y="70" type="line"/>
      <point x="165" y="516" type="line"/>
      <point x="85" y="516" type="line"/>
      <point x="85" y="85" type="line"/>
      <point x="85" y="35"/>
      <point x="115" y="0"/>
      <point x="170" y="0" type="curve" smooth="yes"/>
      <point x="270" y="0" type="line"/>
    </contour>
    <contour>
      <point x="132.0" y="540.0" type="move" name="top"/>
    </contour>
  </outline>
</glyph>
<glyph name="kappa" format="1">
  <advance width="527"/>
  <unicode hex="03BA"/>
  <outline>
    <contour>
      <point x="413" y="0" type="line" name="hr00"/>
      <point x="510" y="0" type="line"/>
      <point x="289" y="296" type="line"/>
      <point x="428" y="446" type="line"/>
      <point x="487" y="446" type="line"/>
      <point x="487" y="516" type="line"/>
      <point x="438" y="516" type="line" smooth="yes"/>
      <point x="410" y="516"/>
      <point x="392" y="509"/>
      <point x="372" y="487" type="curve" smooth="yes"/>
      <point x="219" y="322" type="line"/>
      <point x="169" y="263" type="line"/>
      <point x="165" y="263" type="line"/>
      <point x="165" y="516" type="line"/>
      <point x="85" y="516" type="line"/>
      <point x="85" y="0" type="line"/>
      <point x="165" y="0" type="line"/>
      <point x="165" y="174" type="line"/>
      <point x="232" y="246" type="line"/>
    </contour>
  </outline>
</glyph>
<glyph name="lambda" format="1">
  <advance width="509"/>
  <unicode hex="03BB"/>
  <outline>
    <contour>
      <point x="212" y="516" type="line" name="hr00"/>
      <point x="6" y="0" type="line"/>
      <point x="85" y="0" type="line"/>
      <point x="186" y="258" type="line"/>
      <point x="244" y="436" type="line"/>
      <point x="249" y="436" type="line"/>
      <point x="296" y="258" type="line"/>
      <point x="361" y="57" type="line" smooth="yes"/>
      <point x="373" y="19"/>
      <point x="396" y="0"/>
      <point x="446" y="0" type="curve" smooth="yes"/>
      <point x="501" y="0" type="line"/>
      <point x="501" y="70" type="line"/>
      <point x="437" y="70" type="line"/>
      <point x="238" y="683" type="line" smooth="yes"/>
      <point x="226" y="721"/>
      <point x="203" y="740"/>
      <point x="153" y="740" type="curve" smooth="yes"/>
      <point x="58" y="740" type="line"/>
      <point x="58" y="670" type="line"/>
      <point x="162" y="670" type="line"/>
    </contour>
  </outline>
</glyph>
<glyph name="uni03BC" format="1">
  <advance width="578"/>
  <unicode hex="03BC"/>
  <outline>
    <contour>
      <point x="165" y="-200" type="line"/>
      <point x="165" y="-65" type="line"/>
      <point x="148" y="84" type="line"/>
      <point x="152" y="84" type="line"/>
      <point x="170" y="24"/>
      <point x="214" y="-12"/>
      <point x="278" y="-12" type="curve" smooth="yes"/>
      <point x="338" y="-12"/>
      <point x="380" y="20"/>
      <point x="404" y="84" type="curve"/>
      <point x="408" y="84" type="line"/>
      <point x="408" y="35"/>
      <point x="438" y="0"/>
      <point x="493" y="0" type="curve" smooth="yes" name="hr01"/>
      <point x="547" y="0" type="line"/>
      <point x="547" y="70" type="line"/>
      <point x="488" y="70" type="line"/>
      <point x="488" y="516" type="line"/>
      <point x="408" y="516" type="line"/>
      <point x="408" y="160" type="line" smooth="yes"/>
      <point x="408" y="92"/>
      <point x="346" y="60"/>
      <point x="283" y="60" type="curve" smooth="yes" name="hr02"/>
      <point x="206" y="60"/>
      <point x="165" y="107"/>
      <point x="165" y="199" type="curve" smooth="yes"/>
      <point x="165" y="516" type="line"/>
      <point x="85" y="516" type="line"/>
      <point x="85" y="-200" type="line"/>
    </contour>
  </outline>
</glyph>
<glyph name="nu" format="1">
  <advance width="511"/>
  <unicode hex="03BD"/>
  <outline>
    <contour>
      <point x="306" y="0" type="line" name="hr00"/>
      <point x="493" y="516" type="line"/>
      <point x="416" y="516" type="line"/>
      <point x="321" y="259" type="line"/>
      <point x="263" y="84" type="line"/>
      <point x="258" y="84" type="line"/>
      <point x="205" y="259" type="line"/>
      <point x="141" y="457" type="line" smooth="yes"/>
      <point x="126" y="502"/>
      <point x="99" y="516"/>
      <point x="55" y="516" type="curve" smooth="yes"/>
      <point x="10" y="516" type="line"/>
      <point x="10" y="446" type="line"/>
      <point x="64" y="446" type="line"/>
      <point x="213" y="0" type="line"/>
    </contour>
  </outline>
</glyph>
<glyph name="xi" format="1">
  <advance width="456"/>
  <unicode hex="03BE"/>
  <outline>
    <contour>
      <point x="428" y="670" type="line"/>
      <point x="428" y="740" type="line"/>
      <point x="45" y="740" type="line"/>
      <point x="45" y="670" type="line"/>
      <point x="182" y="670" type="line"/>
      <point x="182" y="663" type="line"/>
      <point x="122" y="643"/>
      <point x="90" y="597"/>
      <point x="90" y="535" type="curve" smooth="yes"/>
      <point x="90" y="455"/>
      <point x="127" y="408"/>
      <point x="207" y="388" type="curve"/>
      <point x="207" y="384" type="line"/>
      <point x="111" y="372"/>
      <point x="54" y="304"/>
      <point x="54" y="216" type="curve" smooth="yes" name="hr01"/>
      <point x="54" y="98"/>
      <point x="108" y="44"/>
      <point x="260" y="6" type="curve" smooth="yes"/>
      <point x="336" y="-13" type="line"/>
      <point x="302" y="-140" type="line"/>
      <point x="378" y="-159" type="line"/>
      <point x="408" y="-47" type="line" smooth="yes"/>
      <point x="411" y="-35"/>
      <point x="413" y="-24"/>
      <point x="413" y="-14" type="curve" smooth="yes"/>
      <point x="413" y="21"/>
      <point x="393" y="48"/>
      <point x="346" y="60" type="curve" smooth="yes"/>
      <point x="270" y="80" type="line" smooth="yes"/>
      <point x="178" y="104"/>
      <point x="140" y="143"/>
      <point x="140" y="209" type="curve" smooth="yes"/>
      <point x="140" y="223" type="line" smooth="yes"/>
      <point x="140" y="303"/>
      <point x="181" y="349"/>
      <point x="286" y="349" type="curve" smooth="yes"/>
      <point x="373" y="349" type="line"/>
      <point x="373" y="419" type="line"/>
      <point x="286" y="419" type="line" smooth="yes"/>
      <point x="215" y="419"/>
      <point x="176" y="458"/>
      <point x="176" y="528" type="curve" smooth="yes" name="hr02"/>
      <point x="176" y="542" type="line" smooth="yes"/>
      <point x="176" y="624"/>
      <point x="223" y="670"/>
      <point x="295" y="670" type="curve" smooth="yes"/>
    </contour>
  </outline>
</glyph>
<glyph name="pi" format="1">
  <advance width="625"/>
  <unicode hex="03C0"/>
  <outline>
    <contour>
      <point x="498" y="446" type="line" name="hr00"/>
      <point x="585" y="446" type="line"/>
      <point x="585" y="516" type="line"/>
      <point x="30" y="516" type="line"/>
      <point x="30" y="446" type="line"/>
      <point x="117" y="446" type="line"/>
      <point x="117" y="0" type="line"/>
      <point x="197" y="0" type="line"/>
      <point x="197" y="446" type="line"/>
      <point x="418" y="446" type="line"/>
      <point x="418" y="82" type="line" smooth="yes"/>
      <point x="418" y="36"/>
      <point x="448" y="0"/>
      <point x="503" y="0" type="curve" smooth="yes"/>
      <point x="585" y="0" type="line"/>
      <point x="585" y="70" type="line"/>
      <point x="498" y="70" type="line"/>
    </contour>
  </outline>
</glyph>
<glyph name="rho" format="1">
  <advance width="552"/>
  <unicode hex="03C1"/>
  <outline>
    <contour>
      <point x="58" y="-200" type="line" name="hr00"/>
      <point x="138" y="-200" type="line"/>
      <point x="138" y="59" type="line"/>
      <point x="142" y="59" type="line"/>
      <point x="169" y="14"/>
      <point x="223" y="-12"/>
      <point x="290" y="-12" type="curve" smooth="yes"/>
      <point x="422" y="-12"/>
      <point x="502" y="89"/>
      <point x="502" y="262" type="curve" smooth="yes"/>
      <point x="502" y="430"/>
      <point x="426" y="528"/>
      <point x="282" y="528" type="curve" smooth="yes"/>
      <point x="134" y="528"/>
      <point x="58" y="424"/>
      <point x="58" y="296" type="curve" smooth="yes"/>
    </contour>
    <contour>
      <point x="270" y="60" type="curve" smooth="yes"/>
      <point x="201" y="60"/>
      <point x="138" y="89"/>
      <point x="138" y="137" type="curve" smooth="yes"/>
      <point x="138" y="295" type="line" smooth="yes"/>
      <point x="138" y="398"/>
      <point x="189" y="456"/>
      <point x="277" y="456" type="curve" smooth="yes"/>
      <point x="365" y="456"/>
      <point x="416" y="398"/>
      <point x="416" y="295" type="curve" smooth="yes"/>
      <point x="416" y="221" type="line" smooth="yes"/>
      <point x="416" y="118"/>
      <point x="368" y="60"/>
    </contour>
  </outline>
</glyph>
<glyph name="sigma1" format="1">
  <advance width="483"/>
  <unicode hex="03C2"/>
  <outline>
    <contour>
      <point x="309" y="-140" type="line" name="hr00"/>
      <point x="385" y="-159" type="line"/>
      <point x="415" y="-47" type="line" smooth="yes"/>
      <point x="418" y="-35"/>
      <point x="420" y="-24"/>
      <point x="420" y="-14" type="curve" smooth="yes"/>
      <point x="420" y="21"/>
      <point x="400" y="48"/>
      <point x="353" y="60" type="curve" smooth="yes"/>
      <point x="261" y="85" type="line" smooth="yes"/>
      <point x="174" y="109"/>
      <point x="133" y="157"/>
      <point x="133" y="234" type="curve" smooth="yes"/>
      <point x="133" y="302" type="line" smooth="yes"/>
      <point x="133" y="393"/>
      <point x="183" y="457"/>
      <point x="264" y="457" type="curve" smooth="yes"/>
      <point x="321" y="457"/>
      <point x="364" y="426"/>
      <point x="383" y="373" type="curve"/>
      <point x="450" y="407" type="line"/>
      <point x="418" y="482"/>
      <point x="356" y="528"/>
      <point x="266" y="528" type="curve" smooth="yes"/>
      <point x="132" y="528"/>
      <point x="47" y="427"/>
      <point x="47" y="260" type="curve" smooth="yes"/>
      <point x="47" y="124"/>
      <point x="105" y="51"/>
      <point x="222" y="20" type="curve" smooth="yes"/>
      <point x="343" y="-13" type="line"/>
    </contour>
  </outline>
</glyph>
<glyph name="sigma" format="1">
  <advance width="583"/>
  <unicode hex="03C3"/>
  <outline>
    <contour>
      <point x="558" y="446" type="line" name="hr00"/>
      <point x="558" y="516" type="line"/>
      <point x="292" y="516" type="line" smooth="yes"/>
      <point x="134" y="516"/>
      <point x="47" y="410"/>
      <point x="47" y="252" type="curve" smooth="yes"/>
      <point x="47" y="94"/>
      <point x="142" y="-12"/>
      <point x="280" y="-12" type="curve" smooth="yes"/>
      <point x="418" y="-12"/>
      <point x="513" y="94"/>
      <point x="513" y="252" type="curve" smooth="yes"/>
      <point x="513" y="349"/>
      <point x="486" y="408"/>
      <point x="420" y="439" type="curve"/>
      <point x="420" y="446" type="line"/>
    </contour>
    <contour>
      <point x="362" y="446" type="line"/>
      <point x="406" y="401"/>
      <point x="427" y="356"/>
      <point x="427" y="283" type="curve" smooth="yes"/>
      <point x="427" y="221" type="line" smooth="yes"/>
      <point x="427" y="112"/>
      <point x="366" y="59"/>
      <point x="280" y="59" type="curve" smooth="yes"/>
      <point x="194" y="59"/>
      <point x="133" y="112"/>
      <point x="133" y="221" type="curve" smooth="yes"/>
      <point x="133" y="283" type="line" smooth="yes"/>
      <point x="133" y="392"/>
      <point x="194" y="446"/>
      <point x="292" y="446" type="curve" smooth="yes"/>
    </contour>
  </outline>
</glyph>
<glyph name="tau" format="1">
  <advance width="477"/>
  <unicode hex="03C4"/>
  <outline>
    <contour>
      <point x="383" y="0" type="line" name="hr00"/>
      <point x="383" y="70" type="line"/>
      <point x="268" y="70" type="line"/>
      <point x="268" y="446" type="line"/>
      <point x="445" y="446" type="line"/>
      <point x="445" y="516" type="line"/>
      <point x="20" y="516" type="line"/>
      <point x="20" y="446" type="line"/>
      <point x="188" y="446" type="line"/>
      <point x="188" y="85" type="line" smooth="yes"/>
      <point x="188" y="35"/>
      <point x="218" y="0"/>
      <point x="273" y="0" type="curve" smooth="yes"/>
    </contour>
  </outline>
</glyph>
<glyph name="upsilon" format="1">
  <advance width="568"/>
  <unicode hex="03C5"/>
  <outline>
    <contour>
      <point x="160" y="516" type="line" name="hr00"/>
      <point x="80" y="516" type="line"/>
      <point x="80" y="246" type="line" smooth="yes"/>
      <point x="80" y="68"/>
      <point x="149" y="-12"/>
      <point x="284" y="-12" type="curve" smooth="yes"/>
      <point x="419" y="-12"/>
      <point x="488" y="68"/>
      <point x="488" y="246" type="curve" smooth="yes"/>
      <point x="488" y="516" type="line"/>
      <point x="408" y="516" type="line"/>
      <point x="408" y="234" type="line" smooth="yes"/>
      <point x="408" y="114"/>
      <point x="372" y="59"/>
      <point x="284" y="59" type="curve" smooth="yes"/>
      <point x="196" y="59"/>
      <point x="160" y="114"/>
      <point x="160" y="234" type="curve" smooth="yes"/>
    </contour>
    <contour>
      <point x="284" y="540" type="move" name="top"/>
    </contour>
  </outline>
</glyph>
<glyph name="phi" format="1">
  <advance width="715"/>
  <unicode hex="03C6"/>
  <outline>
    <contour>
      <point x="307" y="-200" type="line" name="hr00"/>
      <point x="387" y="-200" type="line"/>
      <point x="387" y="-12" type="line"/>
      <point x="559" y="-12"/>
      <point x="663" y="88"/>
      <point x="663" y="274" type="curve" smooth="yes"/>
      <point x="663" y="453"/>
      <point x="600" y="528"/>
      <point x="482" y="528" type="curve" smooth="yes"/>
      <point x="370" y="528"/>
      <point x="307" y="453"/>
      <point x="307" y="274" type="curve" smooth="yes"/>
      <point x="307" y="59" type="line"/>
      <point x="213" y="59"/>
      <point x="136" y="111"/>
      <point x="136" y="230" type="curve" smooth="yes"/>
      <point x="136" y="269" type="line" smooth="yes"/>
      <point x="136" y="377"/>
      <point x="168" y="436"/>
      <point x="240" y="472" type="curve"/>
      <point x="195" y="528" type="line"/>
      <point x="103" y="484"/>
      <point x="50" y="392"/>
      <point x="50" y="250" type="curve" smooth="yes"/>
      <point x="50" y="92"/>
      <point x="159" y="-12"/>
      <point x="307" y="-12" type="curve"/>
    </contour>
    <contour>
      <point x="387" y="299" type="line" smooth="yes"/>
      <point x="387" y="418"/>
      <point x="423" y="457"/>
      <point x="482" y="457" type="curve" smooth="yes"/>
      <point x="541" y="457"/>
      <point x="577" y="418"/>
      <point x="577" y="299" type="curve" smooth="yes"/>
      <point x="577" y="230" type="line" smooth="yes"/>
      <point x="577" y="106"/>
      <point x="501" y="59"/>
      <point x="387" y="59" type="curve"/>
    </contour>
  </outline>
</glyph>
<glyph name="chi" format="1">
  <advance width="496"/>
  <unicode hex="03C7"/>
  <outline>
    <contour>
      <point x="12" y="516" type="line" name="hr00"/>
      <point x="12" y="446" type="line"/>
      <point x="81" y="446" type="line"/>
      <point x="202" y="167" type="line"/>
      <point x="17" y="-200" type="line"/>
      <point x="105" y="-200" type="line"/>
      <point x="245" y="99" type="line"/>
      <point x="248" y="99" type="line"/>
      <point x="348" y="-143" type="line" smooth="yes"/>
      <point x="365" y="-185"/>
      <point x="386" y="-200"/>
      <point x="434" y="-200" type="curve" smooth="yes"/>
      <point x="494" y="-200" type="line"/>
      <point x="494" y="-130" type="line"/>
      <point x="425" y="-130" type="line"/>
      <point x="297" y="172" type="line"/>
      <point x="476" y="516" type="line"/>
      <point x="388" y="516" type="line"/>
      <point x="254" y="240" type="line"/>
      <point x="251" y="240" type="line"/>
      <point x="158" y="459" type="line" smooth="yes"/>
      <point x="140" y="502"/>
      <point x="120" y="516"/>
      <point x="72" y="516" type="curve" smooth="yes"/>
    </contour>
  </outline>
</glyph>
<glyph name="psi" format="1">
  <advance width="726"/>
  <unicode hex="03C8"/>
  <outline>
    <contour>
      <point x="403" y="-200" type="line" name="hr00"/>
      <point x="403" y="-12" type="line"/>
      <point x="559" y="-12"/>
      <point x="646" y="88"/>
      <point x="646" y="258" type="curve" smooth="yes"/>
      <point x="646" y="516" type="line"/>
      <point x="566" y="516" type="line"/>
      <point x="566" y="234" type="line" smooth="yes"/>
      <point x="566" y="120"/>
      <point x="513" y="59"/>
      <point x="403" y="59" type="curve"/>
      <point x="403" y="710" type="line"/>
      <point x="323" y="710" type="line"/>
      <point x="323" y="59" type="line"/>
      <point x="213" y="59"/>
      <point x="160" y="120"/>
      <point x="160" y="234" type="curve" smooth="yes"/>
      <point x="160" y="516" type="line"/>
      <point x="80" y="516" type="line"/>
      <point x="80" y="258" type="line" smooth="yes"/>
      <point x="80" y="88"/>
      <point x="167" y="-12"/>
      <point x="323" y="-12" type="curve"/>
      <point x="323" y="-200" type="line"/>
    </contour>
  </outline>
</glyph>
<glyph name="omega" format="1">
  <advance width="736"/>
  <unicode hex="03C9"/>
  <outline>
    <contour>
      <point x="408" y="349" type="line" name="hr00"/>
      <point x="328" y="349" type="line"/>
      <point x="328" y="217" type="line" smooth="yes"/>
      <point x="328" y="98"/>
      <point x="292" y="59"/>
      <point x="233" y="59" type="curve" smooth="yes"/>
      <point x="174" y="59"/>
      <point x="138" y="98"/>
      <point x="138" y="217" type="curve" smooth="yes"/>
      <point x="138" y="269" type="line" smooth="yes"/>
      <point x="138" y="377"/>
      <point x="170" y="436"/>
      <point x="242" y="472" type="curve"/>
      <point x="197" y="528" type="line"/>
      <point x="105" y="484"/>
      <point x="52" y="392"/>
      <point x="52" y="242" type="curve" smooth="yes"/>
      <point x="52" y="63"/>
      <point x="120" y="-12"/>
      <point x="223" y="-12" type="curve" smooth="yes"/>
      <point x="305" y="-12"/>
      <point x="350" y="40"/>
      <point x="366" y="115" type="curve"/>
      <point x="370" y="115" type="line"/>
      <point x="386" y="40"/>
      <point x="431" y="-12"/>
      <point x="513" y="-12" type="curve" smooth="yes"/>
      <point x="616" y="-12"/>
      <point x="684" y="63"/>
      <point x="684" y="242" type="curve" smooth="yes"/>
      <point x="684" y="398"/>
      <point x="632" y="485"/>
      <point x="539" y="528" type="curve"/>
      <point x="494" y="472" type="line"/>
      <point x="564" y="438"/>
      <point x="598" y="370"/>
      <point x="598" y="269" type="curve" smooth="yes"/>
      <point x="598" y="217" type="line" smooth="yes"/>
      <point x="598" y="98"/>
      <point x="562" y="59"/>
      <point x="503" y="59" type="curve" smooth="yes"/>
      <point x="444" y="59"/>
      <point x="408" y="98"/>
      <point x="408" y="217" type="curve" smooth="yes"/>
    </contour>
    <contour>
      <point x="368" y="540" type="move" name="top"/>
    </contour>
  </outline>
</glyph>
<glyph name="uni0402" format="1">
  <advance width="786"/>
  <unicode hex="0402"/>
  <outline>
    <contour>
      <point x="509" y="-164" type="line" name="hr00"/>
      <point x="555" y="-164" type="line" smooth="yes"/>
      <point x="667" y="-164"/>
      <point x="728" y="-96"/>
      <point x="728" y="64" type="curve" smooth="yes"/>
      <point x="728" y="190" type="line" smooth="yes"/>
      <point x="728" y="358"/>
      <point x="649" y="438"/>
      <point x="482" y="438" type="curve" smooth="yes"/>
      <point x="424" y="438"/>
      <point x="369" y="429"/>
      <point x="333" y="415" type="curve"/>
      <point x="328" y="415" type="line"/>
      <point x="328" y="624" type="line"/>
      <point x="550" y="624" type="line"/>
      <point x="550" y="698" type="line"/>
      <point x="22" y="698" type="line"/>
      <point x="22" y="624" type="line"/>
      <point x="244" y="624" type="line"/>
      <point x="244" y="0" type="line"/>
      <point x="328" y="0" type="line"/>
      <point x="328" y="341" type="line"/>
      <point x="362" y="355"/>
      <point x="417" y="364"/>
      <point x="479" y="364" type="curve" smooth="yes"/>
      <point x="587" y="364"/>
      <point x="644" y="312"/>
      <point x="644" y="190" type="curve" smooth="yes"/>
      <point x="644" y="64" type="line" smooth="yes"/>
      <point x="644" y="-20"/>
      <point x="625" y="-64"/>
      <point x="593" y="-90" type="curve"/>
      <point x="509" y="-90" type="line"/>
    </contour>
  </outline>
</glyph>
<glyph name="uni0404" format="1">
  <advance width="631"/>
  <unicode hex="0404"/>
  <outline>
    <contour>
      <point x="344" y="-12" type="curve" smooth="yes" name="hr00"/>
      <point x="467" y="-12"/>
      <point x="550" y="49"/>
      <point x="594" y="147" type="curve"/>
      <point x="527" y="189" type="line"/>
      <point x="499" y="113"/>
      <point x="440" y="63"/>
      <point x="344" y="63" type="curve" smooth="yes"/>
      <point x="217" y="63"/>
      <point x="148" y="150"/>
      <point x="148" y="293" type="curve" smooth="yes"/>
      <point x="148" y="316" type="line"/>
      <point x="442" y="316" type="line"/>
      <point x="442" y="390" type="line"/>
      <point x="148" y="390" type="line"/>
      <point x="148" y="397" type="line" smooth="yes"/>
      <point x="148" y="540"/>
      <point x="217" y="635"/>
      <point x="344" y="635" type="curve" smooth="yes"/>
      <point x="437" y="635"/>
      <point x="493" y="588"/>
      <point x="521" y="516" type="curve"/>
      <point x="589" y="557" type="line"/>
      <point x="545" y="654"/>
      <point x="467" y="710"/>
      <point x="344" y="710" type="curve" smooth="yes"/>
      <point x="161" y="710"/>
      <point x="58" y="578"/>
      <point x="58" y="345" type="curve" smooth="yes"/>
      <point x="58" y="112"/>
      <point x="161" y="-12"/>
    </contour>
  </outline>
</glyph>
<glyph name="uni0409" format="1">
  <advance width="1014"/>
  <unicode hex="0409"/>
  <outline>
    <contour>
      <point x="10" y="0" type="line" name="hr00"/>
      <point x="46" y="0" type="line" smooth="yes"/>
      <point x="94" y="0"/>
      <point x="127" y="13"/>
      <point x="155" y="41" type="curve" smooth="yes"/>
      <point x="216" y="102"/>
      <point x="251" y="210"/>
      <point x="251" y="499" type="curve" smooth="yes"/>
      <point x="251" y="624" type="line"/>
      <point x="487" y="624" type="line"/>
      <point x="487" y="0" type="line"/>
      <point x="779" y="0" type="line" smooth="yes"/>
      <point x="904" y="0"/>
      <point x="974" y="77"/>
      <point x="974" y="209" type="curve" smooth="yes"/>
      <point x="974" y="341"/>
      <point x="904" y="418"/>
      <point x="779" y="418" type="curve" smooth="yes"/>
      <point x="571" y="418" type="line"/>
      <point x="571" y="698" type="line"/>
      <point x="171" y="698" type="line"/>
      <point x="171" y="505" type="line" smooth="yes"/>
      <point x="171" y="228"/>
      <point x="144" y="134"/>
      <point x="82" y="74" type="curve"/>
      <point x="10" y="74" type="line"/>
    </contour>
    <contour>
      <point x="571" y="74" type="line"/>
      <point x="571" y="344" type="line"/>
      <point x="779" y="344" type="line" smooth="yes"/>
      <point x="845" y="344"/>
      <point x="884" y="308"/>
      <point x="884" y="235" type="curve" smooth="yes"/>
      <point x="884" y="183" type="line" smooth="yes"/>
      <point x="884" y="110"/>
      <point x="845" y="74"/>
      <point x="779" y="74" type="curve" smooth="yes"/>
    </contour>
  </outline>
</glyph>
<glyph name="uni040A" format="1">
  <advance width="1037"/>
  <unicode hex="040A"/>
  <outline>
    <contour>
      <point x="93" y="0" type="line"/>
      <point x="177" y="0" type="line"/>
      <point x="177" y="316" type="line"/>
      <point x="510" y="316" type="line"/>
      <point x="510" y="0" type="line"/>
      <point x="802" y="0" type="line" smooth="yes"/>
      <point x="927" y="0"/>
      <point x="997" y="77"/>
      <point x="997" y="209" type="curve" smooth="yes"/>
      <point x="997" y="341"/>
      <point x="927" y="418"/>
      <point x="802" y="418" type="curve" smooth="yes" name="hr01"/>
      <point x="594" y="418" type="line"/>
      <point x="594" y="698" type="line"/>
      <point x="510" y="698" type="line"/>
      <point x="510" y="390" type="line" name="hr02"/>
      <point x="177" y="390" type="line"/>
      <point x="177" y="698" type="line"/>
      <point x="93" y="698" type="line"/>
    </contour>
    <contour>
      <point x="594" y="74" type="line"/>
      <point x="594" y="344" type="line" name="hr03"/>
      <point x="802" y="344" type="line" smooth="yes"/>
      <point x="868" y="344"/>
      <point x="907" y="308"/>
      <point x="907" y="235" type="curve" smooth="yes"/>
      <point x="907" y="183" type="line" smooth="yes"/>
      <point x="907" y="110"/>
      <point x="868" y="74"/>
      <point x="802" y="74" type="curve" smooth="yes"/>
    </contour>
  </outline>
</glyph>
<glyph name="uni040B" format="1">
  <advance width="796"/>
  <unicode hex="040B"/>
  <outline>
    <contour>
      <point x="244" y="0" type="line" name="hr00"/>
      <point x="328" y="0" type="line"/>
      <point x="328" y="341" type="line"/>
      <point x="362" y="355"/>
      <point x="418" y="364"/>
      <point x="484" y="364" type="curve" smooth="yes"/>
      <point x="597" y="364"/>
      <point x="654" y="312"/>
      <point x="654" y="190" type="curve" smooth="yes"/>
      <point x="654" y="0" type="line"/>
      <point x="738" y="0" type="line"/>
      <point x="738" y="190" type="line" smooth="yes"/>
      <point x="738" y="358"/>
      <point x="659" y="438"/>
      <point x="487" y="438" type="curve" smooth="yes"/>
      <point x="425" y="438"/>
      <point x="369" y="429"/>
      <point x="333" y="415" type="curve"/>
      <point x="328" y="415" type="line"/>
      <point x="328" y="624" type="line"/>
      <point x="550" y="624" type="line"/>
      <point x="550" y="698" type="line"/>
      <point x="22" y="698" type="line"/>
      <point x="22" y="624" type="line"/>
      <point x="244" y="624" type="line"/>
    </contour>
  </outline>
</glyph>
<glyph name="uni040F" format="1">
  <advance width="693"/>
  <unicode hex="040F"/>
  <outline>
    <contour>
      <point x="308" y="-150" type="line" name="hr00"/>
      <point x="385" y="-150" type="line"/>
      <point x="385" y="0" type="line"/>
      <point x="600" y="0" type="line"/>
      <point x="600" y="698" type="line"/>
      <point x="516" y="698" type="line"/>
      <point x="516" y="74" type="line"/>
      <point x="177" y="74" type="line"/>
      <point x="177" y="698" type="line"/>
      <point x="93" y="698" type="line"/>
      <point x="93" y="0" type="line"/>
      <point x="308" y="0" type="line"/>
    </contour>
  </outline>
</glyph>
<glyph name="uni0411" format="1">
  <advance width="636"/>
  <unicode hex="0411"/>
  <outline>
    <contour>
      <point x="93" y="0" type="line" name="hr00"/>
      <point x="385" y="0" type="line" smooth="yes"/>
      <point x="510" y="0"/>
      <point x="580" y="77"/>
      <point x="580" y="209" type="curve" smooth="yes"/>
      <point x="580" y="341"/>
      <point x="510" y="418"/>
      <point x="385" y="418" type="curve" smooth="yes"/>
      <point x="177" y="418" type="line"/>
      <point x="177" y="624" type="line"/>
      <point x="520" y="624" type="line"/>
      <point x="520" y="698" type="line"/>
      <point x="93" y="698" type="line"/>
    </contour>
    <contour>
      <point x="177" y="74" type="line"/>
      <point x="177" y="344" type="line"/>
      <point x="385" y="344" type="line" smooth="yes"/>
      <point x="451" y="344"/>
      <point x="490" y="308"/>
      <point x="490" y="235" type="curve" smooth="yes"/>
      <point x="490" y="183" type="line" smooth="yes"/>
      <point x="490" y="110"/>
      <point x="451" y="74"/>
      <point x="385" y="74" type="curve" smooth="yes"/>
    </contour>
  </outline>
</glyph>
<glyph name="uni0413" format="1">
  <advance width="499"/>
  <unicode hex="0413"/>
  <outline>
    <contour>
      <point x="93" y="0" type="line" name=""/>
      <point x="177" y="0" type="line"/>
      <point x="177" y="624" type="line"/>
      <point x="473" y="624" type="line"/>
      <point x="473" y="698" type="line"/>
      <point x="93" y="698" type="line"/>
    </contour>
    <contour>
      <point x="280.0" y="698.0" type="move" name="top"/>
    </contour>
  </outline>
</glyph>
<glyph name="uni0414" format="1">
  <advance width="726"/>
  <unicode hex="0414"/>
  <outline>
    <contour>
      <point x="10" y="-150" type="line" name="hr00"/>
      <point x="87" y="-150" type="line"/>
      <point x="87" y="0" type="line"/>
      <point x="617" y="0" type="line"/>
      <point x="617" y="-150" type="line"/>
      <point x="694" y="-150" type="line"/>
      <point x="694" y="74" type="line"/>
      <point x="596" y="74" type="line"/>
      <point x="596" y="698" type="line"/>
      <point x="176" y="698" type="line"/>
      <point x="176" y="493" type="line" smooth="yes"/>
      <point x="176" y="286"/>
      <point x="143" y="160"/>
      <point x="83" y="74" type="curve"/>
      <point x="10" y="74" type="line"/>
    </contour>
    <contour>
      <point x="181" y="74" type="line"/>
      <point x="181" y="79" type="line"/>
      <point x="227" y="151"/>
      <point x="256" y="275"/>
      <point x="256" y="487" type="curve" smooth="yes"/>
      <point x="256" y="624" type="line"/>
      <point x="512" y="624" type="line"/>
      <point x="512" y="74" type="line"/>
    </contour>
  </outline>
</glyph>
<glyph name="uni0416" format="1">
  <advance width="978"/>
  <unicode hex="0416"/>
  <outline>
    <contour>
      <point x="42" y="0" type="line" name="hr00"/>
      <point x="106" y="0" type="line" smooth="yes"/>
      <point x="144" y="0"/>
      <point x="170" y="18"/>
      <point x="198" y="73" type="curve" smooth="yes"/>
      <point x="324" y="317" type="line"/>
      <point x="447" y="317" type="line"/>
      <point x="447" y="0" type="line"/>
      <point x="531" y="0" type="line"/>
      <point x="531" y="317" type="line"/>
      <point x="654" y="317" type="line"/>
      <point x="778" y="73" type="line" smooth="yes"/>
      <point x="806" y="18"/>
      <point x="834" y="0"/>
      <point x="872" y="0" type="curve" smooth="yes"/>
      <point x="936" y="0" type="line"/>
      <point x="936" y="74" type="line"/>
      <point x="873" y="74" type="line"/>
      <point x="767" y="283" type="line" smooth="yes"/>
      <point x="744" y="328"/>
      <point x="722" y="343"/>
      <point x="692" y="351" type="curve"/>
      <point x="692" y="356" type="line"/>
      <point x="718" y="364"/>
      <point x="738" y="381"/>
      <point x="757" y="421" type="curve" smooth="yes"/>
      <point x="853" y="624" type="line"/>
      <point x="916" y="624" type="line"/>
      <point x="916" y="698" type="line"/>
      <point x="864" y="698" type="line" smooth="yes"/>
      <point x="822" y="698"/>
      <point x="791" y="679"/>
      <point x="766" y="626" type="curve" smooth="yes"/>
      <point x="654" y="389" type="line"/>
      <point x="531" y="389" type="line"/>
      <point x="531" y="698" type="line"/>
      <point x="447" y="698" type="line"/>
      <point x="447" y="389" type="line"/>
      <point x="324" y="389" type="line"/>
      <point x="214" y="626" type="line" smooth="yes"/>
      <point x="189" y="679"/>
      <point x="156" y="698"/>
      <point x="114" y="698" type="curve" smooth="yes"/>
      <point x="62" y="698" type="line"/>
      <point x="62" y="624" type="line"/>
      <point x="125" y="624" type="line"/>
      <point x="219" y="421" type="line" smooth="yes"/>
      <point x="238" y="381"/>
      <point x="260" y="364"/>
      <point x="286" y="356" type="curve"/>
      <point x="286" y="351" type="line"/>
      <point x="256" y="343"/>
      <point x="236" y="328"/>
      <point x="213" y="283" type="curve" smooth="yes"/>
      <point x="105" y="74" type="line"/>
      <point x="42" y="74" type="line"/>
    </contour>
    <contour>
      <point x="489" y="698" type="move" name="top"/>
    </contour>
  </outline>
</glyph>
<glyph name="uni0417" format="1">
  <advance width="593"/>
  <unicode hex="0417"/>
  <outline>
    <contour>
      <point x="281" y="-12" type="curve" smooth="yes"/>
      <point x="437" y="-12"/>
      <point x="530" y="70"/>
      <point x="530" y="193" type="curve" smooth="yes"/>
      <point x="530" y="298"/>
      <point x="463" y="347"/>
      <point x="381" y="357" type="curve"/>
      <point x="381" y="362" type="line"/>
      <point x="463" y="379"/>
      <point x="514" y="432"/>
      <point x="514" y="527" type="curve" smooth="yes" name="hr01"/>
      <point x="514" y="637"/>
      <point x="439" y="710"/>
      <point x="288" y="710" type="curve" smooth="yes"/>
      <point x="174" y="710"/>
      <point x="108" y="669"/>
      <point x="58" y="597" type="curve"/>
      <point x="123" y="555" type="line"/>
      <point x="155" y="603"/>
      <point x="204" y="635"/>
      <point x="288" y="635" type="curve" smooth="yes"/>
      <point x="380" y="635"/>
      <point x="424" y="595"/>
      <point x="424" y="528" type="curve" smooth="yes"/>
      <point x="424" y="514" type="line" smooth="yes"/>
      <point x="424" y="434"/>
      <point x="382" y="394"/>
      <point x="284" y="394" type="curve" smooth="yes"/>
      <point x="185" y="394" type="line"/>
      <point x="185" y="320" type="line"/>
      <point x="290" y="320" type="line" smooth="yes"/>
      <point x="394" y="320"/>
      <point x="440" y="273"/>
      <point x="440" y="201" type="curve" smooth="yes" name="hr02"/>
      <point x="440" y="188" type="line" smooth="yes"/>
      <point x="440" y="103"/>
      <point x="381" y="63"/>
      <point x="281" y="63" type="curve" smooth="yes"/>
      <point x="196" y="63"/>
      <point x="140" y="99"/>
      <point x="98" y="161" type="curve"/>
      <point x="37" y="112" type="line"/>
      <point x="89" y="36"/>
      <point x="168" y="-12"/>
    </contour>
    <contour>
      <point x="288" y="698" type="move" name="top"/>
    </contour>
  </outline>
</glyph>
<glyph name="uni0418" format="1">
  <advance width="707"/>
  <unicode hex="0418"/>
  <outline>
    <contour>
      <point x="93" y="0" type="line" name="hr00"/>
      <point x="169" y="0" type="line"/>
      <point x="467" y="455" type="line"/>
      <point x="537" y="581" type="line"/>
      <point x="540" y="581" type="line"/>
      <point x="532" y="438" type="line"/>
      <point x="532" y="0" type="line"/>
      <point x="614" y="0" type="line"/>
      <point x="614" y="698" type="line"/>
      <point x="538" y="698" type="line"/>
      <point x="240" y="243" type="line"/>
      <point x="170" y="117" type="line"/>
      <point x="167" y="117" type="line"/>
      <point x="175" y="260" type="line"/>
      <point x="175" y="698" type="line"/>
      <point x="93" y="698" type="line"/>
    </contour>
    <contour>
      <point x="352" y="698" type="move" name="top"/>
    </contour>
  </outline>
</glyph>
<glyph name="uni041A" format="1">
  <advance width="662"/>
  <unicode hex="041A"/>
  <outline>
    <contour>
      <point x="93" y="0" type="line" name="hr00"/>
      <point x="177" y="0" type="line"/>
      <point x="177" y="317" type="line"/>
      <point x="313" y="317" type="line"/>
      <point x="467" y="65" type="line" smooth="yes"/>
      <point x="498" y="14"/>
      <point x="526" y="0"/>
      <point x="558" y="0" type="curve" smooth="yes"/>
      <point x="620" y="0" type="line"/>
      <point x="620" y="74" type="line"/>
      <point x="559" y="74" type="line"/>
      <point x="429" y="287" type="line" smooth="yes"/>
      <point x="403" y="333"/>
      <point x="382" y="345"/>
      <point x="352" y="351" type="curve"/>
      <point x="352" y="356" type="line"/>
      <point x="376" y="364"/>
      <point x="386" y="372"/>
      <point x="411" y="412" type="curve" smooth="yes"/>
      <point x="535" y="624" type="line"/>
      <point x="598" y="624" type="line"/>
      <point x="598" y="698" type="line"/>
      <point x="552" y="698" type="line" smooth="yes"/>
      <point x="510" y="698"/>
      <point x="483" y="679"/>
      <point x="453" y="628" type="curve" smooth="yes"/>
      <point x="313" y="389" type="line"/>
      <point x="177" y="389" type="line"/>
      <point x="177" y="698" type="line"/>
      <point x="93" y="698" type="line"/>
    </contour>
    <contour>
      <point x="321" y="698" type="move" name="top"/>
    </contour>
  </outline>
</glyph>
<glyph name="uni041B" format="1">
  <advance width="684"/>
  <unicode hex="041B"/>
  <outline>
    <contour>
      <point x="10" y="0" type="line" name="hr00"/>
      <point x="46" y="0" type="line" smooth="yes"/>
      <point x="94" y="0"/>
      <point x="127" y="13"/>
      <point x="155" y="41" type="curve" smooth="yes"/>
      <point x="216" y="102"/>
      <point x="251" y="210"/>
      <point x="251" y="499" type="curve" smooth="yes"/>
      <point x="251" y="624" type="line"/>
      <point x="507" y="624" type="line"/>
      <point x="507" y="0" type="line"/>
      <point x="591" y="0" type="line"/>
      <point x="591" y="698" type="line"/>
      <point x="171" y="698" type="line"/>
      <point x="171" y="505" type="line" smooth="yes"/>
      <point x="171" y="228"/>
      <point x="144" y="134"/>
      <point x="82" y="74" type="curve"/>
      <point x="10" y="74" type="line"/>
    </contour>
  </outline>
</glyph>
<glyph name="uni041F" format="1">
  <advance width="693"/>
  <unicode hex="041F"/>
  <outline>
    <contour>
      <point x="93" y="0" type="line" name="hr00"/>
      <point x="177" y="0" type="line"/>
      <point x="177" y="624" type="line"/>
      <point x="516" y="624" type="line"/>
      <point x="516" y="0" type="line"/>
      <point x="600" y="0" type="line"/>
      <point x="600" y="698" type="line"/>
      <point x="93" y="698" type="line"/>
    </contour>
  </outline>
</glyph>
<glyph name="uni0423" format="1">
  <advance width="595"/>
  <unicode hex="0423"/>
  <outline>
    <contour>
      <point x="144" y="0" type="line" name="hr00"/>
      <point x="199" y="0" type="line" smooth="yes"/>
      <point x="275" y="0"/>
      <point x="302" y="17"/>
      <point x="331" y="89" type="curve" smooth="yes"/>
      <point x="575" y="698" type="line"/>
      <point x="489" y="698" type="line"/>
      <point x="363" y="382" type="line"/>
      <point x="319" y="259" type="line"/>
      <point x="314" y="259" type="line"/>
      <point x="262" y="380" type="line"/>
      <point x="111" y="698" type="line"/>
      <point x="20" y="698" type="line"/>
      <point x="278" y="157" type="line"/>
      <point x="245" y="74" type="line"/>
      <point x="144" y="74" type="line"/>
    </contour>
    <contour>
      <point x="307" y="698" type="move" name="top"/>
    </contour>
  </outline>
</glyph>
<glyph name="uni0424" format="1">
  <advance width="844"/>
  <unicode hex="0424"/>
  <outline>
    <contour>
      <point x="380" y="-29" type="line" name="hr00"/>
      <point x="464" y="-29" type="line"/>
      <point x="464" y="61" type="line"/>
      <point x="494" y="61" type="line" smooth="yes"/>
      <point x="683" y="61"/>
      <point x="794" y="184"/>
      <point x="794" y="348" type="curve" smooth="yes"/>
      <point x="794" y="512"/>
      <point x="683" y="635"/>
      <point x="494" y="635" type="curve" smooth="yes"/>
      <point x="464" y="635" type="line"/>
      <point x="464" y="725" type="line"/>
      <point x="380" y="725" type="line"/>
      <point x="380" y="635" type="line"/>
      <point x="350" y="635" type="line" smooth="yes"/>
      <point x="161" y="635"/>
      <point x="50" y="512"/>
      <point x="50" y="348" type="curve" smooth="yes"/>
      <point x="50" y="184"/>
      <point x="160" y="61"/>
      <point x="349" y="61" type="curve" smooth="yes"/>
      <point x="380" y="61" type="line"/>
    </contour>
    <contour>
      <point x="349" y="131" type="line" smooth="yes"/>
      <point x="224" y="131"/>
      <point x="140" y="211"/>
      <point x="140" y="317" type="curve" smooth="yes"/>
      <point x="140" y="379" type="line" smooth="yes"/>
      <point x="140" y="485"/>
      <point x="225" y="565"/>
      <point x="350" y="565" type="curve" smooth="yes"/>
      <point x="382" y="565" type="line"/>
      <point x="382" y="131" type="line"/>
    </contour>
    <contour>
      <point x="462" y="131" type="line"/>
      <point x="462" y="565" type="line"/>
      <point x="494" y="565" type="line" smooth="yes"/>
      <point x="619" y="565"/>
      <point x="704" y="485"/>
      <point x="704" y="379" type="curve" smooth="yes"/>
      <point x="704" y="317" type="line" smooth="yes"/>
      <point x="704" y="211"/>
      <point x="619" y="131"/>
      <point x="494" y="131" type="curve" smooth="yes"/>
    </contour>
  </outline>
</glyph>
<glyph name="uni0426" format="1">
  <advance width="730"/>
  <unicode hex="0426"/>
  <outline>
    <contour>
      <point x="621" y="-150" type="line" name="hr00"/>
      <point x="698" y="-150" type="line"/>
      <point x="698" y="74" type="line"/>
      <point x="600" y="74" type="line"/>
      <point x="600" y="698" type="line"/>
      <point x="516" y="698" type="line"/>
      <point x="516" y="74" type="line"/>
      <point x="177" y="74" type="line"/>
      <point x="177" y="698" type="line"/>
      <point x="93" y="698" type="line"/>
      <point x="93" y="0" type="line"/>
      <point x="621" y="0" type="line"/>
    </contour>
  </outline>
</glyph>
<glyph name="uni0427" format="1">
  <advance width="645"/>
  <unicode hex="0427"/>
  <outline>
    <contour>
      <point x="468" y="0" type="line" name="hr00"/>
      <point x="552" y="0" type="line"/>
      <point x="552" y="698" type="line"/>
      <point x="468" y="698" type="line"/>
      <point x="468" y="349" type="line"/>
      <point x="434" y="335"/>
      <point x="378" y="326"/>
      <point x="312" y="326" type="curve" smooth="yes"/>
      <point x="199" y="326"/>
      <point x="142" y="378"/>
      <point x="142" y="500" type="curve" smooth="yes"/>
      <point x="142" y="698" type="line"/>
      <point x="58" y="698" type="line"/>
      <point x="58" y="500" type="line" smooth="yes"/>
      <point x="58" y="332"/>
      <point x="137" y="252"/>
      <point x="309" y="252" type="curve" smooth="yes"/>
      <point x="371" y="252"/>
      <point x="427" y="261"/>
      <point x="463" y="275" type="curve"/>
      <point x="468" y="275" type="line"/>
    </contour>
    <contour>
      <point x="305" y="698" type="move" name="top"/>
    </contour>
  </outline>
</glyph>
<glyph name="uni0428" format="1">
  <advance width="956"/>
  <unicode hex="0428"/>
  <outline>
    <contour>
      <point x="93" y="0" type="line" name="hr00"/>
      <point x="863" y="0" type="line"/>
      <point x="863" y="698" type="line"/>
      <point x="779" y="698" type="line"/>
      <point x="779" y="74" type="line"/>
      <point x="520" y="74" type="line"/>
      <point x="520" y="698" type="line"/>
      <point x="436" y="698" type="line"/>
      <point x="436" y="74" type="line"/>
      <point x="177" y="74" type="line"/>
      <point x="177" y="698" type="line"/>
      <point x="93" y="698" type="line"/>
    </contour>
  </outline>
</glyph>
<glyph name="uni0429" format="1">
  <advance width="993"/>
  <unicode hex="0429"/>
  <outline>
    <contour>
      <point x="884" y="-150" type="line" name="hr00"/>
      <point x="961" y="-150" type="line"/>
      <point x="961" y="74" type="line"/>
      <point x="863" y="74" type="line"/>
      <point x="863" y="698" type="line"/>
      <point x="779" y="698" type="line"/>
      <point x="779" y="74" type="line"/>
      <point x="520" y="74" type="line"/>
      <point x="520" y="698" type="line"/>
      <point x="436" y="698" type="line"/>
      <point x="436" y="74" type="line"/>
      <point x="177" y="74" type="line"/>
      <point x="177" y="698" type="line"/>
      <point x="93" y="698" type="line"/>
      <point x="93" y="0" type="line"/>
      <point x="884" y="0" type="line"/>
    </contour>
  </outline>
</glyph>
<glyph name="uni042A" format="1">
  <advance width="741"/>
  <unicode hex="042A"/>
  <outline>
    <contour>
      <point x="204" y="0" type="line" name="hr00"/>
      <point x="506" y="0" type="line" smooth="yes"/>
      <point x="631" y="0"/>
      <point x="701" y="77"/>
      <point x="701" y="209" type="curve" smooth="yes"/>
      <point x="701" y="341"/>
      <point x="631" y="418"/>
      <point x="506" y="418" type="curve" smooth="yes"/>
      <point x="288" y="418" type="line"/>
      <point x="288" y="698" type="line"/>
      <point x="22" y="698" type="line"/>
      <point x="22" y="624" type="line"/>
      <point x="204" y="624" type="line"/>
    </contour>
    <contour>
      <point x="288" y="74" type="line"/>
      <point x="288" y="344" type="line"/>
      <point x="506" y="344" type="line" smooth="yes"/>
      <point x="572" y="344"/>
      <point x="611" y="308"/>
      <point x="611" y="235" type="curve" smooth="yes"/>
      <point x="611" y="183" type="line" smooth="yes"/>
      <point x="611" y="110"/>
      <point x="572" y="74"/>
      <point x="506" y="74" type="curve" smooth="yes"/>
    </contour>
  </outline>
</glyph>
<glyph name="uni042B" format="1">
  <advance width="875"/>
  <unicode hex="042B"/>
  <outline>
    <contour>
      <point x="93" y="0" type="line" name="hr00"/>
      <point x="385" y="0" type="line" smooth="yes"/>
      <point x="510" y="0"/>
      <point x="580" y="77"/>
      <point x="580" y="209" type="curve" smooth="yes"/>
      <point x="580" y="341"/>
      <point x="510" y="418"/>
      <point x="385" y="418" type="curve" smooth="yes"/>
      <point x="177" y="418" type="line"/>
      <point x="177" y="698" type="line"/>
      <point x="93" y="698" type="line"/>
    </contour>
    <contour>
      <point x="177" y="74" type="line"/>
      <point x="177" y="344" type="line"/>
      <point x="385" y="344" type="line" smooth="yes"/>
      <point x="451" y="344"/>
      <point x="490" y="308"/>
      <point x="490" y="235" type="curve" smooth="yes"/>
      <point x="490" y="183" type="line" smooth="yes"/>
      <point x="490" y="110"/>
      <point x="451" y="74"/>
      <point x="385" y="74" type="curve" smooth="yes"/>
    </contour>
    <contour>
      <point x="698" y="0" type="line"/>
      <point x="782" y="0" type="line"/>
      <point x="782" y="698" type="line"/>
      <point x="698" y="698" type="line"/>
    </contour>
    <contour>
      <point x="437" y="698" type="move" name="top"/>
    </contour>
  </outline>
</glyph>
<glyph name="uni042C" format="1">
  <advance width="630"/>
  <unicode hex="042C"/>
  <outline>
    <contour>
      <point x="93" y="0" type="line" name="hr00"/>
      <point x="395" y="0" type="line"/>
      <point x="520" y="0"/>
      <point x="590" y="77"/>
      <point x="590" y="209" type="curve" smooth="yes"/>
      <point x="590" y="341"/>
      <point x="520" y="418"/>
      <point x="395" y="418" type="curve" smooth="yes"/>
      <point x="177" y="418" type="line"/>
      <point x="177" y="698" type="line"/>
      <point x="93" y="698" type="line"/>
    </contour>
    <contour>
      <point x="177" y="74" type="line"/>
      <point x="177" y="344" type="line"/>
      <point x="395" y="344" type="line" smooth="yes"/>
      <point x="461" y="344"/>
      <point x="500" y="308"/>
      <point x="500" y="235" type="curve" smooth="yes"/>
      <point x="500" y="183" type="line" smooth="yes"/>
      <point x="500" y="110"/>
      <point x="461" y="74"/>
      <point x="395" y="74" type="curve" smooth="yes"/>
    </contour>
  </outline>
</glyph>
<glyph name="uni042D" format="1">
  <advance width="631"/>
  <unicode hex="042D"/>
  <outline>
    <contour>
      <point x="189" y="316" type="line" name="hr00"/>
      <point x="483" y="316" type="line"/>
      <point x="483" y="302" type="line" smooth="yes"/>
      <point x="483" y="158"/>
      <point x="414" y="63"/>
      <point x="287" y="63" type="curve" smooth="yes"/>
      <point x="191" y="63"/>
      <point x="132" y="113"/>
      <point x="104" y="189" type="curve"/>
      <point x="37" y="147" type="line"/>
      <point x="81" y="49"/>
      <point x="164" y="-12"/>
      <point x="287" y="-12" type="curve" smooth="yes"/>
      <point x="470" y="-12"/>
      <point x="573" y="120"/>
      <point x="573" y="353" type="curve" smooth="yes"/>
      <point x="573" y="586"/>
      <point x="470" y="710"/>
      <point x="287" y="710" type="curve" smooth="yes"/>
      <point x="166" y="710"/>
      <point x="86" y="654"/>
      <point x="42" y="557" type="curve"/>
      <point x="110" y="516" type="line"/>
      <point x="138" y="588"/>
      <point x="196" y="635"/>
      <point x="287" y="635" type="curve" smooth="yes"/>
      <point x="414" y="635"/>
      <point x="483" y="548"/>
      <point x="483" y="405" type="curve" smooth="yes"/>
      <point x="483" y="390" type="line"/>
      <point x="189" y="390" type="line"/>
    </contour>
  </outline>
</glyph>
<glyph name="uni042E" format="1">
  <advance width="960"/>
  <unicode hex="042E"/>
  <outline>
    <contour>
      <point x="616" y="-12" type="curve" smooth="yes"/>
      <point x="796" y="-12"/>
      <point x="902" y="109"/>
      <point x="902" y="349" type="curve" smooth="yes"/>
      <point x="902" y="589"/>
      <point x="796" y="710"/>
      <point x="616" y="710" type="curve" smooth="yes"/>
      <point x="446" y="710"/>
      <point x="340" y="598"/>
      <point x="332" y="390" type="curve"/>
      <point x="177" y="390" type="line"/>
      <point x="177" y="698" type="line" name="hr01"/>
      <point x="93" y="698" type="line"/>
      <point x="93" y="0" type="line"/>
      <point x="177" y="0" type="line"/>
      <point x="177" y="316" type="line"/>
      <point x="330" y="316" type="line"/>
      <point x="340" y="102"/>
      <point x="440" y="-12"/>
    </contour>
    <contour>
      <point x="616" y="63" type="curve" smooth="yes"/>
      <point x="495" y="63"/>
      <point x="420" y="147"/>
      <point x="420" y="291" type="curve" smooth="yes"/>
      <point x="420" y="407" type="line" smooth="yes"/>
      <point x="420" y="551"/>
      <point x="495" y="635"/>
      <point x="616" y="635" type="curve" smooth="yes"/>
      <point x="737" y="635"/>
      <point x="812" y="551"/>
      <point x="812" y="407" type="curve" smooth="yes"/>
      <point x="812" y="291" type="line" smooth="yes"/>
      <point x="812" y="147"/>
      <point x="737" y="63"/>
    </contour>
  </outline>
</glyph>
<glyph name="uni042F" format="1">
  <advance width="640"/>
  <unicode hex="042F"/>
  <outline>
    <contour>
      <point x="41" y="0" type="line" name="hr00"/>
      <point x="103" y="0" type="line" smooth="yes"/>
      <point x="141" y="0"/>
      <point x="164" y="16"/>
      <point x="192" y="70" type="curve" smooth="yes"/>
      <point x="310" y="300" type="line"/>
      <point x="463" y="300" type="line"/>
      <point x="463" y="0" type="line"/>
      <point x="547" y="0" type="line"/>
      <point x="547" y="698" type="line"/>
      <point x="269" y="698" type="line" smooth="yes"/>
      <point x="147" y="698"/>
      <point x="74" y="627"/>
      <point x="74" y="500" type="curve" smooth="yes"/>
      <point x="74" y="391"/>
      <point x="129" y="317"/>
      <point x="255" y="313" type="curve"/>
      <point x="255" y="308" type="line"/>
      <point x="223" y="299"/>
      <point x="208" y="283"/>
      <point x="187" y="241" type="curve" smooth="yes"/>
      <point x="101" y="74" type="line"/>
      <point x="41" y="74" type="line"/>
    </contour>
    <contour>
      <point x="269" y="372" type="line" smooth="yes"/>
      <point x="203" y="372"/>
      <point x="164" y="408"/>
      <point x="164" y="472" type="curve" smooth="yes"/>
      <point x="164" y="524" type="line" smooth="yes"/>
      <point x="164" y="588"/>
      <point x="203" y="624"/>
      <point x="269" y="624" type="curve" smooth="yes"/>
      <point x="463" y="624" type="line"/>
      <point x="463" y="372" type="line"/>
    </contour>
  </outline>
</glyph>
<glyph name="uni0431" format="1">
  <advance width="564"/>
  <unicode hex="0431"/>
  <outline>
    <contour>
      <point x="284" y="-12" type="curve" smooth="yes" name="hr00"/>
      <point x="422" y="-12"/>
      <point x="517" y="95"/>
      <point x="517" y="251" type="curve" smooth="yes"/>
      <point x="517" y="419"/>
      <point x="426" y="516"/>
      <point x="295" y="516" type="curve" smooth="yes"/>
      <point x="215" y="516"/>
      <point x="169" y="481"/>
      <point x="139" y="411" type="curve"/>
      <point x="135" y="411" type="line"/>
      <point x="149" y="591"/>
      <point x="186" y="643"/>
      <point x="304" y="653" type="curve" smooth="yes"/>
      <point x="476" y="667" type="line"/>
      <point x="476" y="748" type="line"/>
      <point x="314" y="735" type="line" smooth="yes"/>
      <point x="126" y="720"/>
      <point x="51" y="604"/>
      <point x="51" y="307" type="curve" smooth="yes"/>
      <point x="51" y="79"/>
      <point x="141" y="-12"/>
    </contour>
    <contour>
      <point x="288" y="59" type="curve" smooth="yes"/>
      <point x="196" y="59"/>
      <point x="137" y="114"/>
      <point x="137" y="225" type="curve" smooth="yes"/>
      <point x="137" y="317" type="line" smooth="yes"/>
      <point x="137" y="393"/>
      <point x="184" y="445"/>
      <point x="280" y="445" type="curve" smooth="yes"/>
      <point x="372" y="445"/>
      <point x="431" y="390"/>
      <point x="431" y="279" type="curve" smooth="yes"/>
      <point x="431" y="216" type="line" smooth="yes"/>
      <point x="431" y="113"/>
      <point x="370" y="59"/>
    </contour>
  </outline>
</glyph>
<glyph name="uni0432" format="1">
  <advance width="558"/>
  <unicode hex="0432"/>
  <outline>
    <contour>
      <point x="85" y="0" type="line"/>
      <point x="358" y="0" type="line" smooth="yes"/>
      <point x="445" y="0"/>
      <point x="498" y="71"/>
      <point x="498" y="154" type="curve" smooth="yes"/>
      <point x="498" y="218"/>
      <point x="459" y="266"/>
      <point x="379" y="272" type="curve"/>
      <point x="379" y="276" type="line"/>
      <point x="445" y="284"/>
      <point x="480" y="321"/>
      <point x="480" y="385" type="curve" smooth="yes" name="hr01"/>
      <point x="480" y="464"/>
      <point x="429" y="516"/>
      <point x="345" y="516" type="curve" smooth="yes"/>
      <point x="85" y="516" type="line"/>
    </contour>
    <contour>
      <point x="165" y="66" type="line"/>
      <point x="165" y="235" type="line"/>
      <point x="334" y="235" type="line" smooth="yes"/>
      <point x="382" y="235"/>
      <point x="412" y="209"/>
      <point x="412" y="162" type="curve" smooth="yes" name="hr02"/>
      <point x="412" y="139" type="line" smooth="yes"/>
      <point x="412" y="92"/>
      <point x="382" y="66"/>
      <point x="334" y="66" type="curve" smooth="yes"/>
    </contour>
    <contour>
      <point x="165" y="300" type="line"/>
      <point x="165" y="450" type="line"/>
      <point x="324" y="450" type="line" smooth="yes"/>
      <point x="368" y="450"/>
      <point x="394" y="427"/>
      <point x="394" y="386" type="curve" smooth="yes" name="hr03"/>
      <point x="394" y="364" type="line" smooth="yes"/>
      <point x="394" y="323"/>
      <point x="368" y="300"/>
      <point x="324" y="300" type="curve" smooth="yes"/>
    </contour>
  </outline>
</glyph>
<glyph name="uni0433" format="1">
  <advance width="435"/>
  <unicode hex="0433"/>
  <outline>
    <contour>
      <point x="85" y="0" type="line" name="hr00"/>
      <point x="165" y="0" type="line"/>
      <point x="165" y="446" type="line"/>
      <point x="411" y="446" type="line"/>
      <point x="411" y="516" type="line"/>
      <point x="85" y="516" type="line"/>
    </contour>
    <contour>
      <point x="249" y="540" type="move" name="top"/>
    </contour>
  </outline>
</glyph>
<glyph name="uni0434" format="1">
  <advance width="597"/>
  <unicode hex="0434"/>
  <outline>
    <contour>
      <point x="8" y="-140" type="line" name="hr00"/>
      <point x="81" y="-140" type="line"/>
      <point x="81" y="0" type="line"/>
      <point x="498" y="0" type="line"/>
      <point x="498" y="-140" type="line"/>
      <point x="571" y="-140" type="line"/>
      <point x="571" y="70" type="line"/>
      <point x="485" y="70" type="line"/>
      <point x="485" y="516" type="line"/>
      <point x="136" y="516" type="line"/>
      <point x="136" y="367" type="line" smooth="yes"/>
      <point x="136" y="238"/>
      <point x="108" y="136"/>
      <point x="67" y="70" type="curve"/>
      <point x="8" y="70" type="line"/>
    </contour>
    <contour>
      <point x="153" y="70" type="line"/>
      <point x="185" y="130"/>
      <point x="212" y="227"/>
      <point x="212" y="363" type="curve" smooth="yes"/>
      <point x="212" y="446" type="line"/>
      <point x="405" y="446" type="line"/>
      <point x="405" y="70" type="line"/>
    </contour>
  </outline>
</glyph>
<glyph name="uni0438" format="1">
  <advance width="588"/>
  <unicode hex="0438"/>
  <outline>
    <contour>
      <point x="85" y="0" type="line" name="hr00"/>
      <point x="159" y="0" type="line"/>
      <point x="365" y="300" type="line"/>
      <point x="429" y="410" type="line"/>
      <point x="433" y="410" type="line"/>
      <point x="425" y="286" type="line"/>
      <point x="425" y="0" type="line"/>
      <point x="503" y="0" type="line"/>
      <point x="503" y="516" type="line"/>
      <point x="429" y="516" type="line"/>
      <point x="223" y="216" type="line"/>
      <point x="159" y="106" type="line"/>
      <point x="155" y="106" type="line"/>
      <point x="163" y="230" type="line"/>
      <point x="163" y="516" type="line"/>
      <point x="85" y="516" type="line"/>
    </contour>
    <contour>
      <point x="295" y="540" type="move" name="top"/>
    </contour>
  </outline>
</glyph>
<glyph name="uni043B" format="1">
  <advance width="565"/>
  <unicode hex="043B"/>
  <outline>
    <contour>
      <point x="8" y="0" type="line" name="hr00"/>
      <point x="39" y="0" type="line" smooth="yes"/>
      <point x="81" y="0"/>
      <point x="111" y="9"/>
      <point x="136" y="34" type="curve" smooth="yes"/>
      <point x="176" y="74"/>
      <point x="207" y="166"/>
      <point x="207" y="367" type="curve" smooth="yes"/>
      <point x="207" y="446" type="line"/>
      <point x="400" y="446" type="line"/>
      <point x="400" y="0" type="line"/>
      <point x="480" y="0" type="line"/>
      <point x="480" y="516" type="line"/>
      <point x="131" y="516" type="line"/>
      <point x="131" y="369" type="line" smooth="yes"/>
      <point x="131" y="197"/>
      <point x="110" y="118"/>
      <point x="76" y="70" type="curve"/>
      <point x="8" y="70" type="line"/>
    </contour>
  </outline>
</glyph>
<glyph name="uni043C" format="1">
  <advance width="696"/>
  <unicode hex="043C"/>
  <outline>
    <contour>
      <point x="85" y="0" type="line" name="hr00"/>
      <point x="163" y="0" type="line"/>
      <point x="163" y="420" type="line"/>
      <point x="168" y="420" type="line"/>
      <point x="197" y="364" type="line"/>
      <point x="348" y="108" type="line"/>
      <point x="499" y="364" type="line"/>
      <point x="528" y="420" type="line"/>
      <point x="533" y="420" type="line"/>
      <point x="533" y="0" type="line"/>
      <point x="611" y="0" type="line"/>
      <point x="611" y="516" type="line"/>
      <point x="507" y="516" type="line"/>
      <point x="351" y="248" type="line"/>
      <point x="347" y="248" type="line"/>
      <point x="190" y="516" type="line"/>
      <point x="85" y="516" type="line"/>
    </contour>
  </outline>
</glyph>
<glyph name="uni043D" format="1">
  <advance width="588"/>
  <unicode hex="043D"/>
  <outline>
    <contour>
      <point x="85" y="0" type="line" name="hr00"/>
      <point x="165" y="0" type="line"/>
      <point x="165" y="231" type="line"/>
      <point x="423" y="231" type="line"/>
      <point x="423" y="0" type="line"/>
      <point x="503" y="0" type="line"/>
      <point x="503" y="516" type="line"/>
      <point x="423" y="516" type="line"/>
      <point x="423" y="301" type="line"/>
      <point x="165" y="301" type="line"/>
      <point x="165" y="516" type="line"/>
      <point x="85" y="516" type="line"/>
    </contour>
  </outline>
</glyph>
<glyph name="uni0442" format="1">
  <advance width="472"/>
  <unicode hex="0442"/>
  <outline>
    <contour>
      <point x="196" y="0" type="line" name="hr00"/>
      <point x="276" y="0" type="line"/>
      <point x="276" y="446" type="line"/>
      <point x="452" y="446" type="line"/>
      <point x="452" y="516" type="line"/>
      <point x="20" y="516" type="line"/>
      <point x="20" y="446" type="line"/>
      <point x="196" y="446" type="line"/>
    </contour>
  </outline>
</glyph>
<glyph name="uni0444" format="1">
  <advance width="750"/>
  <unicode hex="0444"/>
  <outline>
    <contour>
      <point x="335" y="-200" type="line" name="hr00"/>
      <point x="415" y="-200" type="line"/>
      <point x="415" y="54" type="line"/>
      <point x="418" y="54" type="line"/>
      <point x="444" y="14"/>
      <point x="477" y="-12"/>
      <point x="528" y="-12" type="curve" smooth="yes"/>
      <point x="642" y="-12"/>
      <point x="699" y="75"/>
      <point x="699" y="258" type="curve" smooth="yes"/>
      <point x="699" y="441"/>
      <point x="642" y="528"/>
      <point x="528" y="528" type="curve" smooth="yes"/>
      <point x="477" y="528"/>
      <point x="444" y="502"/>
      <point x="418" y="462" type="curve"/>
      <point x="415" y="462" type="line"/>
      <point x="415" y="710" type="line"/>
      <point x="335" y="710" type="line"/>
      <point x="335" y="462" type="line"/>
      <point x="332" y="462" type="line"/>
      <point x="306" y="502"/>
      <point x="273" y="528"/>
      <point x="222" y="528" type="curve" smooth="yes"/>
      <point x="108" y="528"/>
      <point x="51" y="441"/>
      <point x="51" y="258" type="curve" smooth="yes"/>
      <point x="51" y="75"/>
      <point x="108" y="-12"/>
      <point x="222" y="-12" type="curve" smooth="yes"/>
      <point x="273" y="-12"/>
      <point x="306" y="14"/>
      <point x="332" y="54" type="curve"/>
      <point x="335" y="54" type="line"/>
    </contour>
    <contour>
      <point x="243" y="59" type="curve" smooth="yes"/>
      <point x="169" y="59"/>
      <point x="137" y="102"/>
      <point x="137" y="214" type="curve" smooth="yes"/>
      <point x="137" y="302" type="line" smooth="yes"/>
      <point x="137" y="414"/>
      <point x="169" y="457"/>
      <point x="243" y="457" type="curve" smooth="yes"/>
      <point x="306" y="457"/>
      <point x="336" y="434"/>
      <point x="336" y="387" type="curve" smooth="yes"/>
      <point x="336" y="129" type="line" smooth="yes"/>
      <point x="336" y="82"/>
      <point x="306" y="59"/>
    </contour>
    <contour>
      <point x="507" y="59" type="curve" smooth="yes"/>
      <point x="444" y="59"/>
      <point x="414" y="82"/>
      <point x="414" y="129" type="curve" smooth="yes"/>
      <point x="414" y="387" type="line" smooth="yes"/>
      <point x="414" y="434"/>
      <point x="444" y="457"/>
      <point x="507" y="457" type="curve" smooth="yes"/>
      <point x="581" y="457"/>
      <point x="613" y="414"/>
      <point x="613" y="302" type="curve" smooth="yes"/>
      <point x="613" y="214" type="line" smooth="yes"/>
      <point x="613" y="102"/>
      <point x="581" y="59"/>
    </contour>
  </outline>
</glyph>
<glyph name="uni0446" format="1">
  <advance width="600"/>
  <unicode hex="0446"/>
  <outline>
    <contour>
      <point x="501" y="-140" type="line" name="hr00"/>
      <point x="574" y="-140" type="line"/>
      <point x="574" y="70" type="line"/>
      <point x="488" y="70" type="line"/>
      <point x="488" y="516" type="line"/>
      <point x="408" y="516" type="line"/>
      <point x="408" y="70" type="line"/>
      <point x="165" y="70" type="line"/>
      <point x="165" y="516" type="line"/>
      <point x="85" y="516" type="line"/>
      <point x="85" y="0" type="line"/>
      <point x="501" y="0" type="line"/>
    </contour>
  </outline>
</glyph>
<glyph name="uni0447" format="1">
  <advance width="538"/>
  <unicode hex="0447"/>
  <outline>
    <contour>
      <point x="373" y="0" type="line" name="hr00"/>
      <point x="453" y="0" type="line"/>
      <point x="453" y="516" type="line"/>
      <point x="373" y="516" type="line"/>
      <point x="373" y="310" type="line" smooth="yes"/>
      <point x="373" y="268"/>
      <point x="317" y="247"/>
      <point x="241" y="247" type="curve" smooth="yes"/>
      <point x="166" y="247"/>
      <point x="130" y="278"/>
      <point x="130" y="341" type="curve" smooth="yes"/>
      <point x="130" y="516" type="line"/>
      <point x="50" y="516" type="line"/>
      <point x="50" y="334" type="line" smooth="yes"/>
      <point x="50" y="228"/>
      <point x="112" y="175"/>
      <point x="217" y="175" type="curve" smooth="yes"/>
      <point x="293" y="175"/>
      <point x="336" y="201"/>
      <point x="368" y="237" type="curve"/>
      <point x="373" y="237" type="line"/>
    </contour>
    <contour>
      <point x="251" y="540" type="move" name="top"/>
    </contour>
  </outline>
</glyph>
<glyph name="uni0448" format="1">
  <advance width="798"/>
  <unicode hex="0448"/>
  <outline>
    <contour>
      <point x="85" y="0" type="line" name="hr00"/>
      <point x="713" y="0" type="line"/>
      <point x="713" y="516" type="line"/>
      <point x="633" y="516" type="line"/>
      <point x="633" y="70" type="line"/>
      <point x="439" y="70" type="line"/>
      <point x="439" y="516" type="line"/>
      <point x="359" y="516" type="line"/>
      <point x="359" y="70" type="line"/>
      <point x="165" y="70" type="line"/>
      <point x="165" y="516" type="line"/>
      <point x="85" y="516" type="line"/>
    </contour>
  </outline>
</glyph>
<glyph name="uni0449" format="1">
  <advance width="825"/>
  <unicode hex="0449"/>
  <outline>
    <contour>
      <point x="726" y="-140" type="line" name="hr00"/>
      <point x="799" y="-140" type="line"/>
      <point x="799" y="70" type="line"/>
      <point x="713" y="70" type="line"/>
      <point x="713" y="516" type="line"/>
      <point x="633" y="516" type="line"/>
      <point x="633" y="70" type="line"/>
      <point x="439" y="70" type="line"/>
      <point x="439" y="516" type="line"/>
      <point x="359" y="516" type="line"/>
      <point x="359" y="70" type="line"/>
      <point x="165" y="70" type="line"/>
      <point x="165" y="516" type="line"/>
      <point x="85" y="516" type="line"/>
      <point x="85" y="0" type="line"/>
      <point x="726" y="0" type="line"/>
    </contour>
  </outline>
</glyph>
